<svg xmlns="http://www.w3.org/2000/svg" width="2353.855" height="1409.903" viewBox="0 0 2353.855 1409.903">
  <g id="Group_196" data-name="Group 196" transform="translate(205.016 -5022)">
    <path id="Path_81" data-name="Path 81" d="M2234.472,966.5c-95.87,176.513-298.361,334.3-629.911,379.595C1093.23,1415.9,563.01,1231.076,271.578,1000.609,164.662,916.142,86.619,821.8,35.7,721.781-31.615,589.614-.5,458.152,141.779,345.313,470.445,84.516,1045.7-28.641,1578.579,61.532c227.518,38.515,507.034,126.4,611.657,247.915,66.5,77.156,98.878,159.552,112.785,244.6,15.066,92.356,6.189,184.416-15.88,276.053A557.508,557.508,0,0,1,2234.472,966.5" transform="translate(-159.182 4991.058) rotate(2)" fill="#fff" opacity="0.75"/>
  </g>
</svg>
