<svg xmlns="http://www.w3.org/2000/svg" width="26.518" height="26.484" viewBox="0 0 26.518 26.484">
  <path id="Path_68" data-name="Path 68" d="M19.778,39.194c-.778,2.506-2.42,4.746-5.109,5.389-4.148.991-8.448-1.633-10.812-4.905A12.854,12.854,0,0,1,1.943,35.72a6,6,0,0,1,.86-5.345A11.86,11.86,0,0,1,15.23,26.263a6.883,6.883,0,0,1,4.189,3.6,9.829,9.829,0,0,1,.915,3.473,17.065,17.065,0,0,1-.129,3.919,12.053,12.053,0,0,1-.427,1.937" transform="translate(-21.129 -0.411) rotate(-51)" fill="#f18079"/>
</svg>
