<svg xmlns="http://www.w3.org/2000/svg" width="13.324" height="12.372" viewBox="0 0 13.324 12.372">
  <path id="Icon_ionic-ios-star" data-name="Icon ionic-ios-star" d="M15.069,7.658H10.694L9.364,3.69a.482.482,0,0,0-.9,0L7.131,7.658h-4.4a.477.477,0,0,0-.476.476.35.35,0,0,0,.009.08.457.457,0,0,0,.2.336l3.6,2.534L4.674,15.1a.477.477,0,0,0,.164.535.46.46,0,0,0,.268.116.583.583,0,0,0,.3-.107l3.509-2.5,3.509,2.5a.557.557,0,0,0,.3.107.427.427,0,0,0,.265-.116.471.471,0,0,0,.164-.535l-1.38-4.012,3.566-2.558.086-.074a.455.455,0,0,0-.351-.794Z" transform="translate(-2.25 -3.375)" fill="#f28f5a"/>
</svg>
