<svg xmlns="http://www.w3.org/2000/svg" width="1090.07" height="1083.335" viewBox="0 0 1090.07 1083.335">
  <path id="Oval" d="M830.6,637.114c-35.592,114.7-110.768,217.242-233.857,246.673-189.834,45.36-386.68-74.745-494.875-224.51C62.179,604.387,33.206,543.081,14.3,478.085-10.689,392.2.863,306.77,53.684,233.444,175.7,63.969,424.6-13.348,622.435,45.249,706.9,70.277,775.34,131.171,814.182,210.137c24.689,50.138,36.709,103.682,41.872,158.947,5.593,60.016,2.3,119.84-5.9,179.389A551.617,551.617,0,0,1,830.6,637.114" transform="translate(1115.159 274.52) rotate(108)" fill="#fff" opacity="0.75"/>
</svg>
