<svg xmlns="http://www.w3.org/2000/svg" width="1038.471" height="1035.559" viewBox="0 0 1038.471 1035.559">
  <path id="Oval" d="M725.025,559.258C693.966,659.352,628.366,748.83,520.954,774.513,355.3,814.095,183.524,709.287,89.11,578.6,54.472,530.7,29.189,477.2,12.693,420.483-9.116,345.536.966,270.989,47.059,207,153.536,59.113,370.732-8.357,543.369,42.777c73.709,21.84,133.43,74.979,167.325,143.887,21.545,43.752,32.033,90.476,36.539,138.7,4.881,52.372,2.005,104.576-5.145,156.54a481.353,481.353,0,0,1-17.063,77.351" transform="matrix(-0.53, 0.848, -0.848, -0.53, 1061.267, 413.505)" fill="#fff" opacity="0.803"/>
</svg>
