<?xml version="1.0" standalone="no"?>
<!DOCTYPE svg PUBLIC "-//W3C//DTD SVG 1.1//EN" "http://www.w3.org/Graphics/SVG/1.1/DTD/svg11.dtd" >
<svg xmlns="http://www.w3.org/2000/svg" xmlns:xlink="http://www.w3.org/1999/xlink" version="1.1">
<metadata>
Created by FontForge 20200427 at Mon Apr 13 22:57:20 2015
 By www
Copyright (c) 2015 by Marconi Lima/Typefolio Digital Foundry. All rights reserved.
</metadata>
<defs>
<font id="StevieSansW00-Light" horiz-adv-x="570" >
  <font-face 
    font-family="StevieSansW00-Light"
    font-weight="300"
    font-stretch="normal"
    units-per-em="1000"
    panose-1="2 0 5 3 0 0 0 2 0 4"
    ascent="800"
    descent="-200"
    x-height="507"
    cap-height="664"
    bbox="-42 -247 1143 899"
    underline-thickness="50"
    underline-position="-175"
    unicode-range="U+0020-FB02"
  />
<missing-glyph horiz-adv-x="690" 
d="M570 147l-185 185l185 186l-39 41l-186 -187l-186 187l-39 -41l185 -186l-185 -185l40 -41l185 186l185 -186zM45 -53v773h600v-773h-600z" />
    <glyph glyph-name="uniFB01" unicode="fi" horiz-adv-x="568" 
d="M410 0v458h-243v-458h-62v458h-81v49h81v61q0 34 3.5 64t18 52.5t42.5 35t77 12.5q11 0 25.5 -1t27.5 -3v-45h-48q-27 0 -43.5 -7t-25.5 -20.5t-12 -34t-3 -48.5v-66h305v-507h-62zM407 618v79h68v-79h-68z" />
    <glyph glyph-name="uniFB02" unicode="fl" horiz-adv-x="568" 
d="M105 0v458h-81v49h81v61q0 34 3.5 64t18 52.5t42.5 35t77 12.5q11 0 25.5 -1t27.5 -3v-45h-48q-27 0 -43.5 -7t-25.5 -20.5t-12 -34t-3 -48.5v-66h130v-49h-130v-458h-62zM410 0v720h62v-720h-62z" />
    <glyph glyph-name=".notdef" horiz-adv-x="690" 
d="M570 147l-185 185l185 186l-39 41l-186 -187l-186 187l-39 -41l185 -186l-185 -185l40 -41l185 186l185 -186zM45 -53v773h600v-773h-600z" />
    <glyph glyph-name=".null" horiz-adv-x="0" 
 />
    <glyph glyph-name="nonmarkingreturn" horiz-adv-x="333" 
 />
    <glyph glyph-name="space" unicode=" " horiz-adv-x="239" 
 />
    <glyph glyph-name="exclam" unicode="!" horiz-adv-x="245" 
d="M102 195l-11 187v303h63v-303l-11 -187h-41zM89 0v124h66v-124h-66z" />
    <glyph glyph-name="quotedbl" unicode="&#x22;" horiz-adv-x="279" 
d="M47 483l-7 102v152h58v-152l-7 -102h-44zM188 483l-7 102v152h58v-152l-7 -102h-44z" />
    <glyph glyph-name="numbersign" unicode="#" horiz-adv-x="762" 
d="M434 0l24 204h-176l-25 -204h-51l25 204h-156v49h162l20 164h-144v49h151l25 198h51l-25 -198h177l25 198h51l-25 -198h144v-49h-150l-21 -164h133v-49h-139l-25 -204h-51zM485 417h-176l-21 -164h177z" />
    <glyph glyph-name="dollar" unicode="$" horiz-adv-x="581" 
d="M274 -142v144q-28 1 -66 9t-73.5 29.5t-61 60.5t-28.5 102h65q1 -42 17 -70t41.5 -45t57.5 -24t66 -7q37 0 69.5 6.5t56.5 21.5t37.5 39.5t13.5 59.5q0 49 -29.5 75t-74.5 41t-96.5 26t-96.5 31t-74.5 54.5t-29.5 96.5q0 42 17.5 73.5t46.5 52.5t66 32.5t76 13.5v145h51
v-146q30 -2 64.5 -10.5t64.5 -29.5t51 -56t24 -89h-63q-3 43 -20 69.5t-42.5 41t-55 19t-56.5 4.5q-30 0 -58.5 -6.5t-51 -20.5t-36 -36t-13.5 -54q0 -48 29.5 -74t74.5 -41t96.5 -26.5t96.5 -31.5t74.5 -54.5t29.5 -96.5q0 -75 -54 -125t-155 -58v-146h-51z" />
    <glyph glyph-name="percent" unicode="%" horiz-adv-x="826" 
d="M194 352q-69 0 -107.5 43t-38.5 113q0 69 38.5 112.5t107.5 43.5q70 0 108 -43.5t38 -112.5q0 -70 -38 -113t-108 -43zM194 394q46 0 69 30t23 84t-23 84t-69 30t-69 -30t-23 -84t23 -84t69 -30zM204 0l386 692h50l-387 -692h-49zM632 0q-70 0 -108 43t-38 113t38 113
t108 43q69 0 107.5 -43t38.5 -113t-38.5 -113t-107.5 -43zM632 43q46 0 69 29.5t23 83.5t-23 84.5t-69 30.5t-69.5 -30.5t-23.5 -84.5t23.5 -83.5t69.5 -29.5z" />
    <glyph glyph-name="ampersand" unicode="&#x26;" horiz-adv-x="618" 
d="M496 0l-39 46q-67 -58 -160 -58q-52 0 -96 14.5t-75.5 41t-49.5 64t-18 82.5q0 56 30.5 106t90.5 78q-27 35 -43 69t-16 74q0 38 15 69.5t40.5 53.5t59 34t69.5 12t68 -10t56.5 -29.5t38.5 -48.5t14 -66h-62q0 51 -32 76t-83 25q-52 0 -85 -29t-33 -89q0 -37 16 -66.5
t44 -62.5l219 -263q22 35 32 82t10 95h54q0 -26 -3.5 -54.5t-11 -57t-19.5 -55.5t-29 -49l70 -84h-72zM209 338q-48 -25 -66.5 -60t-18.5 -84q0 -37 13.5 -65.5t37.5 -48t56.5 -29.5t70.5 -10q39 0 70 11.5t53 31.5z" />
    <glyph glyph-name="quotesingle" unicode="'" horiz-adv-x="138" 
d="M47 483l-7 102v152h58v-152l-7 -102h-44z" />
    <glyph glyph-name="parenleft" unicode="(" horiz-adv-x="246" 
d="M180 -217q-66 99 -103 220.5t-37 250.5q0 133 38 253t107 220h51q-26 -43 -49.5 -95.5t-41 -112.5t-28 -127t-10.5 -138q0 -69 9.5 -135t26.5 -126.5t39.5 -113.5t48.5 -96h-51z" />
    <glyph glyph-name="parenright" unicode=")" horiz-adv-x="246" 
d="M15 -217q26 43 48.5 96t39.5 113.5t26.5 126.5t9.5 135q0 71 -10 138t-27.5 127t-41 112.5t-50.5 95.5h51q69 -100 107 -220t38 -253q0 -129 -37 -250.5t-103 -220.5h-51z" />
    <glyph glyph-name="asterisk" unicode="*" horiz-adv-x="437" 
d="M239 483v-148h-41v148l-130 -69l-18 37l124 67l-124 68l18 35l130 -68v149h41v-148l127 68l21 -37l-126 -67l125 -67l-20 -37z" />
    <glyph glyph-name="plus" unicode="+" horiz-adv-x="605" 
d="M330 235v-195h-56v195h-194v54h194v196h56v-196h195v-54h-195z" />
    <glyph glyph-name="comma" unicode="," horiz-adv-x="164" 
d="M49 -139v261h66q0 -32 -0.5 -59.5t-4 -57t-10.5 -64t-19 -80.5h-32z" />
    <glyph glyph-name="hyphen" unicode="-" horiz-adv-x="562" 
d="M90 238v49h382v-49h-382z" />
    <glyph glyph-name="period" unicode="." horiz-adv-x="165" 
d="M49 0v125h67v-125h-67z" />
    <glyph glyph-name="slash" unicode="/" horiz-adv-x="334" 
d="M10 -207l253 942h61l-253 -942h-61z" />
    <glyph glyph-name="zero" unicode="0" horiz-adv-x="654" 
d="M328 -12q-62 0 -111 23.5t-84 68t-53.5 108t-18.5 143.5t18.5 143.5t53.5 108t84 68t111 23.5q61 0 110 -23.5t83.5 -68t53.5 -108t19 -143.5t-19 -143.5t-53.5 -108t-83.5 -68t-110 -23.5zM328 45q98 0 149 75t51 211t-51 211.5t-149 75.5t-149 -75.5t-51 -211.5
t51 -211t149 -75z" />
    <glyph glyph-name="one" unicode="1" horiz-adv-x="510" 
d="M260 0v599l-176 -89v62l177 92h62v-664h-63z" />
    <glyph glyph-name="two" unicode="2" horiz-adv-x="577" 
d="M56 0v40q61 56 128 106.5t122.5 101.5t92 105.5t36.5 117.5q0 70 -36 110t-117 40q-28 0 -56 -5.5t-51 -22t-38 -47.5t-15 -81h-64q1 64 23.5 104.5t56 63.5t72.5 32t72 9q54 0 94.5 -15.5t67.5 -42.5t40 -64t13 -81q0 -45 -17 -85.5t-44.5 -78t-63 -71.5t-72.5 -65
t-73 -59.5t-64 -54.5h343v-57h-450z" />
    <glyph glyph-name="three" unicode="3" horiz-adv-x="581" 
d="M197 322v51h60q85 0 133.5 31.5t48.5 101.5q0 56 -39 85.5t-110 29.5q-28 0 -55.5 -5.5t-50 -21.5t-36.5 -44.5t-15 -74.5h-63q1 60 23.5 98.5t55.5 61t71 31t70 8.5q46 0 85 -11.5t66.5 -32.5t43 -51.5t15.5 -69.5q0 -64 -33.5 -104t-99.5 -53q30 -3 57.5 -15t49 -33
t34 -51.5t12.5 -70.5q0 -42 -16 -78t-46 -61.5t-72.5 -40t-94.5 -14.5q-39 0 -79 9t-73 31.5t-54 61t-22 98.5h64q0 -42 13 -70.5t35.5 -45t52 -23.5t63.5 -7q78 0 121.5 35.5t43.5 105.5q0 39 -14.5 65.5t-41 43t-63 23.5t-79.5 7h-61z" />
    <glyph glyph-name="four" unicode="4" horiz-adv-x="606" 
d="M390 0v155h-339v52l315 457h87v-455h107v-54h-107v-155h-63zM390 605l-278 -396h278v396z" />
    <glyph glyph-name="five" unicode="5" horiz-adv-x="582" 
d="M124 188q0 -42 13 -70.5t34.5 -45.5t50.5 -24t61 -7q83 0 128.5 43.5t45.5 122.5q0 75 -38.5 122t-116.5 47q-43 0 -80 -13t-79 -52l-52 3l28 350h357v-55h-306l-20 -235q42 32 82 42.5t78 10.5q51 0 90.5 -16.5t66.5 -46t40.5 -69.5t13.5 -88q0 -46 -16 -86t-47 -69.5
t-75 -46.5t-101 -17q-38 0 -76.5 9t-70.5 31.5t-52.5 61t-21.5 98.5h63z" />
    <glyph glyph-name="six" unicode="6" horiz-adv-x="594" 
d="M455 525q0 48 -35.5 72.5t-94.5 24.5q-46 0 -82 -16.5t-61 -53t-38.5 -93.5t-14.5 -138q34 48 85.5 75.5t115.5 27.5q50 0 88.5 -17t64.5 -46.5t39.5 -69.5t13.5 -87q0 -45 -16 -84t-46 -68.5t-72 -46.5t-94 -17q-60 0 -105.5 23.5t-76 66.5t-45.5 102t-15 130
q0 95 19 164t53.5 113.5t82.5 65.5t105 21q40 0 74.5 -10t60 -28.5t40.5 -46.5t15 -64h-61zM130 259q0 -41 11 -80.5t33 -70t55 -49t77 -18.5q40 0 71 12t52.5 33.5t32.5 51.5t11 65q0 75 -37 122.5t-112 47.5q-53 0 -101.5 -23.5t-92.5 -90.5z" />
    <glyph glyph-name="seven" unicode="7" horiz-adv-x="491" 
d="M93 0q50 153 125 304t174 305h-383v55h452v-52q-100 -150 -175 -303.5t-125 -308.5h-68z" />
    <glyph glyph-name="eight" unicode="8" horiz-adv-x="583" 
d="M380 351q30 -6 56 -20.5t46 -37t31.5 -53.5t11.5 -69t-16.5 -71.5t-47 -58t-73.5 -39t-96 -14.5q-54 0 -97 14.5t-73 39t-46.5 58t-16.5 71.5t11.5 69t31 53.5t46 37t55.5 20.5q-65 14 -94.5 56.5t-29.5 96.5q0 36 15.5 67t43.5 54t67 36t87 13q47 0 86.5 -13t67.5 -36
t43.5 -54t15.5 -67q0 -54 -30 -96.5t-95 -56.5zM460 175q0 36 -12.5 63.5t-34.5 46.5t-53 28.5t-68 9.5q-75 0 -122 -38t-47 -110q0 -28 11.5 -52.5t33.5 -43t53.5 -29t70.5 -10.5t70.5 10.5t53 29t33 43t11.5 52.5zM443 502q0 53 -38.5 87t-112.5 34t-113 -34t-39 -87
q0 -26 10 -49t29.5 -40t48 -27t64.5 -10t64.5 10t47.5 27t29 40t10 49z" />
    <glyph glyph-name="nine" unicode="9" horiz-adv-x="594" 
d="M139 138q0 -49 36 -73.5t97 -24.5q45 0 81 16.5t60.5 53t38 93.5t13.5 138q-34 -48 -85.5 -75.5t-115.5 -27.5q-50 0 -88.5 17t-64.5 46t-39.5 69t-13.5 86q0 45 16 85t46 69.5t72.5 46.5t94.5 17q60 0 105.5 -24t76 -66.5t45.5 -102t15 -129.5q0 -95 -19 -163.5
t-53.5 -113t-82 -66t-104.5 -21.5q-41 0 -76 9.5t-61 28.5t-41 47t-15 65h62zM464 402q0 41 -11 80.5t-33 70t-55 49.5t-77 19q-80 0 -123 -46t-43 -118q0 -37 9 -67.5t27.5 -53t46.5 -35t65 -12.5q53 0 101.5 23.5t92.5 89.5z" />
    <glyph glyph-name="colon" unicode=":" horiz-adv-x="165" 
d="M49 393v125h67v-125h-67zM49 0v125h67v-125h-67z" />
    <glyph glyph-name="semicolon" unicode=";" horiz-adv-x="165" 
d="M49 -140v262h67q0 -32 -1 -59.5t-4.5 -57.5t-10.5 -64.5t-19 -80.5h-32zM49 393v125h67v-125h-67z" />
    <glyph glyph-name="less" unicode="&#x3c;" horiz-adv-x="576" 
d="M80 239v55l416 239v-61l-353 -205l353 -206v-61z" />
    <glyph glyph-name="equal" unicode="=" horiz-adv-x="605" 
d="M80 333v54h445v-54h-445zM80 139v56h445v-56h-445z" />
    <glyph glyph-name="greater" unicode="&#x3e;" horiz-adv-x="576" 
d="M80 0v61l352 206l-352 205v61l416 -239v-55z" />
    <glyph glyph-name="question" unicode="?" horiz-adv-x="460" 
d="M154 191q0 46 14.5 80t36.5 60t48 47.5t48 42.5t36.5 45t14.5 55q0 32 -11.5 53.5t-30.5 34t-43.5 18t-49.5 5.5q-19 0 -42.5 -2.5t-45 -13t-37 -32t-19.5 -58.5h-57q4 53 27 84.5t53.5 48.5t63.5 22.5t57 5.5q39 0 74 -8.5t62 -28t43 -50.5t16 -76q0 -42 -15 -71
t-37 -51.5t-48.5 -42t-48.5 -42.5t-37 -53t-15 -73h-57zM149 0v124h67v-124h-67z" />
    <glyph glyph-name="at" unicode="@" horiz-adv-x="900" 
d="M654 -98q-57 -30 -112 -40.5t-104 -10.5q-79 0 -148.5 26.5t-122 77.5t-83 126t-30.5 172q0 94 34 172t92.5 133t135.5 85.5t164 30.5q66 0 131 -20.5t117.5 -62.5t85 -106t32.5 -150q0 -46 -12.5 -96.5t-37 -92.5t-62 -69.5t-87.5 -27.5q-14 0 -30 3.5t-29.5 13.5
t-22.5 27t-8 44q-28 -56 -72.5 -83t-99.5 -27q-36 0 -66.5 14.5t-52 44t-31.5 73.5t-4 103q6 61 26.5 105.5t49 72.5t64 41.5t71.5 13.5q50 0 89 -27t59 -83l19 97h43l-45 -321q-3 -21 0 -34.5t10.5 -21.5t17.5 -11t22 -3q37 0 63.5 22.5t44 57.5t26 78t8.5 85
q0 79 -28.5 135t-74.5 92t-102.5 52.5t-113.5 16.5q-74 0 -142 -25t-120 -73.5t-83 -118.5t-31 -160q0 -88 27.5 -155t74 -112t107.5 -68t128 -23q57 0 110 10.5t112 44.5zM396 72q69 0 114 49t56 139q11 95 -22 143t-97 48q-29 0 -55.5 -10.5t-47.5 -33.5t-35.5 -59
t-20.5 -87q-5 -48 1 -83.5t20.5 -59t37 -35t49.5 -11.5z" />
    <glyph glyph-name="A" unicode="A" horiz-adv-x="665" 
d="M564 0l-79 199h-309l-77 -199h-69l266 664h73l266 -664h-71zM331 596l-134 -342h267z" />
    <glyph glyph-name="B" unicode="B" horiz-adv-x="593" 
d="M90 0v664h189q117 0 181 -38t64 -126q0 -65 -36.5 -104t-100.5 -50q34 -4 63 -17t49.5 -34t32 -49t11.5 -61q0 -37 -13 -70.5t-40 -59t-68 -40.5t-96 -15h-236zM312 52q78 0 120 34.5t42 100.5q0 63 -51.5 98t-148.5 35h-120v-268h158zM274 369q42 0 76 6.5t58 21.5
t37.5 39t13.5 60t-14.5 59t-40 36t-60 17.5t-75.5 4.5h-115v-244h120z" />
    <glyph glyph-name="C" unicode="C" horiz-adv-x="674" 
d="M616 188q-23 -97 -89.5 -148.5t-170.5 -51.5q-69 0 -124 23.5t-93.5 67.5t-58.5 108t-20 144t21 143.5t60 108t94 68t122 23.5q104 0 169.5 -49.5t88.5 -139.5h-67q-17 64 -65.5 98.5t-125.5 34.5q-113 0 -171.5 -75.5t-58.5 -211.5q0 -134 58.5 -210t170.5 -76
q81 0 130.5 36t64.5 107h65z" />
    <glyph glyph-name="D" unicode="D" horiz-adv-x="694" 
d="M90 0v664h225q76 0 136 -24.5t102 -68.5t64.5 -104t22.5 -131q0 -68 -22.5 -129t-64.5 -107t-102 -73t-136 -27h-225zM312 57q64 0 112.5 22t81.5 60.5t49.5 89t16.5 107.5q0 58 -17 108t-50 86.5t-81.5 57t-112.5 20.5h-157v-551h158z" />
    <glyph glyph-name="E" unicode="E" horiz-adv-x="528" 
d="M90 0v664h385v-55h-321v-241h303v-54h-303v-258h323v-56h-387z" />
    <glyph glyph-name="F" unicode="F" horiz-adv-x="505" 
d="M90 0v664h366v-55h-302v-247h284v-56h-284v-306h-64z" />
    <glyph glyph-name="G" unicode="G" horiz-adv-x="689" 
d="M578 0l-12 121q-16 -38 -40.5 -63t-52.5 -41t-57 -22.5t-54 -6.5q-71 0 -127 23.5t-95 67.5t-59.5 108t-20.5 144t21.5 143.5t60.5 108t94.5 68t123.5 23.5q103 0 167 -49.5t83 -139.5h-67q-14 64 -60.5 98.5t-122.5 34.5q-115 0 -174 -75.5t-59 -211.5
q0 -137 59.5 -212.5t177.5 -75.5q89 0 139.5 60.5t50.5 164.5v14h-185v52h252v-334h-43z" />
    <glyph glyph-name="H" unicode="H" horiz-adv-x="686" 
d="M532 0v313h-378v-313h-64v664h64v-294h378v294h64v-664h-64z" />
    <glyph glyph-name="I" unicode="I" horiz-adv-x="244" 
d="M90 0v664h64v-664h-64z" />
    <glyph glyph-name="J" unicode="J" horiz-adv-x="322" 
d="M4 43h83q49 0 65 29t16 92v500h64v-497q0 -28 -2.5 -59.5t-15 -58t-40 -44t-76.5 -17.5q-2 0 -30 1t-64 8v46z" />
    <glyph glyph-name="K" unicode="K" horiz-adv-x="571" 
d="M485 0l-260 324l-71 -76v-248h-64v664h64v-333l312 333h77l-274 -294l296 -370h-80z" />
    <glyph glyph-name="L" unicode="L" horiz-adv-x="489" 
d="M90 0v664h64v-608h319v-56h-383z" />
    <glyph glyph-name="M" unicode="M" horiz-adv-x="857" 
d="M703 0v583l-250 -583h-53l-247 583v-583h-63v664h92l247 -590l247 590h91v-664h-64z" />
    <glyph glyph-name="N" unicode="N" horiz-adv-x="699" 
d="M529 0l-375 569v-569h-64v664h75l380 -581v581h64v-664h-80z" />
    <glyph glyph-name="O" unicode="O" horiz-adv-x="729" 
d="M364 -12q-70 0 -126.5 23.5t-96 68t-60.5 108t-21 143.5q0 79 21 143t60.5 108t96 68t126.5 24t126.5 -24t96.5 -68t61 -108t21 -143q0 -80 -21 -143.5t-61 -108t-96.5 -68t-126.5 -23.5zM364 45q118 0 178 75.5t60 210.5t-60 211t-178 76q-117 0 -177 -76.5t-60 -210.5
q0 -135 59.5 -210.5t177.5 -75.5z" />
    <glyph glyph-name="P" unicode="P" horiz-adv-x="589" 
d="M90 0v664h217q106 0 167 -49.5t61 -147.5q0 -47 -16.5 -84.5t-46 -64t-71.5 -40.5t-93 -14h-154v-264h-64zM306 318q72 0 117 37t45 112q0 72 -43 106.5t-122 34.5h-149v-290h152z" />
    <glyph glyph-name="Q" unicode="Q" horiz-adv-x="729" 
d="M670 -47q-37 9 -72 15.5t-71.5 11t-76.5 6.5t-86 2q-70 0 -126.5 23.5t-96 68t-60.5 108t-21 143.5q0 79 21 143t60.5 108t96 68t126.5 24t126.5 -23.5t96.5 -68t61 -108t21 -143.5q0 -107 -41 -183.5t-115 -116.5q42 -2 84.5 -6.5t85.5 -11.5zM364 45q118 0 178 75.5
t60 210.5t-60 211t-178 76q-117 0 -177 -76.5t-60 -210.5q0 -135 59.5 -210.5t177.5 -75.5z" />
    <glyph glyph-name="R" unicode="R" horiz-adv-x="584" 
d="M472 0l-146 285h-172v-285h-64v664h216q106 0 167 -46.5t61 -137.5q0 -69 -39.5 -118t-105.5 -66l152 -296h-69zM312 339q70 0 112.5 35.5t42.5 105.5q0 128 -159 128h-154v-269h158z" />
    <glyph glyph-name="S" unicode="S" horiz-adv-x="581" 
d="M466 488q-3 43 -20 69t-42.5 40.5t-55 19t-56.5 4.5q-30 0 -58.5 -6.5t-51 -20.5t-36 -36t-13.5 -54q0 -50 29.5 -76t74.5 -41.5t96.5 -27t96.5 -32t74.5 -56t29.5 -98.5q0 -41 -16 -75t-47 -58.5t-76.5 -38t-104.5 -13.5q-17 0 -40.5 2.5t-50 9.5t-53 20.5t-48.5 35.5
t-36.5 54.5t-16.5 77.5h65q1 -42 17 -69.5t41.5 -44.5t57.5 -24t66 -7q37 0 69.5 6.5t56.5 21.5t37.5 39t13.5 59q0 50 -29.5 77t-74.5 42.5t-96.5 26.5t-96.5 31.5t-74.5 55.5t-29.5 99q0 45 20 78t52 54t73 31t82 10q19 0 43 -2.5t49.5 -9.5t50 -19.5t44 -33.5t32.5 -50.5
t15 -70.5h-63z" />
    <glyph glyph-name="T" unicode="T" horiz-adv-x="552" 
d="M244 0v610h-226v54h516v-54h-226v-610h-64z" />
    <glyph glyph-name="U" unicode="U" horiz-adv-x="666" 
d="M522 664h62v-432q0 -60 -18.5 -106t-51.5 -76.5t-79.5 -46t-101.5 -15.5q-57 0 -103 15.5t-79 46t-51 76.5t-18 106v432h64v-431q0 -47 13.5 -82.5t38.5 -58.5t59 -34.5t76 -11.5q88 0 138.5 46t50.5 141v431z" />
    <glyph glyph-name="V" unicode="V" horiz-adv-x="645" 
d="M291 0l-262 664h71l226 -591l222 591h68l-260 -664h-65z" />
    <glyph glyph-name="W" unicode="W" horiz-adv-x="952" 
d="M637 0l-161 574l-163 -574h-69l-221 664h70l188 -580l161 579h72l160 -578l189 579h66l-222 -664h-70z" />
    <glyph glyph-name="X" unicode="X" horiz-adv-x="598" 
d="M505 0l-210 302l-201 -302h-78l235 338l-219 326h76l195 -294l191 294h73l-220 -326l235 -338h-77z" />
    <glyph glyph-name="Y" unicode="Y" horiz-adv-x="568" 
d="M251 0v275l-247 389h71l210 -340l210 340h68l-248 -389v-275h-64z" />
    <glyph glyph-name="Z" unicode="Z" horiz-adv-x="584" 
d="M55 0v59l389 551h-374v54h444v-58l-389 -550h405v-56h-475z" />
    <glyph glyph-name="bracketleft" unicode="[" horiz-adv-x="262" 
d="M45 -209v944h206v-50h-144v-841h145v-53h-207z" />
    <glyph glyph-name="backslash" unicode="\" horiz-adv-x="334" 
d="M263 -207l-253 942h61l253 -942h-61z" />
    <glyph glyph-name="bracketright" unicode="]" horiz-adv-x="262" 
d="M10 -209v53h145v841h-144v50h206v-944h-207z" />
    <glyph glyph-name="asciicircum" unicode="^" horiz-adv-x="664" 
d="M530 229l-198 358l-198 -357h-57l228 416h54l228 -417h-57z" />
    <glyph glyph-name="underscore" unicode="_" horiz-adv-x="608" 
d="M0 -98v51h608v-51h-608z" />
    <glyph glyph-name="grave" unicode="`" horiz-adv-x="313" 
d="M195 564l-127 161h80l98 -161h-51z" />
    <glyph glyph-name="a" unicode="a" horiz-adv-x="548" 
d="M528 -2q-17 -5 -32.5 -7.5t-26.5 -2.5q-43 0 -61 22.5t-18 81.5q-17 -30 -37.5 -50t-44 -32t-47.5 -17t-47 -5q-26 0 -54.5 6.5t-52.5 22.5t-40 43t-16 69q0 47 17.5 76.5t46.5 47t67.5 24.5t80.5 9l124 5v64q0 25 -5.5 45.5t-19.5 35.5t-39 23.5t-65 8.5q-21 0 -43.5 -4
t-41 -14.5t-31.5 -29t-16 -47.5l-58 6q3 40 23 66.5t47.5 42.5t59.5 23t60 7q100 0 145.5 -42t45.5 -108v-258q0 -40 6.5 -55t33.5 -15h39v-42zM387 248l-126 -5q-31 -1 -58 -7t-47 -18.5t-31.5 -34t-11.5 -52.5t13 -49.5t31.5 -28t39 -12t36.5 -2.5q29 0 56.5 11t49.5 32.5
t35 54t13 75.5v36z" />
    <glyph glyph-name="b" unicode="b" horiz-adv-x="590" 
d="M96 0v721h62v-235l-6 -80q32 60 76.5 86t101.5 26q42 0 80 -15.5t66 -47.5t44.5 -82t16.5 -120q0 -71 -16.5 -121t-45 -82t-66 -47t-79.5 -15q-57 0 -102 26t-76 88v-102h-56zM321 39q32 0 60 12.5t48.5 38.5t32 66.5t11.5 96.5t-11.5 96.5t-32 66.5t-48.5 38.5t-60 12.5
q-76 0 -120 -49t-44 -165q0 -58 11.5 -98.5t33 -66t51.5 -37.5t68 -12z" />
    <glyph glyph-name="c" unicode="c" horiz-adv-x="537" 
d="M488 138q-18 -72 -68.5 -111t-131.5 -39q-112 0 -173 69.5t-61 194.5q0 62 16.5 111.5t47 84t73.5 52.5t97 18q81 0 131.5 -37.5t67.5 -108.5l-59 -6q-13 49 -47 75t-93 26q-85 0 -128 -56t-43 -159q0 -101 43 -156.5t128 -55.5q60 0 94 25t47 73h59z" />
    <glyph glyph-name="d" unicode="d" horiz-adv-x="590" 
d="M438 0v103q-32 -63 -77 -89t-101 -26q-42 0 -79 15t-65.5 47t-45 82t-16.5 121q0 70 16.5 120t44.5 82t65.5 47.5t79.5 15.5q56 0 101 -25t75 -85l-4 78v235h62v-721h-56zM269 39q37 0 67.5 12t52 37.5t33 66t11.5 98.5q0 115 -44 164.5t-120 49.5q-32 0 -60 -12.5
t-48.5 -38.5t-32 -66.5t-11.5 -96.5t11.5 -96.5t32 -66.5t48.5 -38.5t60 -12.5z" />
    <glyph glyph-name="e" unicode="e" 
d="M500 133q-19 -69 -69 -107t-134 -38q-113 0 -173 69.5t-60 194.5q0 62 16.5 111.5t47 84t73.5 52.5t96 18t92.5 -17t65.5 -49t38.5 -77.5t12.5 -101.5l-2 -32h-376q2 -96 44.5 -148.5t123.5 -52.5q63 0 97.5 24t47.5 69h59zM442 289q-2 83 -34.5 130.5t-111.5 47.5
q-77 0 -118.5 -46.5t-48.5 -131.5h313z" />
    <glyph glyph-name="f" unicode="f" horiz-adv-x="298" 
d="M105 0v458h-81v49h81v61q0 34 3.5 64t18 52.5t42.5 35t77 12.5q11 0 25.5 -1t27.5 -3v-45h-48q-27 0 -43.5 -7t-25.5 -20.5t-12 -34t-3 -48.5v-66h130v-49h-130v-458h-62z" />
    <glyph glyph-name="g" unicode="g" horiz-adv-x="589" 
d="M434 24l5 97q-32 -63 -77 -89t-102 -26q-42 0 -79.5 15t-65.5 45.5t-44.5 76.5t-16.5 109q0 70 16.5 120.5t44.5 83t65.5 47.5t79.5 15q57 0 102 -26t76 -87v102h56v-511q0 -32 -8 -69t-31 -68.5t-65 -52t-111 -20.5q-26 0 -60 7t-65 25.5t-53.5 50.5t-25.5 81l58 6
q2 -31 14.5 -53.5t32.5 -37.5t46 -22t55 -7q49 0 79 13.5t46.5 36t22 51t5.5 58.5v29zM269 58q76 0 120 46.5t44 148.5q0 116 -44 165t-120 49q-32 0 -60 -12t-48.5 -38t-32 -66.5t-11.5 -97.5q0 -49 11.5 -85.5t32 -61t48.5 -36.5t60 -12z" />
    <glyph glyph-name="h" unicode="h" horiz-adv-x="600" 
d="M446 0v346q0 53 -33 86t-96 33q-36 0 -65 -12t-50 -33.5t-32.5 -52.5t-11.5 -68v-299h-62v721h62v-235l-6 -84q28 60 74 88t105 28q34 0 66 -9.5t56.5 -29t39.5 -50.5t15 -73v-356h-62z" />
    <glyph glyph-name="i" unicode="i" horiz-adv-x="254" 
d="M96 0v507h62v-507h-62zM93 618v79h68v-79h-68z" />
    <glyph glyph-name="j" unicode="j" horiz-adv-x="254" 
d="M-22 -160h51q42 0 54.5 29t12.5 92v546h62v-547q0 -39 -3.5 -71t-16.5 -55t-37.5 -35.5t-67.5 -12.5q-10 0 -25 1t-30 3v50zM93 618v79h68v-79h-68z" />
    <glyph glyph-name="k" unicode="k" horiz-adv-x="518" 
d="M427 0l-196 283l-73 -63v-220h-62v721h62v-430l251 216h79l-210 -182l218 -325h-69z" />
    <glyph glyph-name="l" unicode="l" horiz-adv-x="254" 
d="M96 0v721h62v-721h-62z" />
    <glyph glyph-name="m" unicode="m" horiz-adv-x="895" 
d="M741 0v346q0 53 -30.5 86t-88.5 33q-32 0 -57.5 -12t-44.5 -34t-29 -52.5t-10 -67.5v-299h-62v346q0 53 -30.5 86t-89.5 33q-31 0 -57 -12t-44.5 -34t-29 -52.5t-10.5 -67.5v-299h-62v507h56v-104q26 63 68.5 89t93.5 26q27 0 52.5 -6.5t47.5 -20.5t37.5 -35.5
t23.5 -50.5q25 59 66.5 86t95.5 27q32 0 62 -9.5t53 -29t37 -50.5t14 -73v-356h-62z" />
    <glyph glyph-name="n" unicode="n" horiz-adv-x="600" 
d="M446 0v346q0 53 -33 86t-96 33q-36 0 -65 -12t-50 -34t-32.5 -52.5t-11.5 -67.5v-299h-62v507h56v-103q29 63 75.5 88.5t103.5 25.5q34 0 66 -9.5t56.5 -29t39.5 -50.5t15 -73v-356h-62z" />
    <glyph glyph-name="o" unicode="o" 
d="M285 -12q-54 0 -96.5 18t-72.5 52.5t-46 83t-16 110.5q0 126 61.5 196t169.5 70t169.5 -70t61.5 -196q0 -62 -16 -110.5t-46 -83t-72.5 -52.5t-96.5 -18zM285 40q84 0 126 55.5t42 156.5q0 103 -42 159t-126 56t-126 -56t-42 -159q0 -101 42 -156.5t126 -55.5z" />
    <glyph glyph-name="p" unicode="p" horiz-adv-x="590" 
d="M96 -212v719h56v-103q31 61 76 87.5t102 26.5q42 0 79.5 -15t66 -47t45 -82.5t16.5 -121.5q0 -69 -16.5 -119t-44.5 -82t-66 -47.5t-80 -15.5q-56 0 -100.5 25t-76.5 85l5 -76v-234h-62zM321 40q32 0 60 12t48.5 38t32 66t11.5 96q0 57 -11.5 97.5t-32 66.5t-48.5 38.5
t-60 12.5q-38 0 -68 -11.5t-51.5 -37t-33 -66.5t-11.5 -100q0 -114 44 -163t120 -49z" />
    <glyph glyph-name="q" unicode="q" horiz-adv-x="590" 
d="M432 -212v234l5 80q-30 -60 -75.5 -87t-101.5 -27q-42 0 -79 15t-65.5 47.5t-45 82.5t-16.5 120t16.5 120t44.5 82.5t65.5 47.5t79.5 15q57 0 102 -26t76 -87v102h56v-719h-62zM269 40q37 0 67.5 12t52 37.5t33 66t11.5 97.5q0 115 -44 164.5t-120 49.5q-32 0 -60 -12.5
t-48.5 -38.5t-32 -66.5t-11.5 -96.5t11.5 -96.5t32 -66.5t48.5 -38t60 -12z" />
    <glyph glyph-name="r" unicode="r" horiz-adv-x="345" 
d="M96 0v507h56v-112q11 34 26.5 57.5t33 38t36.5 21t37 6.5q8 0 20.5 -1t26.5 -6v-53h-48q-27 0 -50 -11.5t-40 -33.5t-26.5 -54t-9.5 -73v-286h-62z" />
    <glyph glyph-name="s" unicode="s" horiz-adv-x="484" 
d="M371 373q-3 32 -15.5 51.5t-30 30t-39 14t-42.5 3.5q-23 0 -44.5 -4t-38 -13.5t-26.5 -25t-10 -39.5q0 -38 23 -57.5t57 -31.5t74.5 -21t74.5 -25.5t57 -45t23 -78.5q0 -65 -51 -104t-143 -39q-21 0 -52.5 4.5t-61 19.5t-52.5 44t-27 77h59q3 -27 15.5 -45.5t31 -29.5
t41.5 -15.5t47 -4.5q57 0 95 20t38 70q0 38 -23 58.5t-57 33t-74.5 21.5t-74.5 25t-57 43t-23 76q0 35 15.5 60t41 41.5t57.5 24t64 7.5q24 0 54.5 -4.5t58 -19.5t48 -42.5t24.5 -73.5z" />
    <glyph glyph-name="t" unicode="t" horiz-adv-x="322" 
d="M296 -2q-13 -5 -30.5 -7.5t-22.5 -2.5q-48 0 -76 12.5t-42 35.5t-18 55t-4 70v293h-81v48h81v139h62v-139h131v-48h-131v-291q0 -32 3 -55t12 -37.5t25 -21.5t43 -7h48v-44z" />
    <glyph glyph-name="u" unicode="u" horiz-adv-x="602" 
d="M450 0v103q-29 -60 -74.5 -87.5t-104.5 -27.5q-36 0 -67.5 9.5t-55.5 29.5t-38 51.5t-14 75.5v353h62v-343q0 -57 31 -89.5t97 -32.5q35 0 64 12t50 34t32.5 52.5t11.5 67.5v299h62v-507h-56z" />
    <glyph glyph-name="v" unicode="v" horiz-adv-x="509" 
d="M225 0l-202 507h66l167 -438l167 438h63l-203 -507h-58z" />
    <glyph glyph-name="w" unicode="w" horiz-adv-x="777" 
d="M520 0l-130 427l-131 -427h-64l-172 507h67l139 -432l131 432h65l128 -432l138 432h63l-170 -507h-64z" />
    <glyph glyph-name="x" unicode="x" horiz-adv-x="474" 
d="M384 0l-149 224l-148 -224h-64l174 260l-163 247h66l140 -212l138 212h63l-165 -247l176 -260h-68z" />
    <glyph glyph-name="y" unicode="y" horiz-adv-x="499" 
d="M129 -212l88 223l-194 496h65l159 -426l165 426h63l-287 -719h-59z" />
    <glyph glyph-name="z" unicode="z" horiz-adv-x="497" 
d="M60 0v48l299 410h-291v49h364v-47l-299 -410h305v-50h-378z" />
    <glyph glyph-name="braceleft" unicode="{" horiz-adv-x="369" 
d="M358 -209q-61 0 -106 8t-74.5 29.5t-44 59.5t-14.5 97v160q0 96 -79 96v44q79 0 79 95v160q0 59 14.5 97t44.5 59.5t75 30t106 8.5v-50q-48 0 -81.5 -7.5t-54.5 -25t-30 -45.5t-9 -69v-146q0 -49 -12 -83.5t-52 -42.5v-6q40 -8 52 -43t12 -85v-144q0 -41 9 -69t29.5 -45
t54 -24.5t81.5 -7.5v-51z" />
    <glyph glyph-name="bar" unicode="|" horiz-adv-x="248" 
d="M95 -247v1014h59v-1014h-59z" />
    <glyph glyph-name="braceright" unicode="}" horiz-adv-x="369" 
d="M11 -158q48 0 81.5 7.5t53.5 24.5t29 45t9 69v144q0 50 12.5 85t52.5 43v6q-40 8 -52.5 42.5t-12.5 83.5v146q0 41 -9 69t-29.5 45.5t-54 25t-81.5 7.5v50q61 0 106 -8.5t75 -30t44.5 -59.5t14.5 -97v-160q0 -95 79 -95v-44q-79 0 -79 -96v-160q0 -59 -14.5 -97
t-44 -59.5t-74.5 -29.5t-106 -8v51z" />
    <glyph glyph-name="asciitilde" unicode="~" horiz-adv-x="605" 
d="M525 250q-26 -26 -54.5 -34t-61.5 -8q-27 0 -56.5 8.5t-58 18.5t-54 18.5t-45.5 8.5q-29 0 -59.5 -9t-55.5 -39v61q25 26 54.5 34t61.5 8q28 0 57 -8.5t56.5 -19t53 -19t46.5 -8.5q31 0 61 9.5t55 39.5v-61z" />
    <glyph glyph-name="exclamdown" unicode="&#xa1;" horiz-adv-x="245" 
d="M91 -181v303l11 187h41l11 -187v-303h-63zM89 380v124h66v-124h-66z" />
    <glyph glyph-name="cent" unicode="&#xa2;" horiz-adv-x="537" 
d="M262 0v131q-100 8 -154 76.5t-54 186.5t55.5 187t152.5 77v129h49v-129q144 -11 176 -144l-59 -5q-13 49 -47 74.5t-93 25.5q-85 0 -128 -55.5t-43 -158.5q0 -102 43 -157.5t128 -55.5q60 0 94 25t47 74h59q-17 -68 -61 -106t-116 -44v-131h-49z" />
    <glyph glyph-name="sterling" unicode="&#xa3;" horiz-adv-x="557" 
d="M72 0v59q59 51 80 95t21 86q0 15 -2.5 30t-6.5 30h-92v49h77q-11 32 -19.5 65.5t-8.5 71.5q0 39 11.5 74.5t35.5 61.5t62 41.5t92 15.5q22 0 52.5 -5t58.5 -20.5t47.5 -45.5t19.5 -79h-58q0 28 -10.5 46.5t-27.5 29t-38.5 15t-44.5 4.5q-37 0 -63 -10t-42 -27.5t-23 -42
t-7 -53.5q0 -42 8 -76.5t19 -65.5h247v-49h-232q5 -16 7.5 -31t2.5 -30q0 -36 -20 -81.5t-78 -102.5h363v-55h-431z" />
    <glyph glyph-name="currency" unicode="&#xa4;" horiz-adv-x="583" 
d="M457 56l-70 69q-20 -14 -44.5 -22t-50.5 -8q-27 0 -51.5 7.5t-44.5 21.5l-69 -69l-41 42l68 69q-14 20 -22 44.5t-8 51.5q0 26 8 51t22 45l-70 71l41 41l71 -71q20 14 44 22.5t51 8.5q26 0 51 -8.5t45 -23.5l70 71l42 -41l-71 -72q14 -20 22.5 -44t8.5 -50
q0 -27 -8.5 -51.5t-22.5 -44.5l71 -69zM404 261q0 23 -9 43.5t-24 35.5t-35.5 24t-43.5 9q-24 0 -44.5 -9t-36 -24t-24.5 -35.5t-9 -43.5t9 -43.5t24.5 -35.5t36 -24t43.5 -9q24 0 44.5 9t36 24t24 35.5t8.5 43.5z" />
    <glyph glyph-name="yen" unicode="&#xa5;" horiz-adv-x="568" 
d="M315 119v-119h-64v119h-199v46h199v108h-199v47h170l-218 344h71l210 -340l210 340h68l-220 -344h173v-47h-201v-108h201v-46h-201z" />
    <glyph glyph-name="brokenbar" unicode="&#xa6;" horiz-adv-x="249" 
d="M95 345v422h59v-422h-59zM95 -247v423h59v-423h-59z" />
    <glyph glyph-name="section" unicode="&#xa7;" horiz-adv-x="606" 
d="M110 4q1 -42 17 -70t41.5 -45t57.5 -24t66 -7q37 0 69.5 6.5t56.5 21.5t37.5 39t13.5 59q0 50 -29.5 77t-74.5 42.5t-96.5 26.5t-96.5 31.5t-74.5 55.5t-29.5 99q0 50 23.5 83.5t59.5 53.5q-26 21 -41.5 51t-15.5 76q0 45 20 77.5t52 53.5t72.5 31t82.5 10q19 0 43 -2.5
t49.5 -9t50 -19.5t44 -33.5t32 -50.5t14.5 -71h-62q-3 43 -20.5 69.5t-42.5 40.5t-54.5 19t-56.5 5q-30 0 -59 -6.5t-51 -20.5t-35.5 -36.5t-13.5 -53.5q0 -38 17 -61.5t45.5 -39t64 -25.5t73 -19.5t73.5 -22t64.5 -33t45.5 -51.5t17 -79q0 -45 -19.5 -82t-57.5 -61
q23 -20 37.5 -49.5t14.5 -71.5q0 -41 -16 -75t-47 -58.5t-76.5 -38t-104.5 -13.5q-17 0 -40.5 2.5t-50 9.5t-53 20.5t-48.5 36t-36.5 55t-16.5 77.5h65zM428 142q31 14 49 39.5t18 66.5q0 33 -13 55.5t-35.5 37.5t-51.5 24.5t-61 18t-64.5 16.5t-61.5 21
q-32 -12 -53.5 -36.5t-21.5 -65.5q0 -34 14 -56.5t37 -37.5t53 -24.5t63 -18t66 -17.5t62 -23z" />
    <glyph glyph-name="dieresis" unicode="&#xa8;" horiz-adv-x="392" 
d="M252 598v93h73v-93h-73zM68 598v93h72v-93h-72z" />
    <glyph glyph-name="copyright" unicode="&#xa9;" horiz-adv-x="776" 
d="M388 17q-68 0 -128 26.5t-105 71.5t-71 105t-26 128t26 128t71 105t105 71t128 26q67 0 127 -26.5t105 -71.5t71.5 -105t26.5 -127t-26.5 -127t-71.5 -105.5t-105 -72t-127 -26.5zM388 48q61 0 115.5 24t95 65t64.5 95.5t24 115.5q0 59 -24.5 113t-65.5 95.5t-95 66
t-114 24.5q-61 0 -115.5 -24t-95.5 -64.5t-65 -95.5t-24 -116t24.5 -115t65.5 -95t95.5 -65t114.5 -24zM554 284q-10 -70 -53 -108.5t-115 -38.5q-86 0 -134.5 55.5t-48.5 155.5q0 99 50.5 154.5t133.5 55.5q73 0 115.5 -38t50.5 -104h-43q-5 48 -36.5 75.5t-86.5 27.5
q-69 0 -105 -45.5t-36 -125.5q0 -79 36 -125t104 -46q57 0 88.5 27.5t35.5 79.5h44z" />
    <glyph glyph-name="ordfeminine" unicode="&#xaa;" horiz-adv-x="366" 
d="M346 393q-23 -6 -38 -6q-26 0 -38.5 13t-13.5 46q-20 -35 -48 -47t-56 -12q-16 0 -34 3.5t-33 13t-24.5 25.5t-9.5 41q0 28 10.5 46.5t28.5 29.5t41.5 15.5t49.5 5.5l70 3v37q0 26 -14 42.5t-58 16.5q-25 0 -48 -11t-26 -44l-44 3q2 25 14.5 41.5t29.5 27t36.5 15
t36.5 4.5q63 0 91.5 -24.5t28.5 -64.5v-147q0 -23 4 -32t20 -9h24v-32zM251 539l-71 -3q-18 -1 -33 -4t-26 -10.5t-17 -19.5t-6 -30q0 -17 7 -27t17.5 -15t22.5 -6t21 -1q16 0 31.5 6t27.5 18t19 29.5t7 40.5v22z" />
    <glyph glyph-name="guillemotleft" unicode="&#xab;" horiz-adv-x="582" 
d="M210 77l-161 184l162 188h66l-159 -188l158 -184h-66zM457 77l-161 184l162 188h66l-159 -188l158 -184h-66z" />
    <glyph glyph-name="logicalnot" unicode="&#xac;" horiz-adv-x="605" 
d="M469 147v175h-389v56h445v-231h-56z" />
    <glyph glyph-name="registered" unicode="&#xae;" horiz-adv-x="625" 
d="M567 451q0 -53 -20 -99t-54.5 -80.5t-81 -54.5t-99.5 -20t-99 20t-80.5 54.5t-54.5 80.5t-20 99t20 99.5t54.5 81t80.5 54.5t99 20t99.5 -20t81 -54.5t54.5 -81t20 -99.5zM538 451q0 47 -17.5 88t-48.5 72t-72 48.5t-88 17.5t-88 -17.5t-71.5 -48.5t-48 -72t-17.5 -88
t17.5 -88t48 -71.5t71.5 -48t88 -17.5t88 17.5t72 48t48.5 71.5t17.5 88zM405 298l-83 130h-88v-130h-35v307h108q50 0 80.5 -21.5t30.5 -67.5q0 -30 -17 -51.5t-46 -29.5l85 -137h-35zM308 455q31 0 52.5 15t21.5 45q0 32 -21 47t-53 15h-74v-122h74z" />
    <glyph glyph-name="macron" unicode="&#xaf;" horiz-adv-x="457" 
d="M68 620v49h321v-49h-321z" />
    <glyph glyph-name="degree" unicode="&#xb0;" horiz-adv-x="339" 
d="M282 517q0 -24 -9 -44.5t-24.5 -35.5t-36 -23.5t-43.5 -8.5q-48 0 -79.5 32t-31.5 80q0 23 8.5 43.5t23.5 36t35 24.5t44 9q23 0 43.5 -9t36 -24.5t24.5 -36t9 -43.5zM240 517q0 29 -21 50t-50 21t-49.5 -21t-20.5 -50t20.5 -49.5t49.5 -20.5t50 20.5t21 49.5z" />
    <glyph glyph-name="plusminus" unicode="&#xb1;" horiz-adv-x="605" 
d="M274 111v198h-194v54h194v198h56v-198h195v-54h-195v-198h-56zM80 0v54h445v-54h-445z" />
    <glyph glyph-name="acute" unicode="&#xb4;" horiz-adv-x="313" 
d="M68 564l96 161h82l-128 -161h-50z" />
    <glyph glyph-name="mu" unicode="&#xb5;" horiz-adv-x="602" 
d="M450 0v103q-28 -59 -73 -86t-102 -27q-35 0 -65 9t-52 30v-251h-62v729h62v-348q0 -55 31.5 -86t96.5 -31q35 0 64 12t50 34t32.5 52.5t11.5 67.5v299h62v-507h-56z" />
    <glyph glyph-name="paragraph" unicode="&#xb6;" horiz-adv-x="564" 
d="M264 -172v449q-44 0 -81.5 15t-64.5 42.5t-42.5 66.5t-15.5 87q0 49 15.5 88.5t42.5 67.5t64.5 43t81.5 15h60v-819h91v819h59v-874h-210z" />
    <glyph glyph-name="periodcentered" unicode="&#xb7;" horiz-adv-x="269" 
d="M62 189v147h145v-147h-145z" />
    <glyph glyph-name="cedilla" unicode="&#xb8;" horiz-adv-x="329" 
d="M68 -161q22 -11 43.5 -15.5t38.5 -4.5q23 0 42 11t19 39q0 25 -22.5 41.5t-69.5 16.5v34l38 63h48l-43 -64q47 -4 73 -29.5t26 -63.5q0 -12 -4.5 -27.5t-16.5 -29t-32.5 -22.5t-52.5 -9q-11 0 -36.5 3.5t-50.5 14.5v42z" />
    <glyph glyph-name="ordmasculine" unicode="&#xba;" horiz-adv-x="399" 
d="M199 386q-68 0 -106.5 41t-38.5 116q0 77 38.5 118t106.5 41t107 -41t39 -118q0 -75 -39 -116t-107 -41zM199 423q49 0 73.5 31t24.5 89q0 60 -24.5 91t-73.5 31q-48 0 -72.5 -31t-24.5 -91q0 -58 24.5 -89t72.5 -31z" />
    <glyph glyph-name="guillemotright" unicode="&#xbb;" horiz-adv-x="553" 
d="M277 77l159 184l-160 188h66l162 -188l-161 -184h-66zM59 77l158 184l-159 188h67l162 -188l-161 -184h-67z" />
    <glyph glyph-name="onequarter" unicode="&#xbc;" horiz-adv-x="772" 
d="M191 0l381 664h47l-382 -664h-46zM193 282v334l-111 -52v47l111 53h51v-382h-51zM638 0v84h-199v40l184 258h66v-258h62v-40h-62v-84h-51zM638 337l-151 -213h151v213z" />
    <glyph glyph-name="onehalf" unicode="&#xbd;" horiz-adv-x="854" 
d="M191 0l382 664h47l-382 -664h-47zM533 0v31q36 31 74 59t69.5 56t52 58t20.5 66q0 34 -17.5 55t-59.5 21q-15 0 -30.5 -3t-28 -11.5t-20.5 -23.5t-8 -40h-51q0 36 14 59t35 36.5t45 18.5t44 5q66 0 97.5 -33.5t31.5 -83.5q0 -36 -19 -68t-47 -60.5t-60 -53t-57 -45.5h187
v-43h-272zM193 282v334l-111 -52v47l111 53h51v-382h-51z" />
    <glyph glyph-name="threequarters" unicode="&#xbe;" horiz-adv-x="818" 
d="M233 0l382 664h46l-381 -664h-47zM143 464v37h42q45 0 71.5 17t26.5 55q0 27 -21 42t-59 15q-15 0 -30 -3t-27 -11.5t-19.5 -24t-7.5 -40.5h-50q0 36 13.5 59t34 36.5t43.5 18.5t43 5q57 0 92.5 -25t35.5 -70q0 -75 -73 -90q34 -3 59.5 -27t25.5 -71q0 -48 -38 -79
t-101 -31q-24 0 -48.5 5.5t-44.5 19t-33 36.5t-13 58h50q0 -23 7 -38t19 -24t28.5 -12.5t34.5 -3.5q42 0 65.5 18t23.5 53q0 42 -30 58.5t-78 16.5h-42zM684 0v84h-199v40l183 258h67v-258h62v-40h-62v-84h-51zM684 337l-152 -213h152v213z" />
    <glyph glyph-name="questiondown" unicode="&#xbf;" horiz-adv-x="460" 
d="M443 -22q-3 -53 -26 -84.5t-54 -48.5t-64 -22.5t-56 -5.5q-39 0 -74 8.5t-62 28t-43 50.5t-16 76q0 42 15 71t37 51.5t48.5 42t48.5 42.5t37 53t15 73h57q0 -46 -14.5 -80t-36.5 -60t-48 -47.5t-48 -42.5t-36.5 -45t-14.5 -55q0 -32 11.5 -53.5t30 -34t43 -18t50.5 -5.5
q19 0 42.5 2.5t44.5 13t37 32t19 58.5h57zM244 380v124h66v-124h-66z" />
    <glyph glyph-name="Agrave" unicode="&#xc0;" horiz-adv-x="665" 
d="M318 704l-113 138h80l84 -138h-51zM564 0l-79 199h-309l-77 -199h-69l266 664h73l266 -664h-71zM331 596l-134 -342h267z" />
    <glyph glyph-name="Aacute" unicode="&#xc1;" horiz-adv-x="665" 
d="M297 704l83 138h81l-114 -138h-50zM564 0l-79 199h-309l-77 -199h-69l266 664h73l266 -664h-71zM331 596l-134 -342h267z" />
    <glyph glyph-name="Acircumflex" unicode="&#xc2;" horiz-adv-x="665" 
d="M419 704l-88 88l-85 -88h-51l108 138h58l109 -138h-51zM564 0l-79 199h-309l-77 -199h-69l266 664h73l266 -664h-71zM331 596l-134 -342h267z" />
    <glyph glyph-name="Atilde" unicode="&#xc3;" horiz-adv-x="665" 
d="M496 821q0 -16 -4 -32.5t-14 -30t-26 -22.5t-41 -9q-21 0 -41.5 7t-40.5 15.5t-38.5 15.5t-34.5 7q-20 0 -31.5 -8.5t-11.5 -36.5h-44q0 15 4 32t13.5 30.5t26 22.5t41.5 9q21 0 41.5 -7t40.5 -15.5t38.5 -15.5t34.5 -7q20 0 31 8.5t11 36.5h45zM564 0l-79 199h-309
l-77 -199h-69l266 664h73l266 -664h-71zM331 596l-134 -342h267z" />
    <glyph glyph-name="Adieresis" unicode="&#xc4;" horiz-adv-x="665" 
d="M389 727v93h72v-93h-72zM204 727v93h72v-93h-72zM564 0l-79 199h-309l-77 -199h-69l266 664h73l266 -664h-71zM331 596l-134 -342h267z" />
    <glyph glyph-name="Aring" unicode="&#xc5;" horiz-adv-x="665" 
d="M564 0l-79 199h-309l-77 -199h-69l259 648q-26 11 -42 35.5t-16 55.5q0 22 8 40.5t22 32.5t32.5 22t39.5 8t39.5 -8t32 -22t21.5 -32.5t8 -40.5q0 -32 -16.5 -56t-42.5 -35l260 -648h-71zM331 596l-134 -342h267zM393 739q0 26 -17.5 44.5t-44.5 18.5q-25 0 -43 -18.5
t-18 -44.5t18 -43.5t43 -17.5q27 0 44.5 17.5t17.5 43.5z" />
    <glyph glyph-name="AE" unicode="&#xc6;" horiz-adv-x="916" 
d="M478 0v199h-268l-111 -199h-69l374 664h459v-55h-321v-242h303v-54h-303v-257h324v-56h-388zM478 609h-38l-200 -355h238v355z" />
    <glyph glyph-name="Ccedilla" unicode="&#xc7;" horiz-adv-x="674" 
d="M241 -160q23 -12 44 -16.5t38 -4.5q23 0 42.5 11.5t19.5 39.5q0 25 -22.5 41t-69.5 16v35l17 29q-59 7 -105.5 33.5t-78.5 70t-49 103t-17 133.5q0 80 21 143.5t60 108t94 68t122 23.5q104 0 169.5 -49.5t88.5 -139.5h-67q-17 64 -65.5 98.5t-125.5 34.5
q-113 0 -171.5 -75.5t-58.5 -211.5q0 -134 58.5 -210t170.5 -76q81 0 130.5 36t64.5 107h65q-23 -97 -89.5 -148.5t-172.5 -51.5l-18 -27q46 -5 72.5 -30t26.5 -63q0 -12 -4.5 -27.5t-16.5 -29t-33 -22.5t-53 -9q-11 0 -36.5 3.5t-50.5 14.5v42z" />
    <glyph glyph-name="Egrave" unicode="&#xc8;" horiz-adv-x="528" 
d="M288 704l-114 138h81l83 -138h-50zM90 0v664h385v-55h-321v-241h303v-54h-303v-258h323v-56h-387z" />
    <glyph glyph-name="Eacute" unicode="&#xc9;" horiz-adv-x="528" 
d="M227 704l83 138h81l-114 -138h-50zM90 0v664h385v-55h-321v-241h303v-54h-303v-258h323v-56h-387z" />
    <glyph glyph-name="Ecircumflex" unicode="&#xca;" horiz-adv-x="528" 
d="M369 704l-88 88l-85 -88h-51l108 138h58l109 -138h-51zM90 0v664h385v-55h-321v-241h303v-54h-303v-258h323v-56h-387z" />
    <glyph glyph-name="Edieresis" unicode="&#xcb;" horiz-adv-x="528" 
d="M339 727v93h73v-93h-73zM154 727v93h73v-93h-73zM90 0v664h385v-55h-321v-241h303v-54h-303v-258h323v-56h-387z" />
    <glyph glyph-name="Igrave" unicode="&#xcc;" horiz-adv-x="244" 
d="M90 0v664h64v-664h-64zM112 704l-113 138h81l83 -138h-51z" />
    <glyph glyph-name="Iacute" unicode="&#xcd;" horiz-adv-x="244" 
d="M90 0v664h64v-664h-64zM81 704l83 138h81l-114 -138h-50z" />
    <glyph glyph-name="Icircumflex" unicode="&#xce;" horiz-adv-x="244" 
d="M90 0v664h64v-664h-64zM208 704l-88 88l-85 -88h-51l108 138h58l109 -138h-51z" />
    <glyph glyph-name="Idieresis" unicode="&#xcf;" horiz-adv-x="244" 
d="M90 0v664h64v-664h-64zM178 727v93h72v-93h-72zM-7 727v93h72v-93h-72z" />
    <glyph glyph-name="Eth" unicode="&#xd0;" horiz-adv-x="700" 
d="M96 0v308h-120v51h120v305h225q76 0 136 -24.5t102 -68.5t64.5 -104t22.5 -131q0 -68 -22.5 -129t-64.5 -107t-102 -73t-136 -27h-225zM318 57q64 0 112.5 22t81.5 60.5t49.5 89t16.5 107.5q0 58 -17 108t-50 86.5t-81.5 57t-112.5 20.5h-157v-249h188v-51h-188v-251h158
z" />
    <glyph glyph-name="Ntilde" unicode="&#xd1;" horiz-adv-x="699" 
d="M513 821q0 -16 -4 -32.5t-14 -30t-26 -22.5t-41 -9q-21 0 -41.5 7t-40.5 15.5t-38.5 15.5t-34.5 7q-20 0 -31.5 -8.5t-11.5 -36.5h-44q0 15 4 32t13.5 30.5t26 22.5t41.5 9q21 0 41.5 -7t40.5 -15.5t38.5 -15.5t34.5 -7q20 0 31.5 8.5t11.5 36.5h44zM529 0l-375 569v-569
h-64v664h75l380 -581v581h64v-664h-80z" />
    <glyph glyph-name="Ograve" unicode="&#xd2;" horiz-adv-x="729" 
d="M368 704l-114 138h81l83 -138h-50zM364 -12q-70 0 -126.5 23.5t-96 68t-60.5 108t-21 143.5q0 79 21 143t60.5 108t96 68t126.5 24t126.5 -24t96.5 -68t61 -108t21 -143q0 -80 -21 -143.5t-61 -108t-96.5 -68t-126.5 -23.5zM364 45q118 0 178 75.5t60 210.5t-60 211
t-178 76q-117 0 -177 -76.5t-60 -210.5q0 -135 59.5 -210.5t177.5 -75.5z" />
    <glyph glyph-name="Oacute" unicode="&#xd3;" horiz-adv-x="729" 
d="M310 704l83 138h81l-113 -138h-51zM364 -12q-70 0 -126.5 23.5t-96 68t-60.5 108t-21 143.5q0 79 21 143t60.5 108t96 68t126.5 24t126.5 -24t96.5 -68t61 -108t21 -143q0 -80 -21 -143.5t-61 -108t-96.5 -68t-126.5 -23.5zM364 45q118 0 178 75.5t60 210.5t-60 211
t-178 76q-117 0 -177 -76.5t-60 -210.5q0 -135 59.5 -210.5t177.5 -75.5z" />
    <glyph glyph-name="Ocircumflex" unicode="&#xd4;" horiz-adv-x="729" 
d="M451 704l-88 88l-85 -88h-52l109 138h58l109 -138h-51zM364 -12q-70 0 -126.5 23.5t-96 68t-60.5 108t-21 143.5q0 79 21 143t60.5 108t96 68t126.5 24t126.5 -24t96.5 -68t61 -108t21 -143q0 -80 -21 -143.5t-61 -108t-96.5 -68t-126.5 -23.5zM364 45q118 0 178 75.5
t60 210.5t-60 211t-178 76q-117 0 -177 -76.5t-60 -210.5q0 -135 59.5 -210.5t177.5 -75.5z" />
    <glyph glyph-name="Otilde" unicode="&#xd5;" horiz-adv-x="729" 
d="M527 821q0 -16 -4 -32.5t-13.5 -30t-25.5 -22.5t-41 -9q-21 0 -42 7t-41 15.5t-38.5 15.5t-33.5 7q-20 0 -31.5 -8.5t-11.5 -36.5h-44q0 15 4 32t13.5 30.5t26 22.5t41.5 9q20 0 41 -7t41 -15.5t38.5 -15.5t34.5 -7q20 0 31.5 8.5t11.5 36.5h43zM364 -12
q-70 0 -126.5 23.5t-96 68t-60.5 108t-21 143.5q0 79 21 143t60.5 108t96 68t126.5 24t126.5 -24t96.5 -68t61 -108t21 -143q0 -80 -21 -143.5t-61 -108t-96.5 -68t-126.5 -23.5zM364 45q118 0 178 75.5t60 210.5t-60 211t-178 76q-117 0 -177 -76.5t-60 -210.5
q0 -135 59.5 -210.5t177.5 -75.5z" />
    <glyph glyph-name="Odieresis" unicode="&#xd6;" horiz-adv-x="729" 
d="M420 727v93h73v-93h-73zM235 727v93h73v-93h-73zM364 -12q-70 0 -126.5 23.5t-96 68t-60.5 108t-21 143.5q0 79 21 143t60.5 108t96 68t126.5 24t126.5 -24t96.5 -68t61 -108t21 -143q0 -80 -21 -143.5t-61 -108t-96.5 -68t-126.5 -23.5zM364 45q118 0 178 75.5t60 210.5
t-60 211t-178 76q-117 0 -177 -76.5t-60 -210.5q0 -135 59.5 -210.5t177.5 -75.5z" />
    <glyph glyph-name="multiply" unicode="&#xd7;" horiz-adv-x="616" 
d="M308 224l-189 -190l-39 39l190 189l-190 191l38 38l190 -191l190 190l38 -38l-190 -190l189 -188l-38 -39z" />
    <glyph glyph-name="Oslash" unicode="&#xd8;" horiz-adv-x="729" 
d="M90 -86l82 136q-54 44 -83 115t-29 166q0 79 21 143t60.5 108t96 68t126.5 24q93 0 160 -41l70 116h44l-83 -137q55 -45 84.5 -116t29.5 -165q0 -80 -21 -143.5t-61 -108t-96.5 -68t-126.5 -23.5q-93 0 -161 41l-69 -115h-44zM233 79q52 -34 131 -34q118 0 178 75.5
t60 210.5q0 77 -19.5 135t-58.5 95zM494 584q-54 34 -130 34q-117 0 -177 -76.5t-60 -210.5q0 -155 77 -229z" />
    <glyph glyph-name="Ugrave" unicode="&#xd9;" horiz-adv-x="666" 
d="M326 704l-114 138h81l83 -138h-50zM522 664h62v-432q0 -60 -18.5 -106t-51.5 -76.5t-79.5 -46t-101.5 -15.5q-57 0 -103 15.5t-79 46t-51 76.5t-18 106v432h64v-431q0 -47 13.5 -82.5t38.5 -58.5t59 -34.5t76 -11.5q88 0 138.5 46t50.5 141v431z" />
    <glyph glyph-name="Uacute" unicode="&#xda;" horiz-adv-x="666" 
d="M290 704l84 138h81l-114 -138h-51zM522 664h62v-432q0 -60 -18.5 -106t-51.5 -76.5t-79.5 -46t-101.5 -15.5q-57 0 -103 15.5t-79 46t-51 76.5t-18 106v432h64v-431q0 -47 13.5 -82.5t38.5 -58.5t59 -34.5t76 -11.5q88 0 138.5 46t50.5 141v431z" />
    <glyph glyph-name="Ucircumflex" unicode="&#xdb;" horiz-adv-x="666" 
d="M420 704l-88 88l-85 -88h-51l108 138h58l109 -138h-51zM522 664h62v-432q0 -60 -18.5 -106t-51.5 -76.5t-79.5 -46t-101.5 -15.5q-57 0 -103 15.5t-79 46t-51 76.5t-18 106v432h64v-431q0 -47 13.5 -82.5t38.5 -58.5t59 -34.5t76 -11.5q88 0 138.5 46t50.5 141v431z" />
    <glyph glyph-name="Udieresis" unicode="&#xdc;" horiz-adv-x="666" 
d="M389 727v93h73v-93h-73zM204 727v93h73v-93h-73zM522 664h62v-432q0 -60 -18.5 -106t-51.5 -76.5t-79.5 -46t-101.5 -15.5q-57 0 -103 15.5t-79 46t-51 76.5t-18 106v432h64v-431q0 -47 13.5 -82.5t38.5 -58.5t59 -34.5t76 -11.5q88 0 138.5 46t50.5 141v431z" />
    <glyph glyph-name="Yacute" unicode="&#xdd;" horiz-adv-x="568" 
d="M251 0v275l-247 389h71l210 -340l210 340h68l-248 -389v-275h-64zM241 704l83 138h81l-113 -138h-51z" />
    <glyph glyph-name="Thorn" unicode="&#xde;" horiz-adv-x="581" 
d="M154 129v-129h-64v664h64v-123h153q109 0 168.5 -51t59.5 -154q0 -102 -59 -154.5t-168 -52.5h-154zM302 183q166 0 166 153q0 150 -167 150h-147v-303h148z" />
    <glyph glyph-name="germandbls" unicode="&#xdf;" horiz-adv-x="610" 
d="M249 45q34 -6 62 -6q42 0 77 11t59.5 31.5t38.5 50t14 66.5q0 29 -10.5 58.5t-37 53.5t-72 39.5t-114.5 15.5v44q24 0 54 6t57 23.5t45.5 49t18.5 82.5q0 33 -12 58t-32.5 41.5t-47 25t-55.5 8.5q-38 0 -64 -11.5t-42 -32.5t-23 -50t-7 -64v-545h-62v545q0 93 50 149.5
t150 56.5q45 0 82 -12.5t64 -35t42 -54.5t15 -72q0 -39 -9.5 -68.5t-26 -52t-37.5 -37.5t-45 -25q93 -21 136 -74.5t43 -123.5q0 -44 -15.5 -82t-46.5 -66t-76 -44t-104 -16q-11 0 -29 1t-40 4v52z" />
    <glyph glyph-name="agrave" unicode="&#xe0;" horiz-adv-x="548" 
d="M274 564l-128 161h81l97 -161h-50zM528 -2q-17 -5 -32.5 -7.5t-26.5 -2.5q-43 0 -61 22.5t-18 81.5q-17 -30 -37.5 -50t-44 -32t-47.5 -17t-47 -5q-26 0 -54.5 6.5t-52.5 22.5t-40 43t-16 69q0 47 17.5 76.5t46.5 47t67.5 24.5t80.5 9l124 5v64q0 25 -5.5 45.5
t-19.5 35.5t-39 23.5t-65 8.5q-21 0 -43.5 -4t-41 -14.5t-31.5 -29t-16 -47.5l-58 6q3 40 23 66.5t47.5 42.5t59.5 23t60 7q100 0 145.5 -42t45.5 -108v-258q0 -40 6.5 -55t33.5 -15h39v-42zM387 248l-126 -5q-31 -1 -58 -7t-47 -18.5t-31.5 -34t-11.5 -52.5t13 -49.5
t31.5 -28t39 -12t36.5 -2.5q29 0 56.5 11t49.5 32.5t35 54t13 75.5v36z" />
    <glyph glyph-name="aacute" unicode="&#xe1;" horiz-adv-x="548" 
d="M195 564l97 161h81l-128 -161h-50zM528 -2q-17 -5 -32.5 -7.5t-26.5 -2.5q-43 0 -61 22.5t-18 81.5q-17 -30 -37.5 -50t-44 -32t-47.5 -17t-47 -5q-26 0 -54.5 6.5t-52.5 22.5t-40 43t-16 69q0 47 17.5 76.5t46.5 47t67.5 24.5t80.5 9l124 5v64q0 25 -5.5 45.5
t-19.5 35.5t-39 23.5t-65 8.5q-21 0 -43.5 -4t-41 -14.5t-31.5 -29t-16 -47.5l-58 6q3 40 23 66.5t47.5 42.5t59.5 23t60 7q100 0 145.5 -42t45.5 -108v-258q0 -40 6.5 -55t33.5 -15h39v-42zM387 248l-126 -5q-31 -1 -58 -7t-47 -18.5t-31.5 -34t-11.5 -52.5t13 -49.5
t31.5 -28t39 -12t36.5 -2.5q29 0 56.5 11t49.5 32.5t35 54t13 75.5v36z" />
    <glyph glyph-name="acircumflex" unicode="&#xe2;" horiz-adv-x="548" 
d="M350 564l-87 109l-86 -109h-51l109 161h57l110 -161h-52zM528 -2q-17 -5 -32.5 -7.5t-26.5 -2.5q-43 0 -61 22.5t-18 81.5q-17 -30 -37.5 -50t-44 -32t-47.5 -17t-47 -5q-26 0 -54.5 6.5t-52.5 22.5t-40 43t-16 69q0 47 17.5 76.5t46.5 47t67.5 24.5t80.5 9l124 5v64
q0 25 -5.5 45.5t-19.5 35.5t-39 23.5t-65 8.5q-21 0 -43.5 -4t-41 -14.5t-31.5 -29t-16 -47.5l-58 6q3 40 23 66.5t47.5 42.5t59.5 23t60 7q100 0 145.5 -42t45.5 -108v-258q0 -40 6.5 -55t33.5 -15h39v-42zM387 248l-126 -5q-31 -1 -58 -7t-47 -18.5t-31.5 -34t-11.5 -52.5
t13 -49.5t31.5 -28t39 -12t36.5 -2.5q29 0 56.5 11t49.5 32.5t35 54t13 75.5v36z" />
    <glyph glyph-name="atilde" unicode="&#xe3;" horiz-adv-x="548" 
d="M427 692q0 -16 -4 -32.5t-14 -30t-26 -22.5t-41 -9q-20 0 -41 7t-41 15.5t-38.5 15.5t-34.5 7q-20 0 -31 -8.5t-11 -36.5h-44q0 15 4 32t13.5 30.5t25.5 22.5t41 9q21 0 42 -7t41 -15.5t38.5 -15.5t33.5 -7q20 0 31.5 8.5t11.5 36.5h44zM528 -2q-17 -5 -32.5 -7.5
t-26.5 -2.5q-43 0 -61 22.5t-18 81.5q-17 -30 -37.5 -50t-44 -32t-47.5 -17t-47 -5q-26 0 -54.5 6.5t-52.5 22.5t-40 43t-16 69q0 47 17.5 76.5t46.5 47t67.5 24.5t80.5 9l124 5v64q0 25 -5.5 45.5t-19.5 35.5t-39 23.5t-65 8.5q-21 0 -43.5 -4t-41 -14.5t-31.5 -29
t-16 -47.5l-58 6q3 40 23 66.5t47.5 42.5t59.5 23t60 7q100 0 145.5 -42t45.5 -108v-258q0 -40 6.5 -55t33.5 -15h39v-42zM387 248l-126 -5q-31 -1 -58 -7t-47 -18.5t-31.5 -34t-11.5 -52.5t13 -49.5t31.5 -28t39 -12t36.5 -2.5q29 0 56.5 11t49.5 32.5t35 54t13 75.5v36z
" />
    <glyph glyph-name="adieresis" unicode="&#xe4;" horiz-adv-x="548" 
d="M321 598v93h72v-93h-72zM136 598v93h72v-93h-72zM528 -2q-17 -5 -32.5 -7.5t-26.5 -2.5q-43 0 -61 22.5t-18 81.5q-17 -30 -37.5 -50t-44 -32t-47.5 -17t-47 -5q-26 0 -54.5 6.5t-52.5 22.5t-40 43t-16 69q0 47 17.5 76.5t46.5 47t67.5 24.5t80.5 9l124 5v64
q0 25 -5.5 45.5t-19.5 35.5t-39 23.5t-65 8.5q-21 0 -43.5 -4t-41 -14.5t-31.5 -29t-16 -47.5l-58 6q3 40 23 66.5t47.5 42.5t59.5 23t60 7q100 0 145.5 -42t45.5 -108v-258q0 -40 6.5 -55t33.5 -15h39v-42zM387 248l-126 -5q-31 -1 -58 -7t-47 -18.5t-31.5 -34t-11.5 -52.5
t13 -49.5t31.5 -28t39 -12t36.5 -2.5q29 0 56.5 11t49.5 32.5t35 54t13 75.5v36z" />
    <glyph glyph-name="aring" unicode="&#xe5;" horiz-adv-x="548" 
d="M325 662q0 27 -18 45t-44 18t-44 -18.5t-18 -44.5t18 -43t44 -17t44 17t18 43zM265 562q-21 0 -40 7.5t-33 21t-22 32t-8 39.5q0 22 8 40.5t22 32.5t33 22t40 8t39 -8t31.5 -22t21.5 -32.5t8 -40.5q0 -21 -8 -39.5t-21.5 -32t-31.5 -21t-39 -7.5zM528 -2
q-17 -5 -32.5 -7.5t-26.5 -2.5q-43 0 -61 22.5t-18 81.5q-17 -30 -37.5 -50t-44 -32t-47.5 -17t-47 -5q-26 0 -54.5 6.5t-52.5 22.5t-40 43t-16 69q0 47 17.5 76.5t46.5 47t67.5 24.5t80.5 9l124 5v64q0 25 -5.5 45.5t-19.5 35.5t-39 23.5t-65 8.5q-21 0 -43.5 -4t-41 -14.5
t-31.5 -29t-16 -47.5l-58 6q3 40 23 66.5t47.5 42.5t59.5 23t60 7q100 0 145.5 -42t45.5 -108v-258q0 -40 6.5 -55t33.5 -15h39v-42zM387 248l-126 -5q-31 -1 -58 -7t-47 -18.5t-31.5 -34t-11.5 -52.5t13 -49.5t31.5 -28t39 -12t36.5 -2.5q29 0 56.5 11t49.5 32.5t35 54
t13 75.5v36z" />
    <glyph glyph-name="ae" unicode="&#xe6;" horiz-adv-x="895" 
d="M824 133q-18 -69 -68.5 -107t-133.5 -38q-79 0 -132.5 35.5t-79.5 102.5q-26 -71 -78 -104.5t-118 -33.5q-26 0 -54.5 6.5t-52.5 22.5t-40 43t-16 69q0 47 17.5 76.5t46.5 47t67.5 24.5t80.5 9l124 5v64q0 25 -5.5 45.5t-19.5 35.5t-39 23.5t-65 8.5q-21 0 -43.5 -4
t-41 -14.5t-31.5 -29t-16 -47.5l-58 6q3 40 23 66.5t47.5 42.5t59.5 23t60 7q78 0 120.5 -26.5t56.5 -70.5q30 47 77 72t110 25q53 0 92 -17t65 -49t39 -77.5t13 -101.5l-2 -32h-377q2 -96 45 -148.5t124 -52.5q63 0 97.5 24t47.5 69h58zM387 248l-126 -5q-31 -1 -58 -7
t-47 -18.5t-31.5 -34t-11.5 -52.5t13 -49.5t31.5 -28t39 -12t36.5 -2.5q29 0 56.5 11t49.5 32.5t35 54t13 75.5v36zM767 289q-2 42 -10 75t-25 56t-44.5 35t-66.5 12q-77 0 -119 -46.5t-49 -131.5h314z" />
    <glyph glyph-name="ccedilla" unicode="&#xe7;" horiz-adv-x="537" 
d="M176 -161q23 -11 44.5 -15.5t38.5 -4.5q23 0 42 11.5t19 38.5q0 26 -22.5 42t-69.5 16v35l18 29q-92 13 -142 80.5t-50 180.5q0 62 16.5 111.5t47 84t73.5 52.5t97 18q81 0 131.5 -37.5t67.5 -108.5l-59 -6q-13 49 -47 75t-93 26q-85 0 -128 -56t-43 -159
q0 -101 43 -156.5t128 -55.5q60 0 94 25t47 73h59q-18 -72 -68 -110.5t-131 -39.5l-18 -27q47 -5 73 -30.5t26 -63.5q0 -12 -4.5 -27.5t-16.5 -29t-32.5 -22.5t-52.5 -9q-12 0 -37 3.5t-51 15.5v41z" />
    <glyph glyph-name="egrave" unicode="&#xe8;" 
d="M303 564l-127 161h81l97 -161h-51zM500 133q-19 -69 -69 -107t-134 -38q-113 0 -173 69.5t-60 194.5q0 62 16.5 111.5t47 84t73.5 52.5t96 18t92.5 -17t65.5 -49t38.5 -77.5t12.5 -101.5l-2 -32h-376q2 -96 44.5 -148.5t123.5 -52.5q63 0 97.5 24t47.5 69h59zM442 289
q-2 83 -34.5 130.5t-111.5 47.5q-77 0 -118.5 -46.5t-48.5 -131.5h313z" />
    <glyph glyph-name="eacute" unicode="&#xe9;" 
d="M233 564l97 161h81l-128 -161h-50zM500 133q-19 -69 -69 -107t-134 -38q-113 0 -173 69.5t-60 194.5q0 62 16.5 111.5t47 84t73.5 52.5t96 18t92.5 -17t65.5 -49t38.5 -77.5t12.5 -101.5l-2 -32h-376q2 -96 44.5 -148.5t123.5 -52.5q63 0 97.5 24t47.5 69h59zM442 289
q-2 83 -34.5 130.5t-111.5 47.5q-77 0 -118.5 -46.5t-48.5 -131.5h313z" />
    <glyph glyph-name="ecircumflex" unicode="&#xea;" 
d="M379 564l-88 109l-85 -109h-51l108 161h58l109 -161h-51zM500 133q-19 -69 -69 -107t-134 -38q-113 0 -173 69.5t-60 194.5q0 62 16.5 111.5t47 84t73.5 52.5t96 18t92.5 -17t65.5 -49t38.5 -77.5t12.5 -101.5l-2 -32h-376q2 -96 44.5 -148.5t123.5 -52.5q63 0 97.5 24
t47.5 69h59zM442 289q-2 83 -34.5 130.5t-111.5 47.5q-77 0 -118.5 -46.5t-48.5 -131.5h313z" />
    <glyph glyph-name="edieresis" unicode="&#xeb;" 
d="M349 598v93h72v-93h-72zM164 598v93h72v-93h-72zM500 133q-19 -69 -69 -107t-134 -38q-113 0 -173 69.5t-60 194.5q0 62 16.5 111.5t47 84t73.5 52.5t96 18t92.5 -17t65.5 -49t38.5 -77.5t12.5 -101.5l-2 -32h-376q2 -96 44.5 -148.5t123.5 -52.5q63 0 97.5 24t47.5 69
h59zM442 289q-2 83 -34.5 130.5t-111.5 47.5q-77 0 -118.5 -46.5t-48.5 -131.5h313z" />
    <glyph glyph-name="igrave" unicode="&#xec;" horiz-adv-x="254" 
d="M117 564l-128 161h81l97 -161h-50zM96 0v507h62v-507h-62z" />
    <glyph glyph-name="iacute" unicode="&#xed;" horiz-adv-x="254" 
d="M87 564l97 161h81l-127 -161h-51zM96 0v507h62v-507h-62z" />
    <glyph glyph-name="icircumflex" unicode="&#xee;" horiz-adv-x="254" 
d="M96 0v507h62v-507h-62zM213 564l-87 109l-86 -109h-51l108 161h58l110 -161h-52z" />
    <glyph glyph-name="idieresis" unicode="&#xef;" horiz-adv-x="254" 
d="M184 598v93h72v-93h-72zM-2 598v93h73v-93h-73zM96 0v507h62v-507h-62z" />
    <glyph glyph-name="eth" unicode="&#xf0;" 
d="M330 659q86 -85 136 -193.5t50 -223.5q0 -119 -61.5 -186.5t-169.5 -67.5q-109 0 -170 67.5t-61 186.5q0 121 61.5 188.5t169.5 67.5q38 0 66.5 -10t52.5 -28q-21 46 -50 88t-64 78l-89 -75l-25 29l87 73q-41 38 -87 68.5t-95 53.5h87q73 -35 134 -90l77 66l25 -29z
M285 41q84 0 126 52.5t42 148.5q0 94 -40.5 149t-127.5 55q-84 0 -126 -53.5t-42 -150.5q0 -96 42 -148.5t126 -52.5z" />
    <glyph glyph-name="ntilde" unicode="&#xf1;" horiz-adv-x="600" 
d="M446 0v346q0 53 -33 86t-96 33q-36 0 -65 -12t-50 -34t-32.5 -52.5t-11.5 -67.5v-299h-62v507h56v-103q29 63 75.5 88.5t103.5 25.5q34 0 66 -9.5t56.5 -29t39.5 -50.5t15 -73v-356h-62zM465 692q0 -16 -4 -32.5t-13.5 -30t-26 -22.5t-41.5 -9q-20 0 -41 7t-41 15.5
t-38.5 15.5t-34.5 7q-19 0 -30.5 -8.5t-11.5 -36.5h-44q0 15 4 32t13.5 30.5t26 22.5t41.5 9q21 0 41.5 -7t40.5 -15.5t38.5 -15.5t34.5 -7q20 0 31 8.5t11 36.5h44z" />
    <glyph glyph-name="ograve" unicode="&#xf2;" 
d="M285 -12q-54 0 -96.5 18t-72.5 52.5t-46 83t-16 110.5q0 126 61.5 196t169.5 70t169.5 -70t61.5 -196q0 -62 -16 -110.5t-46 -83t-72.5 -52.5t-96.5 -18zM285 40q84 0 126 55.5t42 156.5q0 103 -42 159t-126 56t-126 -56t-42 -159q0 -101 42 -156.5t126 -55.5zM291 564
l-128 161h81l97 -161h-50z" />
    <glyph glyph-name="oacute" unicode="&#xf3;" 
d="M285 -12q-54 0 -96.5 18t-72.5 52.5t-46 83t-16 110.5q0 126 61.5 196t169.5 70t169.5 -70t61.5 -196q0 -62 -16 -110.5t-46 -83t-72.5 -52.5t-96.5 -18zM285 40q84 0 126 55.5t42 156.5q0 103 -42 159t-126 56t-126 -56t-42 -159q0 -101 42 -156.5t126 -55.5zM229 564
l97 161h81l-128 -161h-50z" />
    <glyph glyph-name="ocircumflex" unicode="&#xf4;" 
d="M285 -12q-54 0 -96.5 18t-72.5 52.5t-46 83t-16 110.5q0 126 61.5 196t169.5 70t169.5 -70t61.5 -196q0 -62 -16 -110.5t-46 -83t-72.5 -52.5t-96.5 -18zM285 40q84 0 126 55.5t42 156.5q0 103 -42 159t-126 56t-126 -56t-42 -159q0 -101 42 -156.5t126 -55.5zM372 564
l-88 109l-86 -109h-51l109 161h57l110 -161h-51z" />
    <glyph glyph-name="otilde" unicode="&#xf5;" 
d="M285 -12q-54 0 -96.5 18t-72.5 52.5t-46 83t-16 110.5q0 126 61.5 196t169.5 70t169.5 -70t61.5 -196q0 -62 -16 -110.5t-46 -83t-72.5 -52.5t-96.5 -18zM285 40q84 0 126 55.5t42 156.5q0 103 -42 159t-126 56t-126 -56t-42 -159q0 -101 42 -156.5t126 -55.5zM448 692
q0 -16 -4 -32.5t-14 -30t-26 -22.5t-41 -9q-20 0 -41 7t-41 15.5t-38.5 15.5t-34.5 7q-20 0 -31 -8.5t-11 -36.5h-44q0 15 4 32t13.5 30.5t26 22.5t41.5 9q20 0 41 -7t41 -15.5t38.5 -15.5t34.5 -7q19 0 30.5 8.5t11.5 36.5h44z" />
    <glyph glyph-name="odieresis" unicode="&#xf6;" 
d="M285 -12q-54 0 -96.5 18t-72.5 52.5t-46 83t-16 110.5q0 126 61.5 196t169.5 70t169.5 -70t61.5 -196q0 -62 -16 -110.5t-46 -83t-72.5 -52.5t-96.5 -18zM285 40q84 0 126 55.5t42 156.5q0 103 -42 159t-126 56t-126 -56t-42 -159q0 -101 42 -156.5t126 -55.5zM342 598
v93h72v-93h-72zM157 598v93h72v-93h-72z" />
    <glyph glyph-name="divide" unicode="&#xf7;" horiz-adv-x="605" 
d="M80 236v57h445v-57h-445zM271 390v90h62v-90h-62zM271 49v89h62v-89h-62z" />
    <glyph glyph-name="oslash" unicode="&#xf8;" 
d="M69 -66l64 106q-38 34 -58.5 87.5t-20.5 124.5q0 126 61.5 196t169.5 70q71 0 123 -32l53 88h40l-66 -108q39 -34 60 -88t21 -126q0 -62 -16 -110.5t-46 -83t-72.5 -52.5t-96.5 -18q-72 0 -124 32l-52 -86h-40zM190 67q37 -27 95 -27q84 0 126 55.5t42 156.5
q0 108 -49 163zM379 440q-38 27 -94 27q-84 0 -126 -56t-42 -159q0 -53 12 -93.5t36 -66.5z" />
    <glyph glyph-name="ugrave" unicode="&#xf9;" horiz-adv-x="602" 
d="M450 0v103q-29 -60 -74.5 -87.5t-104.5 -27.5q-36 0 -67.5 9.5t-55.5 29.5t-38 51.5t-14 75.5v353h62v-343q0 -57 31 -89.5t97 -32.5q35 0 64 12t50 34t32.5 52.5t11.5 67.5v299h62v-507h-56zM307 564l-127 161h81l97 -161h-51z" />
    <glyph glyph-name="uacute" unicode="&#xfa;" horiz-adv-x="602" 
d="M450 0v103q-29 -60 -74.5 -87.5t-104.5 -27.5q-36 0 -67.5 9.5t-55.5 29.5t-38 51.5t-14 75.5v353h62v-343q0 -57 31 -89.5t97 -32.5q35 0 64 12t50 34t32.5 52.5t11.5 67.5v299h62v-507h-56zM245 564l96 161h82l-128 -161h-50z" />
    <glyph glyph-name="ucircumflex" unicode="&#xfb;" horiz-adv-x="602" 
d="M450 0v103q-29 -60 -74.5 -87.5t-104.5 -27.5q-36 0 -67.5 9.5t-55.5 29.5t-38 51.5t-14 75.5v353h62v-343q0 -57 31 -89.5t97 -32.5q35 0 64 12t50 34t32.5 52.5t11.5 67.5v299h62v-507h-56zM387 564l-87 109l-86 -109h-51l109 161h57l110 -161h-52z" />
    <glyph glyph-name="udieresis" unicode="&#xfc;" horiz-adv-x="602" 
d="M450 0v103q-29 -60 -74.5 -87.5t-104.5 -27.5q-36 0 -67.5 9.5t-55.5 29.5t-38 51.5t-14 75.5v353h62v-343q0 -57 31 -89.5t97 -32.5q35 0 64 12t50 34t32.5 52.5t11.5 67.5v299h62v-507h-56zM357 598v93h72v-93h-72zM172 598v93h72v-93h-72z" />
    <glyph glyph-name="yacute" unicode="&#xfd;" horiz-adv-x="499" 
d="M129 -212l88 223l-194 496h65l159 -426l165 426h63l-287 -719h-59zM217 564l97 161h81l-127 -161h-51z" />
    <glyph glyph-name="thorn" unicode="&#xfe;" horiz-adv-x="590" 
d="M96 -212v977h56v-279l-4 -90q31 66 77 94t105 28q42 0 79.5 -15t66 -47t45 -82.5t16.5 -121.5q0 -69 -16.5 -119t-44.5 -82t-66 -47.5t-80 -15.5q-56 0 -100.5 25t-76.5 85l5 -76v-234h-62zM321 40q32 0 60 12t48.5 38t32 66t11.5 96q0 57 -11.5 97.5t-32 66.5
t-48.5 38.5t-60 12.5q-38 0 -68 -11.5t-51.5 -37t-33 -66.5t-11.5 -100q0 -114 44 -163t120 -49z" />
    <glyph glyph-name="ydieresis" unicode="&#xff;" horiz-adv-x="499" 
d="M129 -212l88 223l-194 496h65l159 -426l165 426h63l-287 -719h-59zM306 598v93h72v-93h-72zM121 598v93h72v-93h-72z" />
    <glyph glyph-name="Amacron" unicode="&#x100;" horiz-adv-x="665" 
d="M171 749v49h322v-49h-322zM564 0l-79 199h-309l-77 -199h-69l266 664h73l266 -664h-71zM331 596l-134 -342h267z" />
    <glyph glyph-name="amacron" unicode="&#x101;" horiz-adv-x="548" 
d="M103 620v49h322v-49h-322zM528 -2q-17 -5 -32.5 -7.5t-26.5 -2.5q-43 0 -61 22.5t-18 81.5q-17 -30 -37.5 -50t-44 -32t-47.5 -17t-47 -5q-26 0 -54.5 6.5t-52.5 22.5t-40 43t-16 69q0 47 17.5 76.5t46.5 47t67.5 24.5t80.5 9l124 5v64q0 25 -5.5 45.5t-19.5 35.5
t-39 23.5t-65 8.5q-21 0 -43.5 -4t-41 -14.5t-31.5 -29t-16 -47.5l-58 6q3 40 23 66.5t47.5 42.5t59.5 23t60 7q100 0 145.5 -42t45.5 -108v-258q0 -40 6.5 -55t33.5 -15h39v-42zM387 248l-126 -5q-31 -1 -58 -7t-47 -18.5t-31.5 -34t-11.5 -52.5t13 -49.5t31.5 -28t39 -12
t36.5 -2.5q29 0 56.5 11t49.5 32.5t35 54t13 75.5v36z" />
    <glyph glyph-name="Abreve" unicode="&#x102;" horiz-adv-x="665" 
d="M488 842q-8 -69 -51 -103.5t-104 -34.5q-62 0 -104.5 34.5t-51.5 103.5h51q8 -47 35.5 -66.5t69.5 -19.5q41 0 69.5 19t35.5 67h50zM564 0l-79 199h-309l-77 -199h-69l266 664h73l266 -664h-71zM331 596l-134 -342h267z" />
    <glyph glyph-name="abreve" unicode="&#x103;" horiz-adv-x="548" 
d="M421 725q-5 -81 -49 -121t-107 -40q-64 0 -107.5 40t-49.5 121h51q5 -59 33.5 -84t72.5 -25q43 0 72 24.5t34 84.5h50zM528 -2q-17 -5 -32.5 -7.5t-26.5 -2.5q-43 0 -61 22.5t-18 81.5q-17 -30 -37.5 -50t-44 -32t-47.5 -17t-47 -5q-26 0 -54.5 6.5t-52.5 22.5t-40 43
t-16 69q0 47 17.5 76.5t46.5 47t67.5 24.5t80.5 9l124 5v64q0 25 -5.5 45.5t-19.5 35.5t-39 23.5t-65 8.5q-21 0 -43.5 -4t-41 -14.5t-31.5 -29t-16 -47.5l-58 6q3 40 23 66.5t47.5 42.5t59.5 23t60 7q100 0 145.5 -42t45.5 -108v-258q0 -40 6.5 -55t33.5 -15h39v-42z
M387 248l-126 -5q-31 -1 -58 -7t-47 -18.5t-31.5 -34t-11.5 -52.5t13 -49.5t31.5 -28t39 -12t36.5 -2.5q29 0 56.5 11t49.5 32.5t35 54t13 75.5v36z" />
    <glyph glyph-name="Aogonek" unicode="&#x104;" horiz-adv-x="665" 
d="M637 -198q-15 -7 -32.5 -11t-37.5 -4q-36 0 -64.5 20t-28.5 65q0 43 25.5 76t63.5 53l-78 198h-309l-77 -199h-69l266 664h73l268 -670q-17 -4 -36 -13t-35.5 -23.5t-27 -34.5t-10.5 -44q0 -28 18 -38t41 -10q12 0 25.5 3t24.5 8v-40zM331 596l-134 -342h267z" />
    <glyph glyph-name="aogonek" unicode="&#x105;" horiz-adv-x="548" 
d="M528 -199q-33 -14 -71 -14q-37 0 -64.5 19.5t-27.5 64.5q0 38 20 69t52 52q-26 7 -36.5 30t-10.5 70q-17 -30 -37.5 -50t-44 -32t-47.5 -17t-47 -5q-26 0 -54.5 6.5t-52.5 22.5t-40 43t-16 69q0 47 17.5 76.5t46.5 47t67.5 24.5t80.5 9l124 5v64q0 25 -5.5 45.5
t-19.5 35.5t-39 23.5t-65 8.5q-21 0 -43.5 -4t-41 -14.5t-31.5 -29t-16 -47.5l-58 6q3 40 23 66.5t47.5 42.5t59.5 23t60 7q100 0 145.5 -42t45.5 -108v-258q0 -40 6.5 -55t33.5 -15h39v-46q-17 -4 -36.5 -13.5t-36 -24t-27 -34.5t-10.5 -44q0 -29 18 -38t41 -9q26 0 51 11
v-41zM387 248l-126 -5q-31 -1 -58 -7t-47 -18.5t-31.5 -34t-11.5 -52.5t13 -49.5t31.5 -28t39 -12t36.5 -2.5q29 0 56.5 11t49.5 32.5t35 54t13 75.5v36z" />
    <glyph glyph-name="Cacute" unicode="&#x106;" horiz-adv-x="674" 
d="M311 704l83 138h81l-114 -138h-50zM616 188q-23 -97 -89.5 -148.5t-170.5 -51.5q-69 0 -124 23.5t-93.5 67.5t-58.5 108t-20 144t21 143.5t60 108t94 68t122 23.5q104 0 169.5 -49.5t88.5 -139.5h-67q-17 64 -65.5 98.5t-125.5 34.5q-113 0 -171.5 -75.5t-58.5 -211.5
q0 -134 58.5 -210t170.5 -76q81 0 130.5 36t64.5 107h65z" />
    <glyph glyph-name="cacute" unicode="&#x107;" horiz-adv-x="537" 
d="M488 138q-18 -72 -68.5 -111t-131.5 -39q-112 0 -173 69.5t-61 194.5q0 62 16.5 111.5t47 84t73.5 52.5t97 18q81 0 131.5 -37.5t67.5 -108.5l-59 -6q-13 49 -47 75t-93 26q-85 0 -128 -56t-43 -159q0 -101 43 -156.5t128 -55.5q60 0 94 25t47 73h59zM239 564l97 161h81
l-127 -161h-51z" />
    <glyph glyph-name="Ccircumflex" unicode="&#x108;" horiz-adv-x="674" 
d="M451 704l-88 88l-86 -88h-51l109 138h57l110 -138h-51zM616 188q-23 -97 -89.5 -148.5t-170.5 -51.5q-69 0 -124 23.5t-93.5 67.5t-58.5 108t-20 144t21 143.5t60 108t94 68t122 23.5q104 0 169.5 -49.5t88.5 -139.5h-67q-17 64 -65.5 98.5t-125.5 34.5
q-113 0 -171.5 -75.5t-58.5 -211.5q0 -134 58.5 -210t170.5 -76q81 0 130.5 36t64.5 107h65z" />
    <glyph glyph-name="ccircumflex" unicode="&#x109;" horiz-adv-x="537" 
d="M488 138q-18 -72 -68.5 -111t-131.5 -39q-112 0 -173 69.5t-61 194.5q0 62 16.5 111.5t47 84t73.5 52.5t97 18q81 0 131.5 -37.5t67.5 -108.5l-59 -6q-13 49 -47 75t-93 26q-85 0 -128 -56t-43 -159q0 -101 43 -156.5t128 -55.5q60 0 94 25t47 73h59zM369 564l-88 109
l-85 -109h-51l108 161h58l109 -161h-51z" />
    <glyph glyph-name="Cdotaccent" unicode="&#x10a;" horiz-adv-x="674" 
d="M326 725v98h77v-98h-77zM616 188q-23 -97 -89.5 -148.5t-170.5 -51.5q-69 0 -124 23.5t-93.5 67.5t-58.5 108t-20 144t21 143.5t60 108t94 68t122 23.5q104 0 169.5 -49.5t88.5 -139.5h-67q-17 64 -65.5 98.5t-125.5 34.5q-113 0 -171.5 -75.5t-58.5 -211.5
q0 -134 58.5 -210t170.5 -76q81 0 130.5 36t64.5 107h65z" />
    <glyph glyph-name="cdotaccent" unicode="&#x10b;" horiz-adv-x="537" 
d="M488 138q-18 -72 -68.5 -111t-131.5 -39q-112 0 -173 69.5t-61 194.5q0 62 16.5 111.5t47 84t73.5 52.5t97 18q81 0 131.5 -37.5t67.5 -108.5l-59 -6q-13 49 -47 75t-93 26q-85 0 -128 -56t-43 -159q0 -101 43 -156.5t128 -55.5q60 0 94 25t47 73h59zM244 595v98h78v-98
h-78z" />
    <glyph glyph-name="Ccaron" unicode="&#x10c;" horiz-adv-x="674" 
d="M335 704l-109 138h51l86 -89l88 89h51l-110 -138h-57zM616 188q-23 -97 -89.5 -148.5t-170.5 -51.5q-69 0 -124 23.5t-93.5 67.5t-58.5 108t-20 144t21 143.5t60 108t94 68t122 23.5q104 0 169.5 -49.5t88.5 -139.5h-67q-17 64 -65.5 98.5t-125.5 34.5
q-113 0 -171.5 -75.5t-58.5 -211.5q0 -134 58.5 -210t170.5 -76q81 0 130.5 36t64.5 107h65z" />
    <glyph glyph-name="ccaron" unicode="&#x10d;" horiz-adv-x="537" 
d="M488 138q-18 -72 -68.5 -111t-131.5 -39q-112 0 -173 69.5t-61 194.5q0 62 16.5 111.5t47 84t73.5 52.5t97 18q81 0 131.5 -37.5t67.5 -108.5l-59 -6q-13 49 -47 75t-93 26q-85 0 -128 -56t-43 -159q0 -101 43 -156.5t128 -55.5q60 0 94 25t47 73h59zM253 564l-108 161
h51l85 -109l88 109h51l-109 -161h-58z" />
    <glyph glyph-name="Dcaron" unicode="&#x10e;" horiz-adv-x="694" 
d="M297 704l-109 138h51l86 -89l87 89h52l-110 -138h-57zM90 0v664h225q76 0 136 -24.5t102 -68.5t64.5 -104t22.5 -131q0 -68 -22.5 -129t-64.5 -107t-102 -73t-136 -27h-225zM312 57q64 0 112.5 22t81.5 60.5t49.5 89t16.5 107.5q0 58 -17 108t-50 86.5t-81.5 57
t-112.5 20.5h-157v-551h158z" />
    <glyph glyph-name="dcaron" unicode="&#x10f;" horiz-adv-x="653" 
d="M566 555l25 166h62l-40 -166h-47zM438 0v103q-32 -63 -77 -89t-101 -26q-42 0 -79 15t-65.5 47t-45 82t-16.5 121q0 70 16.5 120t44.5 82t65.5 47.5t79.5 15.5q56 0 101 -25t75 -85l-4 78v235h62v-721h-56zM269 39q37 0 67.5 12t52 37.5t33 66t11.5 98.5q0 115 -44 164.5
t-120 49.5q-32 0 -60 -12.5t-48.5 -38.5t-32 -66.5t-11.5 -96.5t11.5 -96.5t32 -66.5t48.5 -38.5t60 -12.5z" />
    <glyph glyph-name="Dcroat" unicode="&#x110;" horiz-adv-x="700" 
d="M96 0v308h-120v51h120v305h225q76 0 136 -24.5t102 -68.5t64.5 -104t22.5 -131q0 -68 -22.5 -129t-64.5 -107t-102 -73t-136 -27h-225zM318 57q64 0 112.5 22t81.5 60.5t49.5 89t16.5 107.5q0 58 -17 108t-50 86.5t-81.5 57t-112.5 20.5h-157v-249h188v-51h-188v-251h158
z" />
    <glyph glyph-name="dcroat" unicode="&#x111;" horiz-adv-x="590" 
d="M438 0v103q-32 -63 -77 -89t-101 -26q-42 0 -79 15t-65.5 47t-45 82t-16.5 121q0 70 16.5 120t44.5 82t65.5 47.5t79.5 15.5q56 0 101 -25t75 -85l-4 78v133h-189v43h189v59h62v-59h89v-43h-89v-619h-56zM269 39q37 0 67.5 12t52 37.5t33 66t11.5 98.5q0 115 -44 164.5
t-120 49.5q-32 0 -60 -12.5t-48.5 -38.5t-32 -66.5t-11.5 -96.5t11.5 -96.5t32 -66.5t48.5 -38.5t60 -12.5z" />
    <glyph glyph-name="Emacron" unicode="&#x112;" horiz-adv-x="528" 
d="M123 776v49h322v-49h-322zM90 0v664h385v-55h-321v-241h303v-54h-303v-258h323v-56h-387z" />
    <glyph glyph-name="emacron" unicode="&#x113;" 
d="M131 620v49h322v-49h-322zM500 133q-19 -69 -69 -107t-134 -38q-113 0 -173 69.5t-60 194.5q0 62 16.5 111.5t47 84t73.5 52.5t96 18t92.5 -17t65.5 -49t38.5 -77.5t12.5 -101.5l-2 -32h-376q2 -96 44.5 -148.5t123.5 -52.5q63 0 97.5 24t47.5 69h59zM442 289
q-2 83 -34.5 130.5t-111.5 47.5q-77 0 -118.5 -46.5t-48.5 -131.5h313z" />
    <glyph glyph-name="Ebreve" unicode="&#x114;" horiz-adv-x="528" 
d="M440 842q-8 -69 -51 -103.5t-104 -34.5q-62 0 -105 34.5t-51 103.5h50q8 -47 36 -66.5t70 -19.5q41 0 69 19t35 67h51zM90 0v664h385v-55h-321v-241h303v-54h-303v-258h323v-56h-387z" />
    <glyph glyph-name="ebreve" unicode="&#x115;" 
d="M449 725q-5 -81 -49 -121t-107 -40q-64 0 -107.5 40t-49.5 121h51q5 -59 33.5 -84t72.5 -25q43 0 72 24.5t34 84.5h50zM500 133q-19 -69 -69 -107t-134 -38q-113 0 -173 69.5t-60 194.5q0 62 16.5 111.5t47 84t73.5 52.5t96 18t92.5 -17t65.5 -49t38.5 -77.5t12.5 -101.5
l-2 -32h-376q2 -96 44.5 -148.5t123.5 -52.5q63 0 97.5 24t47.5 69h59zM442 289q-2 83 -34.5 130.5t-111.5 47.5q-77 0 -118.5 -46.5t-48.5 -131.5h313z" />
    <glyph glyph-name="Edotaccent" unicode="&#x116;" horiz-adv-x="528" 
d="M245 725v97h78v-97h-78zM90 0v664h385v-55h-321v-241h303v-54h-303v-258h323v-56h-387z" />
    <glyph glyph-name="edotaccent" unicode="&#x117;" 
d="M254 595v98h77v-98h-77zM500 133q-19 -69 -69 -107t-134 -38q-113 0 -173 69.5t-60 194.5q0 62 16.5 111.5t47 84t73.5 52.5t96 18t92.5 -17t65.5 -49t38.5 -77.5t12.5 -101.5l-2 -32h-376q2 -96 44.5 -148.5t123.5 -52.5q63 0 97.5 24t47.5 69h59zM442 289
q-2 83 -34.5 130.5t-111.5 47.5q-77 0 -118.5 -46.5t-48.5 -131.5h313z" />
    <glyph glyph-name="Eogonek" unicode="&#x118;" horiz-adv-x="528" 
d="M477 -198q-15 -7 -32.5 -11t-37.5 -4q-37 0 -64.5 19.5t-27.5 64.5q0 43 24 75.5t62 53.5h-311v664h385v-55h-321v-241h303v-54h-303v-258h323v-62q-17 -4 -36 -13.5t-35.5 -24t-27 -34.5t-10.5 -44q0 -28 18 -37.5t41 -9.5q12 0 25.5 3t24.5 8v-40z" />
    <glyph glyph-name="eogonek" unicode="&#x119;" 
d="M482 -198q-14 -7 -31 -11t-38 -4q-20 0 -38.5 5.5t-33 16.5t-23 29t-8.5 42q0 35 12 62.5t30 50.5q-13 -2 -26.5 -3.5t-28.5 -1.5q-113 0 -173 69.5t-60 194.5q0 62 16.5 111.5t47 84t73.5 52.5t96 18t92.5 -17t65.5 -49t38.5 -77.5t12.5 -101.5l-2 -32h-376
q2 -96 44.5 -148.5t123.5 -52.5q63 0 97.5 24t47.5 69h59q-18 -68 -66 -105q-27 -26 -49 -61t-22 -80q0 -17 6.5 -28t17 -17t22.5 -8.5t24 -2.5q25 0 49 11v-40zM442 289q-2 83 -34.5 130.5t-111.5 47.5q-77 0 -118.5 -46.5t-48.5 -131.5h313z" />
    <glyph glyph-name="Ecaron" unicode="&#x11a;" horiz-adv-x="528" 
d="M255 704l-109 138h51l86 -89l87 89h52l-110 -138h-57zM90 0v664h385v-55h-321v-241h303v-54h-303v-258h323v-56h-387z" />
    <glyph glyph-name="ecaron" unicode="&#x11b;" 
d="M263 564l-108 161h51l85 -109l88 109h51l-109 -161h-58zM500 133q-19 -69 -69 -107t-134 -38q-113 0 -173 69.5t-60 194.5q0 62 16.5 111.5t47 84t73.5 52.5t96 18t92.5 -17t65.5 -49t38.5 -77.5t12.5 -101.5l-2 -32h-376q2 -96 44.5 -148.5t123.5 -52.5q63 0 97.5 24
t47.5 69h59zM442 289q-2 83 -34.5 130.5t-111.5 47.5q-77 0 -118.5 -46.5t-48.5 -131.5h313z" />
    <glyph glyph-name="Gcircumflex" unicode="&#x11c;" horiz-adv-x="689" 
d="M445 704l-88 88l-86 -88h-51l109 138h57l110 -138h-51zM578 0l-12 121q-16 -38 -40.5 -63t-52.5 -41t-57 -22.5t-54 -6.5q-71 0 -127 23.5t-95 67.5t-59.5 108t-20.5 144t21.5 143.5t60.5 108t94.5 68t123.5 23.5q103 0 167 -49.5t83 -139.5h-67q-14 64 -60.5 98.5
t-122.5 34.5q-115 0 -174 -75.5t-59 -211.5q0 -137 59.5 -212.5t177.5 -75.5q89 0 139.5 60.5t50.5 164.5v14h-185v52h252v-334h-43z" />
    <glyph glyph-name="gcircumflex" unicode="&#x11d;" horiz-adv-x="589" 
d="M434 24l5 97q-32 -63 -77 -89t-102 -26q-42 0 -79.5 15t-65.5 45.5t-44.5 76.5t-16.5 109q0 70 16.5 120.5t44.5 83t65.5 47.5t79.5 15q57 0 102 -26t76 -87v102h56v-511q0 -32 -8 -69t-31 -68.5t-65 -52t-111 -20.5q-26 0 -60 7t-65 25.5t-53.5 50.5t-25.5 81l58 6
q2 -31 14.5 -53.5t32.5 -37.5t46 -22t55 -7q49 0 79 13.5t46.5 36t22 51t5.5 58.5v29zM269 58q76 0 120 46.5t44 148.5q0 116 -44 165t-120 49q-32 0 -60 -12t-48.5 -38t-32 -66.5t-11.5 -97.5q0 -49 11.5 -85.5t32 -61t48.5 -36.5t60 -12zM366 564l-87 109l-86 -109h-51
l109 161h57l110 -161h-52z" />
    <glyph glyph-name="Gbreve" unicode="&#x11e;" horiz-adv-x="689" 
d="M514 842q-8 -69 -51 -103.5t-104 -34.5q-62 0 -104.5 34.5t-51.5 103.5h51q8 -47 35.5 -66.5t69.5 -19.5q41 0 69 19t36 67h50zM578 0l-12 121q-16 -38 -40.5 -63t-52.5 -41t-57 -22.5t-54 -6.5q-71 0 -127 23.5t-95 67.5t-59.5 108t-20.5 144t21.5 143.5t60.5 108
t94.5 68t123.5 23.5q103 0 167 -49.5t83 -139.5h-67q-14 64 -60.5 98.5t-122.5 34.5q-115 0 -174 -75.5t-59 -211.5q0 -137 59.5 -212.5t177.5 -75.5q89 0 139.5 60.5t50.5 164.5v14h-185v52h252v-334h-43z" />
    <glyph glyph-name="gbreve" unicode="&#x11f;" horiz-adv-x="589" 
d="M434 24l5 97q-32 -63 -77 -89t-102 -26q-42 0 -79.5 15t-65.5 45.5t-44.5 76.5t-16.5 109q0 70 16.5 120.5t44.5 83t65.5 47.5t79.5 15q57 0 102 -26t76 -87v102h56v-511q0 -32 -8 -69t-31 -68.5t-65 -52t-111 -20.5q-26 0 -60 7t-65 25.5t-53.5 50.5t-25.5 81l58 6
q2 -31 14.5 -53.5t32.5 -37.5t46 -22t55 -7q49 0 79 13.5t46.5 36t22 51t5.5 58.5v29zM269 58q76 0 120 46.5t44 148.5q0 116 -44 165t-120 49q-32 0 -60 -12t-48.5 -38t-32 -66.5t-11.5 -97.5q0 -49 11.5 -85.5t32 -61t48.5 -36.5t60 -12zM435 725q-5 -81 -49 -121
t-107 -40q-64 0 -107.5 40t-49.5 121h51q5 -59 33.5 -84t72.5 -25q43 0 72 24.5t34 84.5h50z" />
    <glyph glyph-name="Gdotaccent" unicode="&#x120;" horiz-adv-x="689" 
d="M325 725v98h77v-98h-77zM578 0l-12 121q-16 -38 -40.5 -63t-52.5 -41t-57 -22.5t-54 -6.5q-71 0 -127 23.5t-95 67.5t-59.5 108t-20.5 144t21.5 143.5t60.5 108t94.5 68t123.5 23.5q103 0 167 -49.5t83 -139.5h-67q-14 64 -60.5 98.5t-122.5 34.5q-115 0 -174 -75.5
t-59 -211.5q0 -137 59.5 -212.5t177.5 -75.5q89 0 139.5 60.5t50.5 164.5v14h-185v52h252v-334h-43z" />
    <glyph glyph-name="gdotaccent" unicode="&#x121;" horiz-adv-x="589" 
d="M434 24l5 97q-32 -63 -77 -89t-102 -26q-42 0 -79.5 15t-65.5 45.5t-44.5 76.5t-16.5 109q0 70 16.5 120.5t44.5 83t65.5 47.5t79.5 15q57 0 102 -26t76 -87v102h56v-511q0 -32 -8 -69t-31 -68.5t-65 -52t-111 -20.5q-26 0 -60 7t-65 25.5t-53.5 50.5t-25.5 81l58 6
q2 -31 14.5 -53.5t32.5 -37.5t46 -22t55 -7q49 0 79 13.5t46.5 36t22 51t5.5 58.5v29zM269 58q76 0 120 46.5t44 148.5q0 116 -44 165t-120 49q-32 0 -60 -12t-48.5 -38t-32 -66.5t-11.5 -97.5q0 -49 11.5 -85.5t32 -61t48.5 -36.5t60 -12zM242 595v98h77v-98h-77z" />
    <glyph glyph-name="uni0122" unicode="&#x122;" horiz-adv-x="689" 
d="M304 -221l25 165h62l-40 -165h-47zM578 0l-12 121q-16 -38 -40.5 -63t-52.5 -41t-57 -22.5t-54 -6.5q-71 0 -127 23.5t-95 67.5t-59.5 108t-20.5 144t21.5 143.5t60.5 108t94.5 68t123.5 23.5q103 0 167 -49.5t83 -139.5h-67q-14 64 -60.5 98.5t-122.5 34.5
q-115 0 -174 -75.5t-59 -211.5q0 -137 59.5 -212.5t177.5 -75.5q89 0 139.5 60.5t50.5 164.5v14h-185v52h252v-334h-43z" />
    <glyph glyph-name="uni0123" unicode="&#x123;" horiz-adv-x="589" 
d="M247 565l39 165h47l-25 -165h-61zM434 24l5 97q-32 -63 -77 -89t-102 -26q-42 0 -79.5 15t-65.5 45.5t-44.5 76.5t-16.5 109q0 70 16.5 120.5t44.5 83t65.5 47.5t79.5 15q57 0 102 -26t76 -87v102h56v-511q0 -32 -8 -69t-31 -68.5t-65 -52t-111 -20.5q-26 0 -60 7
t-65 25.5t-53.5 50.5t-25.5 81l58 6q2 -31 14.5 -53.5t32.5 -37.5t46 -22t55 -7q49 0 79 13.5t46.5 36t22 51t5.5 58.5v29zM269 58q76 0 120 46.5t44 148.5q0 116 -44 165t-120 49q-32 0 -60 -12t-48.5 -38t-32 -66.5t-11.5 -97.5q0 -49 11.5 -85.5t32 -61t48.5 -36.5
t60 -12z" />
    <glyph glyph-name="Hcircumflex" unicode="&#x124;" horiz-adv-x="686" 
d="M532 0v313h-378v-313h-64v664h64v-294h378v294h64v-664h-64zM429 704l-87 88l-86 -88h-51l109 138h57l110 -138h-52z" />
    <glyph glyph-name="hcircumflex" unicode="&#x125;" horiz-adv-x="600" 
d="M213 752l-87 86l-86 -86h-51l108 136h58l110 -136h-52zM446 0v346q0 53 -33 86t-96 33q-36 0 -65 -12t-50 -33.5t-32.5 -52.5t-11.5 -68v-299h-62v721h62v-235l-6 -84q28 60 74 88t105 28q34 0 66 -9.5t56.5 -29t39.5 -50.5t15 -73v-356h-62z" />
    <glyph glyph-name="Hbar" unicode="&#x126;" horiz-adv-x="686" 
d="M532 0v313h-378v-313h-64v492h-42v45h42v127h64v-127h378v127h64v-127h43v-45h-43v-492h-64zM532 492h-378v-122h378v122z" />
    <glyph glyph-name="hbar" unicode="&#x127;" horiz-adv-x="600" 
d="M446 0v346q0 53 -33 86t-96 33q-36 0 -65 -12t-50 -33.5t-32.5 -52.5t-11.5 -68v-299h-62v618h-89v44h89v59h62v-59h189v-44h-189v-132l-6 -84q28 60 74 88t105 28q34 0 66 -9.5t56.5 -29t39.5 -50.5t15 -73v-356h-62z" />
    <glyph glyph-name="Itilde" unicode="&#x128;" horiz-adv-x="244" 
d="M90 0v664h64v-664h-64zM285 821q0 -16 -4 -32.5t-14 -30t-26 -22.5t-41 -9q-21 0 -41.5 7t-40.5 15.5t-38.5 15.5t-34.5 7q-20 0 -31.5 -8.5t-11.5 -36.5h-44q0 15 4 32t13.5 30.5t26 22.5t41.5 9q21 0 41.5 -7t40.5 -15.5t38.5 -15.5t34.5 -7q20 0 31 8.5t11 36.5h45z
" />
    <glyph glyph-name="itilde" unicode="&#x129;" horiz-adv-x="254" 
d="M290 692q0 -16 -4 -32.5t-14 -30t-26 -22.5t-41 -9q-21 0 -41.5 7t-40.5 15.5t-38.5 15.5t-34.5 7q-20 0 -31 -8.5t-11 -36.5h-44q0 15 4 32t13.5 30.5t25.5 22.5t41 9q21 0 41.5 -7t40.5 -15.5t38.5 -15.5t34.5 -7q20 0 31.5 8.5t11.5 36.5h44zM96 0v507h62v-507h-62z
" />
    <glyph glyph-name="Imacron" unicode="&#x12a;" horiz-adv-x="244" 
d="M90 0v664h64v-664h-64zM-40 776v49h322v-49h-322z" />
    <glyph glyph-name="imacron" unicode="&#x12b;" horiz-adv-x="254" 
d="M-34 620v49h321v-49h-321zM96 0v507h62v-507h-62z" />
    <glyph glyph-name="Ibreve" unicode="&#x12c;" horiz-adv-x="244" 
d="M90 0v664h64v-664h-64zM277 842q-8 -69 -51 -103.5t-104 -34.5q-62 0 -104.5 34.5t-51.5 103.5h51q8 -47 35.5 -66.5t69.5 -19.5q41 0 69.5 19t35.5 67h50z" />
    <glyph glyph-name="ibreve" unicode="&#x12d;" horiz-adv-x="254" 
d="M284 725q-3 -41 -15.5 -71t-33.5 -50t-48.5 -30t-59.5 -10q-63 0 -107 40t-49 121h50q5 -59 33.5 -84t72.5 -25t72.5 24.5t33.5 84.5h51zM96 0v507h62v-507h-62z" />
    <glyph glyph-name="Iogonek" unicode="&#x12e;" horiz-adv-x="244" 
d="M185 -198q-15 -8 -30 -11.5t-33 -3.5q-41 0 -70.5 24t-29.5 75q0 38 19.5 67t48.5 47v664h64v-670q-11 -4 -24.5 -11.5t-25.5 -20t-20.5 -30.5t-8.5 -42q0 -32 19 -45.5t45 -13.5q12 0 23.5 2.5t22.5 8.5v-40z" />
    <glyph glyph-name="iogonek" unicode="&#x12f;" horiz-adv-x="254" 
d="M189 -198q-15 -8 -30 -11.5t-33 -3.5q-40 0 -70 24t-30 75q0 38 20 67.5t50 47.5v506h62v-512q-11 -4 -24.5 -12t-25.5 -20.5t-20 -30.5t-8 -42q0 -32 18.5 -45.5t44.5 -13.5q24 0 46 11v-40zM93 618v79h68v-79h-68z" />
    <glyph glyph-name="Idotaccent" unicode="&#x130;" horiz-adv-x="244" 
d="M90 0v664h64v-664h-64zM83 752v97h78v-97h-78z" />
    <glyph glyph-name="dotlessi" unicode="&#x131;" horiz-adv-x="254" 
d="M96 0v507h62v-507h-62z" />
    <glyph glyph-name="IJ" unicode="&#x132;" horiz-adv-x="565" 
d="M90 0v664h64v-664h-64zM248 43h83q49 0 65 29t16 92v500h64v-497q0 -28 -2.5 -59.5t-15 -58t-40 -44t-76.5 -17.5q-2 0 -30.5 1t-63.5 8v46z" />
    <glyph glyph-name="ij" unicode="&#x133;" horiz-adv-x="510" 
d="M96 0v507h62v-507h-62zM93 618v79h68v-79h-68zM234 -160h51q42 0 54.5 29t12.5 92v546h62v-547q0 -39 -3.5 -71t-16.5 -55t-37.5 -35.5t-67.5 -12.5q-11 0 -25.5 1t-29.5 3v50zM349 618v79h68v-79h-68z" />
    <glyph glyph-name="Jcircumflex" unicode="&#x134;" horiz-adv-x="322" 
d="M4 43h83q49 0 65 29t16 92v500h64v-497q0 -28 -2.5 -59.5t-15 -58t-40 -44t-76.5 -17.5q-2 0 -30 1t-64 8v46zM286 704l-87 88l-86 -88h-51l109 138h57l110 -138h-52z" />
    <glyph glyph-name="jcircumflex" unicode="&#x135;" horiz-adv-x="254" 
d="M-22 -159h51q42 0 54.5 28.5t12.5 91.5v546h62v-547q0 -39 -3.5 -71t-16.5 -55t-37.5 -35.5t-67.5 -12.5q-10 0 -25 1t-30 3v51zM213 564l-87 109l-86 -109h-51l108 161h58l110 -161h-52z" />
    <glyph glyph-name="uni0136" unicode="&#x136;" horiz-adv-x="571" 
d="M265 -221l25 165h62l-40 -165h-47zM485 0l-260 324l-71 -76v-248h-64v664h64v-333l312 333h77l-274 -294l296 -370h-80z" />
    <glyph glyph-name="uni0137" unicode="&#x137;" horiz-adv-x="518" 
d="M427 0l-196 283l-73 -63v-220h-62v721h62v-430l251 216h79l-210 -182l218 -325h-69zM237 -221l25 165h62l-40 -165h-47z" />
    <glyph glyph-name="kgreenlandic" unicode="&#x138;" horiz-adv-x="518" 
d="M427 0l-195 271l-74 -66v-205h-62v507h62v-231l252 231h78l-212 -194l220 -313h-69z" />
    <glyph glyph-name="Lacute" unicode="&#x139;" horiz-adv-x="489" 
d="M90 0v664h64v-608h319v-56h-383zM81 704l83 138h81l-114 -138h-50z" />
    <glyph glyph-name="lacute" unicode="&#x13a;" horiz-adv-x="254" 
d="M96 0v721h62v-721h-62zM86 752l81 136h79l-109 -136h-51z" />
    <glyph glyph-name="uni013B" unicode="&#x13b;" horiz-adv-x="489" 
d="M228 -221l25 165h61l-39 -165h-47zM90 0v664h64v-608h319v-56h-383z" />
    <glyph glyph-name="uni013C" unicode="&#x13c;" horiz-adv-x="254" 
d="M72 -221l24 165h62l-39 -165h-47zM96 0v721h62v-721h-62z" />
    <glyph glyph-name="Lcaron" unicode="&#x13d;" horiz-adv-x="489" 
d="M260 498l24 166h62l-40 -166h-46zM90 0v664h64v-608h319v-56h-383z" />
    <glyph glyph-name="lcaron" unicode="&#x13e;" horiz-adv-x="317" 
d="M231 555l24 166h62l-40 -166h-46zM96 0v721h62v-721h-62z" />
    <glyph glyph-name="Ldot" unicode="&#x13f;" horiz-adv-x="489" 
d="M277 313v96h77v-96h-77zM90 0v664h64v-608h319v-56h-383z" />
    <glyph glyph-name="ldot" unicode="&#x140;" horiz-adv-x="346" 
d="M96 0v721h62v-721h-62zM259 309v98h77v-98h-77z" />
    <glyph glyph-name="Lslash" unicode="&#x141;" horiz-adv-x="498" 
d="M99 0v287l-95 -30v50l95 30v327h64v-307l162 52v-50l-162 -52v-251h319v-56h-383z" />
    <glyph glyph-name="lslash" unicode="&#x142;" horiz-adv-x="270" 
d="M102 0v316l-106 -34v51l106 33v355h62v-334l110 35v-50l-110 -36v-336h-62z" />
    <glyph glyph-name="Nacute" unicode="&#x143;" horiz-adv-x="699" 
d="M307 704l83 138h81l-114 -138h-50zM529 0l-375 569v-569h-64v664h75l380 -581v581h64v-664h-80z" />
    <glyph glyph-name="nacute" unicode="&#x144;" horiz-adv-x="600" 
d="M446 0v346q0 53 -33 86t-96 33q-36 0 -65 -12t-50 -34t-32.5 -52.5t-11.5 -67.5v-299h-62v507h56v-103q29 63 75.5 88.5t103.5 25.5q34 0 66 -9.5t56.5 -29t39.5 -50.5t15 -73v-356h-62zM250 564l97 161h81l-128 -161h-50z" />
    <glyph glyph-name="uni0145" unicode="&#x145;" horiz-adv-x="699" 
d="M296 -221l25 165h61l-40 -165h-46zM529 0l-375 569v-569h-64v664h75l380 -581v581h64v-664h-80z" />
    <glyph glyph-name="uni0146" unicode="&#x146;" horiz-adv-x="600" 
d="M248 -221l25 165h62l-40 -165h-47zM446 0v346q0 53 -33 86t-96 33q-36 0 -65 -12t-50 -34t-32.5 -52.5t-11.5 -67.5v-299h-62v507h56v-103q29 63 75.5 88.5t103.5 25.5q34 0 66 -9.5t56.5 -29t39.5 -50.5t15 -73v-356h-62z" />
    <glyph glyph-name="Ncaron" unicode="&#x147;" horiz-adv-x="699" 
d="M320 704l-108 138h51l86 -89l87 89h51l-109 -138h-58zM529 0l-375 569v-569h-64v664h75l380 -581v581h64v-664h-80z" />
    <glyph glyph-name="ncaron" unicode="&#x148;" horiz-adv-x="600" 
d="M446 0v346q0 53 -33 86t-96 33q-36 0 -65 -12t-50 -34t-32.5 -52.5t-11.5 -67.5v-299h-62v507h56v-103q29 63 75.5 88.5t103.5 25.5q34 0 66 -9.5t56.5 -29t39.5 -50.5t15 -73v-356h-62zM273 564l-109 161h51l86 -109l87 109h52l-110 -161h-57z" />
    <glyph glyph-name="napostrophe" unicode="&#x149;" horiz-adv-x="600" 
d="M72 564l24 165h62l-40 -165h-46zM446 0v346q0 53 -33 86t-96 33q-36 0 -65 -12t-50 -34t-32.5 -52.5t-11.5 -67.5v-299h-62v507h56v-103q29 63 75.5 88.5t103.5 25.5q34 0 66 -9.5t56.5 -29t39.5 -50.5t15 -73v-356h-62z" />
    <glyph glyph-name="Eng" unicode="&#x14a;" horiz-adv-x="699" 
d="M545 2l-391 569v-571h-64v664h75l380 -556v556h64v-705q0 -29 -2.5 -60.5t-15 -58t-40 -44t-76.5 -17.5q-2 0 -30 1t-63 8v47h84q46 0 62.5 27t16.5 86v54z" />
    <glyph glyph-name="eng" unicode="&#x14b;" horiz-adv-x="600" 
d="M328 -159h51q43 0 55 29.5t12 95.5v380q0 53 -33 86t-96 33q-36 0 -65 -12t-50 -34t-32.5 -52.5t-11.5 -67.5v-299h-62v507h56v-103q29 63 75.5 88.5t103.5 25.5q34 0 66 -9.5t56.5 -29t39.5 -50.5t15 -73v-386q0 -40 -3 -74t-16 -58.5t-38 -38t-68 -13.5q-10 0 -25 1
t-30 3v51z" />
    <glyph glyph-name="Omacron" unicode="&#x14c;" horiz-adv-x="729" 
d="M204 749v49h321v-49h-321zM364 -12q-70 0 -126.5 23.5t-96 68t-60.5 108t-21 143.5q0 79 21 143t60.5 108t96 68t126.5 24t126.5 -24t96.5 -68t61 -108t21 -143q0 -80 -21 -143.5t-61 -108t-96.5 -68t-126.5 -23.5zM364 45q118 0 178 75.5t60 210.5t-60 211t-178 76
q-117 0 -177 -76.5t-60 -210.5q0 -135 59.5 -210.5t177.5 -75.5z" />
    <glyph glyph-name="omacron" unicode="&#x14d;" 
d="M285 -12q-54 0 -96.5 18t-72.5 52.5t-46 83t-16 110.5q0 126 61.5 196t169.5 70t169.5 -70t61.5 -196q0 -62 -16 -110.5t-46 -83t-72.5 -52.5t-96.5 -18zM285 40q84 0 126 55.5t42 156.5q0 103 -42 159t-126 56t-126 -56t-42 -159q0 -101 42 -156.5t126 -55.5zM124 620
v49h322v-49h-322z" />
    <glyph glyph-name="Obreve" unicode="&#x14e;" horiz-adv-x="729" 
d="M520 842q-8 -69 -51 -103.5t-104 -34.5q-62 0 -104.5 34.5t-51.5 103.5h51q8 -47 35.5 -66.5t69.5 -19.5q41 0 69 19t36 67h50zM364 -12q-70 0 -126.5 23.5t-96 68t-60.5 108t-21 143.5q0 79 21 143t60.5 108t96 68t126.5 24t126.5 -24t96.5 -68t61 -108t21 -143
q0 -80 -21 -143.5t-61 -108t-96.5 -68t-126.5 -23.5zM364 45q118 0 178 75.5t60 210.5t-60 211t-178 76q-117 0 -177 -76.5t-60 -210.5q0 -135 59.5 -210.5t177.5 -75.5z" />
    <glyph glyph-name="obreve" unicode="&#x14f;" 
d="M285 -12q-54 0 -96.5 18t-72.5 52.5t-46 83t-16 110.5q0 126 61.5 196t169.5 70t169.5 -70t61.5 -196q0 -62 -16 -110.5t-46 -83t-72.5 -52.5t-96.5 -18zM285 40q84 0 126 55.5t42 156.5q0 103 -42 159t-126 56t-126 -56t-42 -159q0 -101 42 -156.5t126 -55.5zM442 725
q-5 -81 -49 -121t-107 -40q-64 0 -107.5 40t-49.5 121h51q5 -59 33.5 -84t72.5 -25q43 0 72 24.5t34 84.5h50z" />
    <glyph glyph-name="Ohungarumlaut" unicode="&#x150;" horiz-adv-x="729" 
d="M250 704l83 138h81l-114 -138h-50zM400 704l84 138h80l-113 -138h-51zM364 -12q-70 0 -126.5 23.5t-96 68t-60.5 108t-21 143.5q0 79 21 143t60.5 108t96 68t126.5 24t126.5 -24t96.5 -68t61 -108t21 -143q0 -80 -21 -143.5t-61 -108t-96.5 -68t-126.5 -23.5zM364 45
q118 0 178 75.5t60 210.5t-60 211t-178 76q-117 0 -177 -76.5t-60 -210.5q0 -135 59.5 -210.5t177.5 -75.5z" />
    <glyph glyph-name="ohungarumlaut" unicode="&#x151;" 
d="M285 -12q-54 0 -96.5 18t-72.5 52.5t-46 83t-16 110.5q0 126 61.5 196t169.5 70t169.5 -70t61.5 -196q0 -62 -16 -110.5t-46 -83t-72.5 -52.5t-96.5 -18zM285 40q84 0 126 55.5t42 156.5q0 103 -42 159t-126 56t-126 -56t-42 -159q0 -101 42 -156.5t126 -55.5zM321 564
l97 161h81l-127 -161h-51zM171 564l97 161h81l-128 -161h-50z" />
    <glyph glyph-name="OE" unicode="&#x152;" horiz-adv-x="1039" 
d="M601 0v111q-38 -60 -98 -91.5t-139 -31.5q-70 0 -126.5 23.5t-96 68t-60.5 108t-21 143.5q0 79 21 143t60.5 108t96 68t126.5 24q79 0 139 -31.5t98 -91.5v113h385v-55h-321v-242h303v-54h-303v-257h324v-56h-388zM601 370q0 58 -17 104.5t-48 78t-74.5 48.5t-97.5 17
q-117 0 -177 -76.5t-60 -210.5q0 -135 59.5 -210.5t177.5 -75.5q54 0 98 17t74.5 49t47.5 78.5t17 105.5v75z" />
    <glyph glyph-name="oe" unicode="&#x153;" horiz-adv-x="960" 
d="M890 133q-19 -69 -69 -107t-134 -38q-74 0 -125 32t-78 92q-26 -60 -76.5 -92t-122.5 -32q-54 0 -96.5 18t-72.5 52.5t-46 83t-16 110.5q0 126 61.5 196t169.5 70q72 0 123 -32.5t77 -93.5q28 61 79.5 93.5t122.5 32.5q53 0 92.5 -17t65.5 -49t38.5 -77.5t12.5 -101.5
l-2 -32h-377q2 -96 45 -148.5t124 -52.5q63 0 97.5 24t47.5 69h59zM285 40q84 0 126 55.5t42 156.5q0 103 -42 159t-126 56t-126 -56t-42 -159q0 -101 42 -156.5t126 -55.5zM832 289q-2 83 -34.5 130.5t-111.5 47.5q-77 0 -118.5 -46.5t-48.5 -131.5h313z" />
    <glyph glyph-name="Racute" unicode="&#x154;" horiz-adv-x="584" 
d="M214 704l83 138h81l-113 -138h-51zM472 0l-146 285h-172v-285h-64v664h216q106 0 167 -46.5t61 -137.5q0 -69 -39.5 -118t-105.5 -66l152 -296h-69zM312 339q70 0 112.5 35.5t42.5 105.5q0 128 -159 128h-154v-269h158z" />
    <glyph glyph-name="racute" unicode="&#x155;" horiz-adv-x="345" 
d="M96 0v507h56v-112q11 34 26.5 57.5t33 38t36.5 21t37 6.5q8 0 20.5 -1t26.5 -6v-53h-48q-27 0 -50 -11.5t-40 -33.5t-26.5 -54t-9.5 -73v-286h-62zM144 564l97 161h81l-128 -161h-50z" />
    <glyph glyph-name="uni0156" unicode="&#x156;" horiz-adv-x="584" 
d="M259 -221l25 165h62l-40 -165h-47zM472 0l-146 285h-172v-285h-64v664h216q106 0 166.5 -46.5t60.5 -137.5q0 -69 -39 -118t-105 -66l152 -296h-69zM312 339q70 0 112.5 35.5t42.5 105.5q0 128 -159 128h-154v-269h158z" />
    <glyph glyph-name="uni0157" unicode="&#x157;" horiz-adv-x="345" 
d="M72 -221l24 165h62l-39 -165h-47zM96 0v507h56v-112q11 34 26.5 57.5t33 38t36.5 21t37 6.5q8 0 20.5 -1t26.5 -6v-53h-48q-27 0 -50 -11.5t-40 -33.5t-26.5 -54t-9.5 -73v-286h-62z" />
    <glyph glyph-name="Rcaron" unicode="&#x158;" horiz-adv-x="584" 
d="M260 704l-108 138h51l86 -89l87 89h51l-109 -138h-58zM472 0l-146 285h-172v-285h-64v664h216q106 0 167 -46.5t61 -137.5q0 -69 -39.5 -118t-105.5 -66l152 -296h-69zM312 339q70 0 112.5 35.5t42.5 105.5q0 128 -159 128h-154v-269h158z" />
    <glyph glyph-name="rcaron" unicode="&#x159;" horiz-adv-x="345" 
d="M96 0v507h56v-112q11 34 26.5 57.5t33 38t36.5 21t37 6.5q8 0 20.5 -1t26.5 -6v-53h-48q-27 0 -50 -11.5t-40 -33.5t-26.5 -54t-9.5 -73v-286h-62zM184 564l-108 161h51l86 -109l87 109h52l-110 -161h-58z" />
    <glyph glyph-name="Sacute" unicode="&#x15a;" horiz-adv-x="581" 
d="M466 488q-3 43 -20 69t-42.5 40.5t-55 19t-56.5 4.5q-30 0 -58.5 -6.5t-51 -20.5t-36 -36t-13.5 -54q0 -50 29.5 -76t74.5 -41.5t96.5 -27t96.5 -32t74.5 -56t29.5 -98.5q0 -41 -16 -75t-47 -58.5t-76.5 -38t-104.5 -13.5q-17 0 -40.5 2.5t-50 9.5t-53 20.5t-48.5 35.5
t-36.5 54.5t-16.5 77.5h65q1 -42 17 -69.5t41.5 -44.5t57.5 -24t66 -7q37 0 69.5 6.5t56.5 21.5t37.5 39t13.5 59q0 50 -29.5 77t-74.5 42.5t-96.5 26.5t-96.5 31.5t-74.5 55.5t-29.5 99q0 45 20 78t52 54t73 31t82 10q19 0 43 -2.5t49.5 -9.5t50 -19.5t44 -33.5t32.5 -50.5
t15 -70.5h-63zM243 704l83 138h81l-114 -138h-50z" />
    <glyph glyph-name="sacute" unicode="&#x15b;" horiz-adv-x="484" 
d="M371 373q-3 32 -15.5 51.5t-30 30t-39 14t-42.5 3.5q-23 0 -44.5 -4t-38 -13.5t-26.5 -25t-10 -39.5q0 -38 23 -57.5t57 -31.5t74.5 -21t74.5 -25.5t57 -45t23 -78.5q0 -65 -51 -104t-143 -39q-21 0 -52.5 4.5t-61 19.5t-52.5 44t-27 77h59q3 -27 15.5 -45.5t31 -29.5
t41.5 -15.5t47 -4.5q57 0 95 20t38 70q0 38 -23 58.5t-57 33t-74.5 21.5t-74.5 25t-57 43t-23 76q0 35 15.5 60t41 41.5t57.5 24t64 7.5q24 0 54.5 -4.5t58 -19.5t48 -42.5t24.5 -73.5zM192 564l97 161h81l-127 -161h-51z" />
    <glyph glyph-name="Scircumflex" unicode="&#x15c;" horiz-adv-x="581" 
d="M466 488q-3 43 -20 69t-42.5 40.5t-55 19t-56.5 4.5q-30 0 -58.5 -6.5t-51 -20.5t-36 -36t-13.5 -54q0 -50 29.5 -76t74.5 -41.5t96.5 -27t96.5 -32t74.5 -56t29.5 -98.5q0 -41 -16 -75t-47 -58.5t-76.5 -38t-104.5 -13.5q-17 0 -40.5 2.5t-50 9.5t-53 20.5t-48.5 35.5
t-36.5 54.5t-16.5 77.5h65q1 -42 17 -69.5t41.5 -44.5t57.5 -24t66 -7q37 0 69.5 6.5t56.5 21.5t37.5 39t13.5 59q0 50 -29.5 77t-74.5 42.5t-96.5 26.5t-96.5 31.5t-74.5 55.5t-29.5 99q0 45 20 78t52 54t73 31t82 10q19 0 43 -2.5t49.5 -9.5t50 -19.5t44 -33.5t32.5 -50.5
t15 -70.5h-63zM382 704l-87 88l-86 -88h-51l109 138h57l110 -138h-52z" />
    <glyph glyph-name="scircumflex" unicode="&#x15d;" horiz-adv-x="484" 
d="M371 373q-3 32 -15.5 51.5t-30 30t-39 14t-42.5 3.5q-23 0 -44.5 -4t-38 -13.5t-26.5 -25t-10 -39.5q0 -38 23 -57.5t57 -31.5t74.5 -21t74.5 -25.5t57 -45t23 -78.5q0 -65 -51 -104t-143 -39q-21 0 -52.5 4.5t-61 19.5t-52.5 44t-27 77h59q3 -27 15.5 -45.5t31 -29.5
t41.5 -15.5t47 -4.5q57 0 95 20t38 70q0 38 -23 58.5t-57 33t-74.5 21.5t-74.5 25t-57 43t-23 76q0 35 15.5 60t41 41.5t57.5 24t64 7.5q24 0 54.5 -4.5t58 -19.5t48 -42.5t24.5 -73.5zM332 564l-87 109l-86 -109h-51l109 161h57l110 -161h-52z" />
    <glyph glyph-name="Scedilla" unicode="&#x15e;" horiz-adv-x="581" 
d="M201 -161q22 -11 43.5 -15.5t38.5 -4.5q23 0 42 11.5t19 38.5q0 26 -22.5 42t-69.5 16v35l16 27q-28 1 -65.5 9.5t-71.5 30.5t-58.5 60t-27.5 99h65q1 -42 17 -69.5t41.5 -44.5t57.5 -24t66 -7q37 0 69.5 6.5t56.5 21.5t37.5 39t13.5 59q0 50 -29.5 77t-74.5 42.5
t-96.5 26.5t-96.5 31.5t-74.5 55.5t-29.5 99q0 45 20 78t52 54t73 31t82 10q19 0 43 -2.5t49.5 -9.5t50 -19.5t44 -33.5t32.5 -50.5t15 -70.5h-63q-3 43 -20 69t-42.5 40.5t-55 19t-56.5 4.5q-30 0 -58.5 -6.5t-51 -20.5t-36 -36t-13.5 -54q0 -50 29.5 -76t74.5 -41.5
t96.5 -27t96.5 -32t74.5 -56t29.5 -98.5q0 -78 -56.5 -128.5t-163.5 -55.5l-19 -28q47 -5 73 -30.5t26 -63.5q0 -12 -4.5 -27.5t-16.5 -29t-32.5 -22.5t-52.5 -9q-11 0 -36.5 3.5t-50.5 15.5v41z" />
    <glyph glyph-name="scedilla" unicode="&#x15f;" horiz-adv-x="484" 
d="M147 -161q23 -11 44.5 -15.5t38.5 -4.5q23 0 42 11.5t19 38.5q0 26 -22.5 42t-69.5 16v35l16 27q-23 2 -51 9t-52.5 22.5t-42.5 43t-22 69.5h59q3 -27 15.5 -45.5t31 -29.5t41.5 -15.5t47 -4.5q57 0 95 20t38 70q0 38 -23 58.5t-57 33t-74.5 21.5t-74.5 25t-57 43t-23 76
q0 35 15.5 60t41 41.5t57.5 24t64 7.5q24 0 54.5 -4.5t58 -19.5t48 -42.5t24.5 -73.5l-57 -5q-3 32 -15.5 51.5t-30 30t-39 14t-42.5 3.5q-23 0 -44.5 -4t-38 -13.5t-26.5 -25t-10 -39.5q0 -38 23 -57.5t57 -31.5t74.5 -21t74.5 -25.5t57 -45t23 -78.5q0 -61 -45.5 -99
t-127.5 -43l-18 -28q46 -5 72 -30.5t26 -63.5q0 -12 -4.5 -27.5t-16.5 -29t-32.5 -22.5t-52.5 -9q-11 0 -36.5 3.5t-51.5 15.5v41z" />
    <glyph glyph-name="Scaron" unicode="&#x160;" horiz-adv-x="581" 
d="M466 488q-3 43 -20 69t-42.5 40.5t-55 19t-56.5 4.5q-30 0 -58.5 -6.5t-51 -20.5t-36 -36t-13.5 -54q0 -50 29.5 -76t74.5 -41.5t96.5 -27t96.5 -32t74.5 -56t29.5 -98.5q0 -41 -16 -75t-47 -58.5t-76.5 -38t-104.5 -13.5q-17 0 -40.5 2.5t-50 9.5t-53 20.5t-48.5 35.5
t-36.5 54.5t-16.5 77.5h65q1 -42 17 -69.5t41.5 -44.5t57.5 -24t66 -7q37 0 69.5 6.5t56.5 21.5t37.5 39t13.5 59q0 50 -29.5 77t-74.5 42.5t-96.5 26.5t-96.5 31.5t-74.5 55.5t-29.5 99q0 45 20 78t52 54t73 31t82 10q19 0 43 -2.5t49.5 -9.5t50 -19.5t44 -33.5t32.5 -50.5
t15 -70.5h-63zM267 704l-109 138h51l86 -89l87 89h52l-110 -138h-57z" />
    <glyph glyph-name="scaron" unicode="&#x161;" horiz-adv-x="484" 
d="M371 373q-3 32 -15.5 51.5t-30 30t-39 14t-42.5 3.5q-23 0 -44.5 -4t-38 -13.5t-26.5 -25t-10 -39.5q0 -38 23 -57.5t57 -31.5t74.5 -21t74.5 -25.5t57 -45t23 -78.5q0 -65 -51 -104t-143 -39q-21 0 -52.5 4.5t-61 19.5t-52.5 44t-27 77h59q3 -27 15.5 -45.5t31 -29.5
t41.5 -15.5t47 -4.5q57 0 95 20t38 70q0 38 -23 58.5t-57 33t-74.5 21.5t-74.5 25t-57 43t-23 76q0 35 15.5 60t41 41.5t57.5 24t64 7.5q24 0 54.5 -4.5t58 -19.5t48 -42.5t24.5 -73.5zM217 564l-109 161h51l86 -109l87 109h52l-110 -161h-57z" />
    <glyph glyph-name="uni0162" unicode="&#x162;" horiz-adv-x="552" 
d="M178 -161q23 -11 44 -15.5t38 -4.5q23 0 41.5 11.5t18.5 38.5q0 26 -22 42t-69 16v35l23 38h-8v610h-226v54h516v-54h-226v-610h-9l-26 -39q45 -5 71.5 -30.5t26.5 -63.5q0 -12 -4.5 -27.5t-16.5 -29t-32.5 -22.5t-52.5 -9q-11 0 -36.5 3.5t-50.5 15.5v41z" />
    <glyph glyph-name="uni0163" unicode="&#x163;" horiz-adv-x="322" 
d="M93 -161q23 -11 44 -15.5t38 -4.5q23 0 42.5 11.5t19.5 38.5q0 26 -23 42t-70 16v35l24 38q-22 9 -35 24.5t-19.5 36t-8.5 46t-2 54.5v293h-81v48h81v139h62v-139h131v-48h-131v-291q0 -32 3 -55t12 -37.5t25 -21.5t43 -7h48v-44q-13 -5 -30.5 -7.5t-22.5 -2.5
q-10 0 -19 0.5t-17 1.5l-19 -29q46 -5 72.5 -30.5t26.5 -63.5q0 -12 -4.5 -27.5t-16.5 -29t-33 -22.5t-53 -9q-11 0 -36.5 3.5t-50.5 15.5v41z" />
    <glyph glyph-name="Tcaron" unicode="&#x164;" horiz-adv-x="552" 
d="M244 0v610h-226v54h516v-54h-226v-610h-64zM246 704l-108 138h51l85 -89l88 89h51l-109 -138h-58z" />
    <glyph glyph-name="tcaron" unicode="&#x165;" horiz-adv-x="322" 
d="M226 564l25 166h62l-40 -166h-47zM296 -2q-13 -5 -30.5 -7.5t-22.5 -2.5q-48 0 -76 12.5t-42 35.5t-18 55t-4 70v293h-81v48h81v139h62v-139h131v-48h-131v-291q0 -32 3 -55t12 -37.5t25 -21.5t43 -7h48v-44z" />
    <glyph glyph-name="Tbar" unicode="&#x166;" horiz-adv-x="552" 
d="M244 0v300h-172v46h172v264h-226v54h516v-54h-226v-264h171v-46h-171v-300h-64z" />
    <glyph glyph-name="tbar" unicode="&#x167;" horiz-adv-x="322" 
d="M296 -2q-13 -5 -30.5 -7.5t-22.5 -2.5q-48 0 -76 12.5t-42 35.5t-18 55t-4 70v115h-81v43h81v135h-81v48h81v139h62v-139h131v-48h-131v-135h131v-43h-131v-113q0 -32 3 -55t12 -37.5t25 -21.5t43 -7h48v-44z" />
    <glyph glyph-name="Utilde" unicode="&#x168;" horiz-adv-x="666" 
d="M497 821q0 -16 -4 -32.5t-14 -30t-26 -22.5t-41 -9q-21 0 -41.5 7t-40.5 15.5t-38.5 15.5t-34.5 7q-20 0 -31.5 -8.5t-11.5 -36.5h-44q0 15 4 32t13.5 30.5t26 22.5t41.5 9q21 0 41.5 -7t40.5 -15.5t38.5 -15.5t34.5 -7q20 0 31 8.5t11 36.5h45zM522 664h62v-432
q0 -60 -18.5 -106t-51.5 -76.5t-79.5 -46t-101.5 -15.5q-57 0 -103 15.5t-79 46t-51 76.5t-18 106v432h64v-431q0 -47 13.5 -82.5t38.5 -58.5t59 -34.5t76 -11.5q88 0 138.5 46t50.5 141v431z" />
    <glyph glyph-name="utilde" unicode="&#x169;" horiz-adv-x="602" 
d="M450 0v103q-29 -60 -74.5 -87.5t-104.5 -27.5q-36 0 -67.5 9.5t-55.5 29.5t-38 51.5t-14 75.5v353h62v-343q0 -57 31 -89.5t97 -32.5q35 0 64 12t50 34t32.5 52.5t11.5 67.5v299h62v-507h-56zM464 692q0 -16 -4 -32.5t-14 -30t-26 -22.5t-41 -9q-20 0 -41 7t-41 15.5
t-38.5 15.5t-34.5 7q-20 0 -31 -8.5t-11 -36.5h-44q0 15 4 32t13.5 30.5t26 22.5t41.5 9q21 0 41.5 -7t40.5 -15.5t38.5 -15.5t33.5 -7q20 0 31.5 8.5t11.5 36.5h44z" />
    <glyph glyph-name="Umacron" unicode="&#x16a;" horiz-adv-x="666" 
d="M171 750v49h322v-49h-322zM522 664h62v-432q0 -60 -18.5 -106t-51.5 -76.5t-79.5 -46t-101.5 -15.5q-57 0 -103 15.5t-79 46t-51 76.5t-18 106v432h64v-431q0 -47 13.5 -82.5t38.5 -58.5t59 -34.5t76 -11.5q88 0 138.5 46t50.5 141v431z" />
    <glyph glyph-name="umacron" unicode="&#x16b;" horiz-adv-x="602" 
d="M450 0v103q-29 -60 -74.5 -87.5t-104.5 -27.5q-36 0 -67.5 9.5t-55.5 29.5t-38 51.5t-14 75.5v353h62v-343q0 -57 31 -89.5t97 -32.5q35 0 64 12t50 34t32.5 52.5t11.5 67.5v299h62v-507h-56zM140 620v49h322v-49h-322z" />
    <glyph glyph-name="Ubreve" unicode="&#x16c;" horiz-adv-x="666" 
d="M489 842q-8 -69 -51 -103.5t-104 -34.5t-104 34.5t-52 103.5h51q8 -47 35.5 -66.5t69.5 -19.5q41 0 69.5 19t35.5 67h50zM522 664h62v-432q0 -60 -18.5 -106t-51.5 -76.5t-79.5 -46t-101.5 -15.5q-57 0 -103 15.5t-79 46t-51 76.5t-18 106v432h64v-431q0 -47 13.5 -82.5
t38.5 -58.5t59 -34.5t76 -11.5q88 0 138.5 46t50.5 141v431z" />
    <glyph glyph-name="ubreve" unicode="&#x16d;" horiz-adv-x="602" 
d="M450 0v103q-29 -60 -74.5 -87.5t-104.5 -27.5q-36 0 -67.5 9.5t-55.5 29.5t-38 51.5t-14 75.5v353h62v-343q0 -57 31 -89.5t97 -32.5q35 0 64 12t50 34t32.5 52.5t11.5 67.5v299h62v-507h-56zM458 725q-5 -81 -49 -121t-107 -40q-64 0 -107.5 40t-49.5 121h51
q5 -59 33.5 -84t72.5 -25q43 0 72 24.5t34 84.5h50z" />
    <glyph glyph-name="Uring" unicode="&#x16e;" horiz-adv-x="666" 
d="M393 740q0 26 -17.5 44.5t-43.5 18.5t-44 -18.5t-18 -44.5t18 -43.5t44 -17.5t43.5 17.5t17.5 43.5zM434 740q0 -21 -8 -39.5t-21.5 -32t-32 -21t-39.5 -7.5t-39.5 7.5t-32.5 21t-22 32t-8 39.5t8 40t22 32.5t32.5 21.5t39.5 8t39.5 -8t32 -21.5t21.5 -32.5t8 -40z
M522 664h62v-432q0 -60 -18.5 -106t-51.5 -76.5t-79.5 -46t-101.5 -15.5q-57 0 -103 15.5t-79 46t-51 76.5t-18 106v432h64v-431q0 -47 13.5 -82.5t38.5 -58.5t59 -34.5t76 -11.5q88 0 138.5 46t50.5 141v431z" />
    <glyph glyph-name="uring" unicode="&#x16f;" horiz-adv-x="602" 
d="M450 0v103q-29 -60 -74.5 -87.5t-104.5 -27.5q-36 0 -67.5 9.5t-55.5 29.5t-38 51.5t-14 75.5v353h62v-343q0 -57 31 -89.5t97 -32.5q35 0 64 12t50 34t32.5 52.5t11.5 67.5v299h62v-507h-56zM362 662q0 27 -17.5 45t-44.5 18q-25 0 -43.5 -18.5t-18.5 -44.5t18.5 -43
t43.5 -17q27 0 44.5 17t17.5 43zM302 562q-21 0 -39.5 7.5t-32.5 21t-22 32t-8 39.5q0 22 8 40.5t22 32.5t32.5 22t39.5 8t39 -8t31.5 -22t21.5 -32.5t8 -40.5q0 -21 -8 -39.5t-21.5 -32t-31.5 -21t-39 -7.5z" />
    <glyph glyph-name="Uhungarumlaut" unicode="&#x170;" horiz-adv-x="666" 
d="M222 704l84 138h81l-114 -138h-51zM373 704l83 138h81l-114 -138h-50zM522 664h62v-432q0 -60 -18.5 -106t-51.5 -76.5t-79.5 -46t-101.5 -15.5q-57 0 -103 15.5t-79 46t-51 76.5t-18 106v432h64v-431q0 -47 13.5 -82.5t38.5 -58.5t59 -34.5t76 -11.5q88 0 138.5 46
t50.5 141v431z" />
    <glyph glyph-name="uhungarumlaut" unicode="&#x171;" horiz-adv-x="602" 
d="M450 0v103q-29 -60 -74.5 -87.5t-104.5 -27.5q-36 0 -67.5 9.5t-55.5 29.5t-38 51.5t-14 75.5v353h62v-343q0 -57 31 -89.5t97 -32.5q35 0 64 12t50 34t32.5 52.5t11.5 67.5v299h62v-507h-56zM333 564l97 161h81l-128 -161h-50zM182 564l97 161h81l-127 -161h-51z" />
    <glyph glyph-name="Uogonek" unicode="&#x172;" horiz-adv-x="666" 
d="M430 -198q-16 -7 -33 -11t-37 -4q-18 0 -34.5 4.5t-30 15t-21.5 26t-8 38.5q0 38 18.5 67t47.5 50q-57 0 -103 15.5t-78.5 46.5t-50.5 76.5t-18 105.5v432h64v-431q0 -47 13.5 -82.5t38.5 -58.5t59 -34.5t76 -11.5q88 0 138.5 46t50.5 141v431h62v-432q0 -95 -43.5 -153
t-117.5 -79q-14 -6 -31.5 -16.5t-33.5 -26t-27 -35.5t-11 -44q0 -14 5.5 -23t14 -14.5t19 -7.5t20.5 -2q12 0 26 3t25 8v-40z" />
    <glyph glyph-name="uogonek" unicode="&#x173;" horiz-adv-x="602" 
d="M506 -198q-16 -7 -33.5 -11t-37.5 -4q-37 0 -64.5 19.5t-27.5 64.5q0 48 31 83.5t76 55.5v93q-29 -60 -74.5 -87.5t-104.5 -27.5q-36 0 -67.5 9.5t-55.5 29.5t-38 51.5t-14 75.5v353h62v-343q0 -57 31 -89.5t97 -32.5q35 0 64 12t50 34t32.5 52.5t11.5 67.5v299h62v-513
q-17 -4 -36.5 -13.5t-36 -24t-27 -34.5t-10.5 -44q0 -28 18 -37.5t41 -9.5q12 0 26 3t25 8v-40z" />
    <glyph glyph-name="Wcircumflex" unicode="&#x174;" horiz-adv-x="952" 
d="M637 0l-161 574l-163 -574h-69l-221 664h70l188 -580l161 579h72l160 -578l189 579h66l-222 -664h-70zM562 704l-87 88l-86 -88h-51l108 138h58l109 -138h-51z" />
    <glyph glyph-name="wcircumflex" unicode="&#x175;" horiz-adv-x="777" 
d="M520 0l-130 427l-131 -427h-64l-172 507h67l139 -432l131 432h65l128 -432l138 432h63l-170 -507h-64zM475 564l-87 109l-86 -109h-51l109 161h57l110 -161h-52z" />
    <glyph glyph-name="Ycircumflex" unicode="&#x176;" horiz-adv-x="568" 
d="M251 0v275l-247 389h71l210 -340l210 340h68l-248 -389v-275h-64zM371 704l-88 88l-86 -88h-51l109 138h57l110 -138h-51z" />
    <glyph glyph-name="ycircumflex" unicode="&#x177;" horiz-adv-x="499" 
d="M129 -212l88 223l-194 496h65l159 -426l165 426h63l-287 -719h-59zM336 564l-88 109l-85 -109h-51l108 161h58l109 -161h-51z" />
    <glyph glyph-name="Ydieresis" unicode="&#x178;" horiz-adv-x="568" 
d="M251 0v275l-247 389h71l210 -340l210 340h68l-248 -389v-275h-64zM341 727v93h72v-93h-72zM156 727v93h72v-93h-72z" />
    <glyph glyph-name="Zacute" unicode="&#x179;" horiz-adv-x="584" 
d="M239 704l83 138h81l-114 -138h-50zM55 0v59l389 551h-374v54h444v-58l-389 -550h405v-56h-475z" />
    <glyph glyph-name="zacute" unicode="&#x17a;" horiz-adv-x="497" 
d="M60 0v48l299 410h-291v49h364v-47l-299 -410h305v-50h-378zM206 564l97 161h81l-128 -161h-50z" />
    <glyph glyph-name="Zdotaccent" unicode="&#x17b;" horiz-adv-x="584" 
d="M55 0v59l389 551h-374v54h444v-58l-389 -550h405v-56h-475zM253 725v97h78v-97h-78z" />
    <glyph glyph-name="zdotaccent" unicode="&#x17c;" horiz-adv-x="497" 
d="M60 0v48l299 410h-291v49h364v-47l-299 -410h305v-50h-378zM212 595v98h77v-98h-77z" />
    <glyph glyph-name="Zcaron" unicode="&#x17d;" horiz-adv-x="584" 
d="M55 0v59l389 551h-374v54h444v-58l-389 -550h405v-56h-475zM263 704l-109 138h51l86 -89l88 89h51l-110 -138h-57z" />
    <glyph glyph-name="zcaron" unicode="&#x17e;" horiz-adv-x="497" 
d="M221 564l-109 161h51l86 -109l88 109h51l-110 -161h-57zM60 0v48l299 410h-291v49h364v-47l-299 -410h305v-50h-378z" />
    <glyph glyph-name="florin" unicode="&#x192;" horiz-adv-x="503" 
d="M214 393h-115v46h123l31 163q10 53 40.5 85t93.5 32q17 0 39 -2t50 -7l-9 -42h-64q-19 0 -34 -2.5t-26.5 -11t-20 -23.5t-12.5 -39l-28 -153h149l-10 -46h-148l-87 -481q-11 -59 -41 -91.5t-92 -32.5q-15 0 -36 1.5t-45 6.5l9 44h53q19 0 34 3t26.5 12t19 25t12.5 43z
" />
    <glyph glyph-name="Aringacute" unicode="&#x1fa;" horiz-adv-x="665" 
d="M564 0l-79 199h-309l-77 -199h-69l260 648q-26 12 -42.5 36t-16.5 55q0 40 25 68.5t63 33.5l33 58h79l-56 -67q26 -12 42.5 -36.5t16.5 -56.5q0 -31 -16.5 -55.5t-42.5 -35.5l260 -648h-71zM331 596l-134 -342h267zM393 739q0 26 -17.5 44.5t-44.5 18.5q-25 0 -43 -18.5
t-18 -44.5t18 -43.5t43 -17.5q27 0 44.5 17.5t17.5 43.5z" />
    <glyph glyph-name="aringacute" unicode="&#x1fb;" horiz-adv-x="548" 
d="M528 -2q-17 -5 -32.5 -7.5t-26.5 -2.5q-43 0 -61 22.5t-18 81.5q-17 -30 -37.5 -50t-44 -32t-47.5 -17t-47 -5q-26 0 -54.5 6.5t-52.5 22.5t-40 43t-16 69q0 47 17.5 76.5t46.5 47t67.5 24.5t80.5 9l124 5v64q0 25 -5.5 45.5t-19.5 35.5t-39 23.5t-65 8.5q-21 0 -43.5 -4
t-41 -14.5t-31.5 -29t-16 -47.5l-58 6q3 40 23 66.5t47.5 42.5t59.5 23t60 7q100 0 145.5 -42t45.5 -108v-258q0 -40 6.5 -55t33.5 -15h39v-42zM387 248l-126 -5q-31 -1 -58 -7t-47 -18.5t-31.5 -34t-11.5 -52.5t13 -49.5t31.5 -28t39 -12t36.5 -2.5q29 0 56.5 11t49.5 32.5
t35 54t13 75.5v36zM291 760q30 -10 50 -36.5t20 -61.5q0 -21 -8 -39.5t-21.5 -32t-32 -21t-39.5 -7.5t-39.5 7.5t-32.5 21t-22 32t-8 39.5q0 37 22 64.5t55 35.5l74 122h79zM320 662q0 27 -17.5 45t-43.5 18t-44 -18.5t-18 -44.5t18 -43t44 -17t43.5 17t17.5 43z" />
    <glyph glyph-name="AEacute" unicode="&#x1fc;" horiz-adv-x="916" 
d="M588 704l83 138h81l-113 -138h-51zM478 0v199h-268l-111 -199h-69l374 664h459v-55h-321v-242h303v-54h-303v-257h324v-56h-388zM478 609h-38l-200 -355h238v355z" />
    <glyph glyph-name="aeacute" unicode="&#x1fd;" horiz-adv-x="895" 
d="M411 564l98 161h81l-128 -161h-51zM824 133q-18 -69 -68.5 -107t-133.5 -38q-79 0 -132.5 35.5t-79.5 102.5q-26 -71 -78 -104.5t-118 -33.5q-26 0 -54.5 6.5t-52.5 22.5t-40 43t-16 69q0 47 17.5 76.5t46.5 47t67.5 24.5t80.5 9l124 5v64q0 25 -5.5 45.5t-19.5 35.5
t-39 23.5t-65 8.5q-21 0 -43.5 -4t-41 -14.5t-31.5 -29t-16 -47.5l-58 6q3 40 23 66.5t47.5 42.5t59.5 23t60 7q78 0 120.5 -26.5t56.5 -70.5q30 47 77 72t110 25q53 0 92 -17t65 -49t39 -77.5t13 -101.5l-2 -32h-377q2 -96 45 -148.5t124 -52.5q63 0 97.5 24t47.5 69h58z
M387 248l-126 -5q-31 -1 -58 -7t-47 -18.5t-31.5 -34t-11.5 -52.5t13 -49.5t31.5 -28t39 -12t36.5 -2.5q29 0 56.5 11t49.5 32.5t35 54t13 75.5v36zM767 289q-2 42 -10 75t-25 56t-44.5 35t-66.5 12q-77 0 -119 -46.5t-49 -131.5h314z" />
    <glyph glyph-name="Oslashacute" unicode="&#x1fe;" horiz-adv-x="729" 
d="M90 -86l82 136q-54 44 -83 115t-29 166q0 79 21 143t60.5 108t96 68t126.5 24q93 0 160 -41l70 116h44l-83 -137q55 -45 84.5 -116t29.5 -165q0 -80 -21 -143.5t-61 -108t-96.5 -68t-126.5 -23.5q-93 0 -161 41l-69 -115h-44zM233 79q52 -34 131 -34q118 0 178 75.5
t60 210.5q0 77 -19.5 135t-58.5 95zM494 584q-54 34 -130 34q-117 0 -177 -76.5t-60 -210.5q0 -155 77 -229zM310 703l85 142h81l-115 -142h-51z" />
    <glyph glyph-name="oslashacute" unicode="&#x1ff;" 
d="M69 -66l64 106q-38 34 -58.5 87.5t-20.5 124.5q0 126 61.5 196t169.5 70q71 0 123 -32l53 88h40l-66 -108q39 -34 60 -88t21 -126q0 -62 -16 -110.5t-46 -83t-72.5 -52.5t-96.5 -18q-72 0 -124 32l-52 -86h-40zM229 564l97 161h81l-128 -161h-50zM190 67q37 -27 95 -27
q84 0 126 55.5t42 156.5q0 108 -49 163zM379 440q-38 27 -94 27q-84 0 -126 -56t-42 -159q0 -53 12 -93.5t36 -66.5z" />
    <glyph glyph-name="uni0218" unicode="&#x218;" horiz-adv-x="581" 
d="M243 -221l24 165h62l-40 -165h-46zM466 488q-3 43 -20 69t-42.5 40.5t-55 19t-56.5 4.5q-30 0 -58.5 -6.5t-51 -20.5t-36 -36t-13.5 -54q0 -50 29.5 -76t74.5 -41.5t96.5 -27t96.5 -32t74.5 -56t29.5 -98.5q0 -41 -16 -75t-47 -58.5t-76.5 -38t-104.5 -13.5
q-17 0 -40.5 2.5t-50 9.5t-53 20.5t-48.5 35.5t-36.5 54.5t-16.5 77.5h65q1 -42 17 -69.5t41.5 -44.5t57.5 -24t66 -7q37 0 69.5 6.5t56.5 21.5t37.5 39t13.5 59q0 50 -29.5 77t-74.5 42.5t-96.5 26.5t-96.5 31.5t-74.5 55.5t-29.5 99q0 45 20 78t52 54t73 31t82 10
q19 0 43 -2.5t49.5 -9.5t50 -19.5t44 -33.5t32.5 -50.5t15 -70.5h-63z" />
    <glyph glyph-name="uni0219" unicode="&#x219;" horiz-adv-x="484" 
d="M185 -221l25 165h62l-40 -165h-47zM371 373q-3 32 -15.5 51.5t-30 30t-39 14t-42.5 3.5q-23 0 -44.5 -4t-38 -13.5t-26.5 -25t-10 -39.5q0 -38 23 -57.5t57 -31.5t74.5 -21t74.5 -25.5t57 -45t23 -78.5q0 -65 -51 -104t-143 -39q-21 0 -52.5 4.5t-61 19.5t-52.5 44
t-27 77h59q3 -27 15.5 -45.5t31 -29.5t41.5 -15.5t47 -4.5q57 0 95 20t38 70q0 38 -23 58.5t-57 33t-74.5 21.5t-74.5 25t-57 43t-23 76q0 35 15.5 60t41 41.5t57.5 24t64 7.5q24 0 54.5 -4.5t58 -19.5t48 -42.5t24.5 -73.5z" />
    <glyph glyph-name="uni021A" unicode="&#x21a;" horiz-adv-x="552" 
d="M220 -221l25 165h62l-40 -165h-47zM244 0v610h-226v54h516v-54h-226v-610h-64z" />
    <glyph glyph-name="uni021B" unicode="&#x21b;" horiz-adv-x="322" 
d="M145 -221l25 165h62l-40 -165h-47zM296 -2q-13 -5 -30.5 -7.5t-22.5 -2.5q-48 0 -76 12.5t-42 35.5t-18 55t-4 70v293h-81v48h81v139h62v-139h131v-48h-131v-291q0 -32 3 -55t12 -37.5t25 -21.5t43 -7h48v-44z" />
    <glyph glyph-name="circumflex" unicode="&#x2c6;" horiz-adv-x="410" 
d="M292 564l-88 109l-86 -109h-50l108 161h58l109 -161h-51z" />
    <glyph glyph-name="caron" unicode="&#x2c7;" horiz-adv-x="410" 
d="M176 564l-108 161h50l86 -109l88 109h51l-109 -161h-58z" />
    <glyph glyph-name="breve" unicode="&#x2d8;" horiz-adv-x="448" 
d="M381 725q-3 -41 -15.5 -71t-33.5 -50t-48.5 -30t-59.5 -10q-63 0 -107 40t-49 121h50q5 -59 33.5 -84t72.5 -25t72.5 24.5t33.5 84.5h51z" />
    <glyph glyph-name="dotaccent" unicode="&#x2d9;" horiz-adv-x="212" 
d="M68 595v98h77v-98h-77z" />
    <glyph glyph-name="ring" unicode="&#x2da;" horiz-adv-x="338" 
d="M230 662q0 27 -18 45t-44 18t-44 -18.5t-18 -44.5t18 -43t44 -17t44 17t18 43zM271 662q0 -21 -8 -39.5t-22 -32t-32 -21t-39 -7.5t-40 7.5t-32.5 21t-21.5 32t-8 39.5q0 44 29.5 73.5t72.5 29.5q21 0 39 -8t32 -22t22 -32.5t8 -40.5z" />
    <glyph glyph-name="ogonek" unicode="&#x2db;" horiz-adv-x="298" 
d="M231 -198q-16 -7 -33.5 -11t-37.5 -4q-37 0 -64.5 19.5t-27.5 64.5q0 31 14 57t36.5 46.5t52 33.5t60.5 19v-33q-17 -4 -36.5 -13.5t-36 -24t-27 -34.5t-10.5 -44q0 -28 18 -37.5t41 -9.5q12 0 25.5 3t25.5 8v-40z" />
    <glyph glyph-name="tilde" unicode="&#x2dc;" horiz-adv-x="461" 
d="M394 692q0 -16 -4 -32.5t-14 -30t-26 -22.5t-41 -9q-21 0 -41.5 7t-40.5 15.5t-38.5 15.5t-34.5 7q-20 0 -31.5 -8.5t-11.5 -36.5h-43q0 15 4 32t13.5 30.5t25.5 22.5t41 9q21 0 41.5 -7t40.5 -15.5t38.5 -15.5t34.5 -7q20 0 31.5 8.5t11.5 36.5h44z" />
    <glyph glyph-name="hungarumlaut" unicode="&#x2dd;" horiz-adv-x="463" 
d="M218 564l97 161h81l-128 -161h-50zM68 564l96 161h82l-128 -161h-50z" />
    <glyph glyph-name="pi" unicode="&#x3c0;" horiz-adv-x="720" 
d="M636 -2q-11 -5 -24.5 -7.5t-20.5 -2.5q-36 0 -57 12.5t-31.5 34.5t-13 53t-2.5 68v291h-254v-447h-62v447h-87v52h552v-52h-87v-290q0 -62 10 -89.5t42 -27.5h35v-42z" />
    <glyph glyph-name="Wgrave" unicode="&#x1e80;" horiz-adv-x="952" 
d="M637 0l-161 574l-163 -574h-69l-221 664h70l188 -580l161 579h72l160 -578l189 579h66l-222 -664h-70zM458 722l-126 158h80l96 -158h-50z" />
    <glyph glyph-name="wgrave" unicode="&#x1e81;" horiz-adv-x="777" 
d="M520 0l-130 427l-131 -427h-64l-172 507h67l139 -432l131 432h65l128 -432l138 432h63l-170 -507h-64zM373 564l-127 161h80l98 -161h-51z" />
    <glyph glyph-name="Wacute" unicode="&#x1e82;" horiz-adv-x="952" 
d="M637 0l-161 574l-163 -574h-69l-221 664h70l188 -580l161 579h72l160 -578l189 579h66l-222 -664h-70zM444 722l95 158h81l-126 -158h-50z" />
    <glyph glyph-name="wacute" unicode="&#x1e83;" horiz-adv-x="777" 
d="M520 0l-130 427l-131 -427h-64l-172 507h67l139 -432l131 432h65l128 -432l138 432h63l-170 -507h-64zM354 564l97 161h81l-128 -161h-50z" />
    <glyph glyph-name="Wdieresis" unicode="&#x1e84;" horiz-adv-x="952" 
d="M637 0l-161 574l-163 -574h-69l-221 664h70l188 -580l161 579h72l160 -578l189 579h66l-222 -664h-70zM532 727v93h72v-93h-72zM347 727v93h73v-93h-73z" />
    <glyph glyph-name="wdieresis" unicode="&#x1e85;" horiz-adv-x="777" 
d="M520 0l-130 427l-131 -427h-64l-172 507h67l139 -432l131 432h65l128 -432l138 432h63l-170 -507h-64zM445 598v93h73v-93h-73zM261 598v93h72v-93h-72z" />
    <glyph glyph-name="Ygrave" unicode="&#x1ef2;" horiz-adv-x="568" 
d="M251 0v275l-247 389h71l210 -340l210 340h68l-248 -389v-275h-64zM277 722l-126 158h80l96 -158h-50z" />
    <glyph glyph-name="ygrave" unicode="&#x1ef3;" horiz-adv-x="499" 
d="M129 -212l88 223l-194 496h65l159 -426l165 426h63l-287 -719h-59zM231 564l-128 161h81l97 -161h-50z" />
    <glyph glyph-name="endash" unicode="&#x2013;" horiz-adv-x="714" 
d="M90 238v49h534v-49h-534z" />
    <glyph glyph-name="emdash" unicode="&#x2014;" horiz-adv-x="947" 
d="M90 237v49h767v-49h-767z" />
    <glyph glyph-name="quoteleft" unicode="&#x2018;" horiz-adv-x="164" 
d="M49 476q0 31 0.5 59t4 57.5t10.5 64t19 80.5h32v-261h-66z" />
    <glyph glyph-name="quoteright" unicode="&#x2019;" horiz-adv-x="164" 
d="M49 476v261h66q0 -32 -0.5 -59.5t-4 -57t-10.5 -64t-20 -80.5h-31z" />
    <glyph glyph-name="quotesinglbase" unicode="&#x201a;" horiz-adv-x="164" 
d="M49 -140v262h66q0 -32 -0.5 -59.5t-4 -57.5t-10.5 -64.5t-19 -80.5h-32z" />
    <glyph glyph-name="quotedblleft" unicode="&#x201c;" horiz-adv-x="322" 
d="M207 476q0 31 0.5 59t4 57.5t10.5 64t19 80.5h32v-261h-66zM49 476q0 31 0.5 59t4 57.5t10.5 64t19 80.5h32v-261h-66z" />
    <glyph glyph-name="quotedblright" unicode="&#x201d;" horiz-adv-x="322" 
d="M49 476v261h66q0 -32 -0.5 -59.5t-4 -57t-10.5 -64t-20 -80.5h-31zM207 476v261h66q0 -32 -0.5 -59.5t-4 -57t-10.5 -64t-20 -80.5h-31z" />
    <glyph glyph-name="quotedblbase" unicode="&#x201e;" horiz-adv-x="323" 
d="M49 -140v262h66q0 -32 -0.5 -59.5t-4 -57.5t-10.5 -64.5t-19 -80.5h-32zM207 -140v262h67q0 -32 -1 -59.5t-4.5 -57.5t-10.5 -64.5t-19 -80.5h-32z" />
    <glyph glyph-name="dagger" unicode="&#x2020;" horiz-adv-x="636" 
d="M288 -206v700h-199v55h199v205h60v-205h199v-55h-199v-700h-60z" />
    <glyph glyph-name="daggerdbl" unicode="&#x2021;" horiz-adv-x="655" 
d="M297 -206v416h-208v55h208v229h-199v55h199v205h60v-205h199v-55h-199v-229h208v-55h-208v-416h-60z" />
    <glyph glyph-name="bullet" unicode="&#x2022;" horiz-adv-x="357" 
d="M293 262q0 -23 -9 -44t-24.5 -36.5t-36 -24.5t-44.5 -9q-23 0 -44 9t-36.5 24.5t-25 36.5t-9.5 44q0 24 9.5 44.5t25 36.5t36.5 25t44 9q24 0 44.5 -9t36 -25t24.5 -36.5t9 -44.5z" />
    <glyph glyph-name="ellipsis" unicode="&#x2026;" horiz-adv-x="652" 
d="M49 0v125h67v-125h-67zM292 0v125h67v-125h-67zM535 0v125h68v-125h-68z" />
    <glyph glyph-name="perthousand" unicode="&#x2030;" horiz-adv-x="1191" 
d="M997 0q-69 0 -107.5 43t-38.5 113t38.5 113t107.5 43t107.5 -43t38.5 -113t-38.5 -113t-107.5 -43zM997 43q46 0 69 29.5t23 83.5t-23 84.5t-69 30.5t-69.5 -30.5t-23.5 -84.5t23.5 -83.5t69.5 -29.5zM194 352q-69 0 -107.5 43t-38.5 113q0 69 38.5 112.5t107.5 43.5
q70 0 108 -43.5t38 -112.5q0 -70 -38 -113t-108 -43zM194 394q46 0 69 30t23 84t-23 84t-69 30t-69 -30t-23 -84t23 -84t69 -30zM204 0l386 692h50l-387 -692h-49zM632 0q-70 0 -108 43t-38 113t38 113t108 43q69 0 107.5 -43t38.5 -113t-38.5 -113t-107.5 -43zM632 43
q46 0 69 29.5t23 83.5t-23 84.5t-69 30.5t-69.5 -30.5t-23.5 -84.5t23.5 -83.5t69.5 -29.5z" />
    <glyph glyph-name="guilsinglleft" unicode="&#x2039;" horiz-adv-x="336" 
d="M210 77l-161 184l162 188h66l-159 -188l158 -184h-66z" />
    <glyph glyph-name="guilsinglright" unicode="&#x203a;" horiz-adv-x="336" 
d="M59 77l158 184l-159 188h67l162 -188l-161 -184h-67z" />
    <glyph glyph-name="fraction" unicode="&#x2044;" horiz-adv-x="556" 
d="M38 0l421 750h59l-421 -750h-59z" />
    <glyph glyph-name="Euro" unicode="&#x20ac;" horiz-adv-x="719" 
d="M661 221q-17 -112 -82 -172.5t-174 -60.5q-113 0 -185 65t-93 184h-108v45h103q-2 12 -2 24v25t0.5 25.5t1.5 24.5h-103v45h109q22 117 95 182.5t182 65.5q111 0 176 -60t79 -168h-67q-8 82 -55.5 127t-132.5 45q-87 0 -140 -50t-71 -142h331l-6 -45h-331
q-1 -12 -1.5 -24.5t-0.5 -25.5t0.5 -25.5t1.5 -23.5h317l-6 -45h-305q17 -92 70.5 -142t140.5 -50q86 0 133.5 44.5t54.5 131.5h68z" />
    <glyph glyph-name="uni2113" unicode="&#x2113;" horiz-adv-x="322" 
d="M296 -2q-13 -5 -30.5 -7.5t-22.5 -2.5q-48 0 -76 12.5t-42 35.5t-18 55t-4 71v524h62v-523q0 -32 3 -54.5t12 -37t25 -21.5t43 -7h48v-45z" />
    <glyph glyph-name="trademark" unicode="&#x2122;" horiz-adv-x="721" 
d="M624 380v276l-116 -276h-34l-115 276v-276h-40v322h58l114 -281l116 281h59v-322h-42zM131 380v288h-107v34h260v-34h-108v-288h-45z" />
    <glyph glyph-name="Omega" unicode="&#x2126;" horiz-adv-x="778" 
d="M458 0v52q36 19 68.5 49.5t57 70.5t38.5 87.5t14 100.5q0 59 -17 108.5t-48.5 85.5t-76.5 56.5t-100 20.5q-57 0 -103 -20t-79 -56t-51 -86t-18 -109q0 -53 14 -100.5t38 -87.5t56.5 -70.5t69.5 -49.5v-52h-266v57h176q-34 23 -62.5 55.5t-49 72.5t-32 84.5t-11.5 91.5
q0 73 23 133t65 102.5t100.5 66t129.5 23.5q69 0 126 -23.5t97.5 -66t63 -102.5t22.5 -133q0 -47 -11.5 -91.5t-32.5 -84t-50 -72.5t-63 -56h178v-57h-266z" />
    <glyph glyph-name="estimated" unicode="&#x212e;" horiz-adv-x="815" 
d="M697 144q-47 -70 -122.5 -112.5t-166.5 -42.5q-72 0 -135.5 27t-110.5 74.5t-74.5 110.5t-27.5 135t27.5 135.5t74.5 110.5t110.5 74.5t135.5 27.5t135 -27t110.5 -74.5t74.5 -110.5t27 -135v-5.5t-1 -9.5h-600v-181q44 -57 110 -90.5t144 -33.5q84 0 153 39t111 104z
M661 532q-44 57 -109.5 90.5t-143.5 33.5t-144 -34t-110 -91v-181h507v182z" />
    <glyph glyph-name="onethird" unicode="&#x2153;" horiz-adv-x="863" 
d="M190 0l381 664h47l-382 -664h-46zM193 282v334l-111 -52v47l111 53h51v-382h-51zM604 181v37h43q45 0 71 17t26 55q0 27 -21 42t-58 15q-15 0 -30 -3t-27 -11.5t-19.5 -24t-7.5 -40.5h-51q0 36 14 59t34 36.5t43.5 18.5t43.5 5q57 0 92.5 -25t35.5 -70q0 -75 -74 -90
q34 -3 60 -27t26 -71q0 -48 -38.5 -79t-101.5 -31q-23 0 -48 5.5t-45 19t-33 36.5t-13 58h51q0 -23 7 -38t19 -24t28 -12.5t34 -3.5q42 0 65.5 18t23.5 53q0 42 -29.5 58.5t-77.5 16.5h-43z" />
    <glyph glyph-name="twothirds" unicode="&#x2154;" horiz-adv-x="920" 
d="M247 0l382 664h46l-381 -664h-47zM66 283v31q35 31 73.5 59t70 56t52 58t20.5 66q0 34 -18 55t-60 21q-15 0 -30.5 -3t-28 -11.5t-20.5 -23.5t-8 -40h-50q0 36 14 59t34.5 36.5t44.5 18.5t44 5q66 0 97.5 -33.5t31.5 -83.5q0 -36 -19 -68t-47 -60.5t-60 -53t-57 -45.5
h187v-43h-271zM662 181v37h42q45 0 71.5 17t26.5 55q0 27 -21 42t-59 15q-15 0 -30 -3t-27 -11.5t-19.5 -24t-7.5 -40.5h-50q0 36 13.5 59t34 36.5t43.5 18.5t43 5q57 0 92.5 -25t35.5 -70q0 -75 -73 -90q34 -3 59.5 -27t25.5 -71q0 -48 -38 -79t-101 -31q-24 0 -48.5 5.5
t-44.5 19t-33 36.5t-13 58h50q0 -23 7 -38t19 -24t28.5 -12.5t34.5 -3.5q42 0 65.5 18t23.5 53q0 42 -30 58.5t-77 16.5h-43z" />
    <glyph glyph-name="oneeighth" unicode="&#x215b;" horiz-adv-x="842" 
d="M190 0l381 664h47l-382 -664h-46zM193 282v334l-111 -52v47l111 53h51v-382h-51zM707 202q38 -7 63 -33t25 -69q0 -45 -37.5 -75.5t-103.5 -30.5q-64 0 -102 30.5t-38 75.5q0 43 26 69t63 33q-42 8 -60 32.5t-18 54.5q0 42 35.5 70t93.5 28q60 0 95.5 -28t35.5 -70
q0 -30 -18.5 -54.5t-59.5 -32.5zM745 101q0 41 -24.5 61t-66.5 20q-41 0 -65 -20t-24 -61q0 -31 23 -51.5t66 -20.5q44 0 67.5 20.5t23.5 51.5zM736 288q0 29 -20 47t-61 18q-42 0 -61.5 -18t-19.5 -47t19.5 -48t61.5 -19q41 0 61 19t20 48z" />
    <glyph glyph-name="threeeighths" unicode="&#x215c;" horiz-adv-x="885" 
d="M233 0l382 664h46l-381 -664h-47zM143 464v37h42q45 0 71.5 17t26.5 55q0 27 -21 42t-59 15q-15 0 -30 -3t-27 -11.5t-19.5 -24t-7.5 -40.5h-50q0 36 13.5 59t34 36.5t43.5 18.5t43 5q57 0 92.5 -25t35.5 -70q0 -75 -73 -90q34 -3 59.5 -27t25.5 -71q0 -48 -38 -79
t-101 -31q-24 0 -48.5 5.5t-44.5 19t-33 36.5t-13 58h50q0 -23 7 -38t19 -24t28.5 -12.5t34.5 -3.5q42 0 65.5 18t23.5 53q0 42 -30 58.5t-78 16.5h-42zM750 202q38 -7 63 -33t25 -69q0 -45 -37.5 -75.5t-102.5 -30.5t-103 30.5t-38 75.5q0 43 26 69t63 33q-41 8 -59.5 32.5
t-18.5 54.5q0 42 35.5 70t94.5 28t94.5 -28t35.5 -70q0 -30 -18 -54.5t-60 -32.5zM788 101q0 41 -24 61t-66 20t-66 -20t-24 -61q0 -31 23.5 -51.5t66.5 -20.5q44 0 67 20.5t23 51.5zM779 288q0 29 -19.5 47t-61.5 18t-61.5 -18t-19.5 -47t19.5 -48t61.5 -19t61.5 19
t19.5 48z" />
    <glyph glyph-name="fiveeighths" unicode="&#x215d;" horiz-adv-x="883" 
d="M231 0l382 664h46l-382 -664h-46zM132 622l-10 -118q23 17 45.5 22t43.5 5q62 0 93.5 -35.5t31.5 -93.5q0 -26 -10 -49t-28.5 -40t-45 -27t-59.5 -10q-23 0 -47 5.5t-43.5 19t-32 36.5t-12.5 58h49q0 -45 25.5 -61.5t59.5 -16.5q47 0 70.5 22.5t23.5 62.5
q0 42 -20.5 67.5t-62.5 25.5q-23 0 -44.5 -7.5t-44.5 -30.5l-39 2l16 205h218v-42h-177zM748 202q37 -7 62.5 -33t25.5 -69q0 -45 -37.5 -75.5t-102.5 -30.5t-103 30.5t-38 75.5q0 43 26 69t63 33q-42 8 -60 32.5t-18 54.5q0 42 35.5 70t94.5 28t94 -28t35 -70
q0 -30 -17.5 -54.5t-59.5 -32.5zM786 101q0 41 -24 61t-66 20t-66 -20t-24 -61q0 -31 23 -51.5t67 -20.5t67 20.5t23 51.5zM777 288q0 29 -19.5 47t-61.5 18t-61.5 -18t-19.5 -47t19.5 -48t61.5 -19t61.5 19t19.5 48z" />
    <glyph glyph-name="seveneighths" unicode="&#x215e;" horiz-adv-x="799" 
d="M146 0l382 664h46l-381 -664h-47zM95 282q28 86 70.5 170t97.5 170h-210v42h267v-36q-56 -82 -100.5 -170t-72.5 -176h-52zM663 202q38 -7 63.5 -33t25.5 -69q0 -45 -38 -75.5t-103 -30.5t-102.5 30.5t-37.5 75.5q0 43 25.5 69t62.5 33q-41 8 -59 32.5t-18 54.5
q0 42 35 70t94 28t94.5 -28t35.5 -70q0 -30 -18 -54.5t-60 -32.5zM701 101q0 41 -24 61t-66 20t-66 -20t-24 -61q0 -31 23 -51.5t67 -20.5t67 20.5t23 51.5zM692 288q0 29 -19.5 47t-61.5 18q-41 0 -61 -18t-20 -47t20 -48t61 -19q42 0 61.5 19t19.5 48z" />
    <glyph glyph-name="partialdiff" unicode="&#x2202;" horiz-adv-x="592" 
d="M79 606q7 47 30.5 75.5t53 44t60 20.5t52.5 5q63 0 109 -28t75.5 -74.5t44 -107t14.5 -124.5q0 -77 -18.5 -153.5t-53.5 -137.5t-86.5 -99.5t-117.5 -38.5q-85 0 -135.5 49.5t-50.5 142.5q0 57 19 101.5t50 75.5t71 47t82 16q34 0 61.5 -9t49 -23t36 -33t23.5 -38
q11 49 11 106q0 48 -9 97.5t-30.5 89t-56.5 65t-87 25.5q-23 0 -46.5 -4t-43 -15t-33.5 -30t-19 -50zM433 256q-9 24 -22 45t-31.5 36t-43.5 23.5t-58 8.5q-40 0 -70.5 -15t-51 -40.5t-31 -59.5t-10.5 -72q0 -40 10 -67.5t27 -44t40.5 -24t49.5 -7.5q40 0 72.5 21t57 53.5
t40 70.5t21.5 72z" />
    <glyph glyph-name="Delta" unicode="&#x2206;" horiz-adv-x="721" 
d="M41 0l286 664h67l286 -664h-639zM361 598l-230 -538h454z" />
    <glyph glyph-name="product" unicode="&#x220f;" horiz-adv-x="717" 
d="M563 0v643h-409v-643h-64v702h537v-702h-64z" />
    <glyph glyph-name="summation" unicode="&#x2211;" horiz-adv-x="582" 
d="M29 -56v58l240 321l-240 321v58h542v-58h-466l241 -322l-242 -320h467v-58h-542z" />
    <glyph glyph-name="minus" unicode="&#x2212;" horiz-adv-x="604" 
d="M80 236v53h444v-53h-444z" />
    <glyph glyph-name="radical" unicode="&#x221a;" horiz-adv-x="678" 
d="M340 0l-198 460h-92v40h145l181 -428l200 705h54l-220 -777h-70z" />
    <glyph glyph-name="infinity" unicode="&#x221e;" horiz-adv-x="810" 
d="M405 215q-31 -47 -77 -72.5t-88 -25.5q-25 0 -53 6.5t-52 23.5t-39.5 45t-15.5 72q0 42 15.5 70t39.5 44t52 22.5t53 6.5q42 0 88 -25.5t77 -70.5q31 45 77 70.5t89 25.5q25 0 53 -6.5t51.5 -22.5t39 -44t15.5 -70q0 -44 -15.5 -72t-39 -45t-51.5 -23.5t-53 -6.5
q-43 0 -89 25.5t-77 72.5zM431 264q17 -41 53.5 -69.5t84.5 -28.5q21 0 41 5t36 17t25.5 30.5t9.5 45.5t-10 45t-25.5 29t-35.5 16t-41 5q-48 0 -84.5 -28t-53.5 -67zM380 264q-17 39 -54 67t-84 28q-21 0 -41.5 -5t-36.5 -16t-25.5 -29t-9.5 -45t9.5 -45.5t25.5 -30.5
t36.5 -17t41.5 -5q48 0 84.5 28.5t53.5 69.5z" />
    <glyph glyph-name="integral" unicode="&#x222b;" horiz-adv-x="192" 
d="M-27 -151h69q58 0 75.5 30t3.5 90l-133 553q-21 90 16 131t118 41q13 0 32.5 -1t42.5 -3v-46h-64q-59 0 -79.5 -26.5t-3.5 -94.5l131 -547q21 -88 -17 -133.5t-120 -45.5q-8 0 -30 1t-41 3v48z" />
    <glyph glyph-name="approxequal" unicode="&#x2248;" horiz-adv-x="605" 
d="M525 346q-27 -26 -55.5 -34t-60.5 -8q-27 0 -56.5 8.5t-58 18.5t-54 18.5t-45.5 8.5q-29 0 -60 -9t-55 -39v61q24 26 53.5 34t62.5 8q28 0 57 -8.5t56.5 -19t53 -19t46.5 -8.5q30 0 60 9.5t56 39.5v-61zM525 154q-26 -26 -54.5 -34t-61.5 -8q-27 0 -56.5 8.5t-58 18.5
t-54 18.5t-45.5 8.5q-29 0 -59.5 -9t-55.5 -39v60q25 26 54.5 34t61.5 8q28 0 57 -8.5t56.5 -19t53 -19t46.5 -8.5q31 0 61 9.5t55 39.5v-60z" />
    <glyph glyph-name="notequal" unicode="&#x2260;" horiz-adv-x="606" 
d="M260 213l-124 -213h-54l124 213h-126v56h158l80 138h-238v53h269l118 204h53l-118 -204h124v-53h-155l-79 -138h234v-56h-266z" />
    <glyph glyph-name="lessequal" unicode="&#x2264;" horiz-adv-x="576" 
d="M80 327v55l416 213v-62l-351 -178l351 -179v-62zM80 0v56h416v-56h-416z" />
    <glyph glyph-name="greaterequal" unicode="&#x2265;" horiz-adv-x="576" 
d="M80 114v62l350 179l-350 178v62l416 -213v-55zM80 0v56h416v-56h-416z" />
    <glyph glyph-name="lozenge" unicode="&#x25ca;" horiz-adv-x="599" 
d="M270 0l-190 331l190 333h57l192 -333l-192 -331h-57zM459 331l-160 275l-159 -275l159 -273z" />
    <glyph glyph-name="circle" unicode="&#x25cb;" horiz-adv-x="515" 
d="M457 330q0 -41 -15.5 -77.5t-42.5 -63.5t-63.5 -42.5t-78.5 -15.5q-41 0 -77.5 15.5t-63.5 42.5t-42.5 63.5t-15.5 77.5q0 42 15.5 78.5t42.5 64t63.5 43t77.5 15.5q42 0 78.5 -15.5t63.5 -43t42.5 -64t15.5 -78.5z" />
    <glyph glyph-name="diamond" unicode="&#x2666;" horiz-adv-x="524" 
d="M261 121l-208 209l208 211l211 -211z" />
    <glyph glyph-name="uniE000" unicode="&#xe000;" horiz-adv-x="916" 
d="M472 749v49h322v-49h-322zM478 0v199h-268l-111 -199h-69l374 664h459v-55h-321v-242h303v-54h-303v-257h324v-56h-388zM478 609h-38l-200 -355h238v355z" />
    <glyph glyph-name="uniE001" unicode="&#xe001;" horiz-adv-x="244" 
d="M90 0v664h64v-664h-64z" />
    <glyph glyph-name="uniE002" unicode="&#xe002;" horiz-adv-x="654" 
d="M648 221q-17 -112 -82 -172.5t-174 -60.5q-113 0 -185 65t-93 184h-108v45h103q-2 12 -2 24v25t0.5 25.5t1.5 24.5h-103v45h109q22 117 95 182.5t182 65.5q111 0 176 -60t79 -168h-67q-8 82 -55.5 127t-132.5 45q-87 0 -140 -50t-71 -142h331l-6 -45h-331
q-1 -12 -1.5 -24.5t-0.5 -25.5t0.5 -25.5t1.5 -23.5h317l-6 -45h-305q17 -92 70.5 -142t140.5 -50q86 0 133.5 44.5t54.5 131.5h68z" />
    <glyph glyph-name="uniE003" unicode="&#xe003;" horiz-adv-x="590" 
d="M442 0l-4 105q-31 -64 -77.5 -90.5t-100.5 -26.5q-42 0 -79 15t-65.5 47.5t-45 82.5t-16.5 120t16.5 120t44.5 82.5t65.5 47.5t79.5 15q57 0 102 -26t76 -87v102h56v-507h-52zM269 40q37 0 67.5 12t52 37.5t33 66t11.5 97.5q0 115 -44 164.5t-120 49.5q-32 0 -60 -12.5
t-48.5 -38.5t-32 -66.5t-11.5 -96.5t11.5 -96.5t32 -66.5t48.5 -38t60 -12z" />
    <glyph glyph-name="uniE004" unicode="&#xe004;" horiz-adv-x="548" 
d="M195 564l97 161h81l-128 -161h-50zM442 0l-4 105q-31 -64 -77.5 -90.5t-100.5 -26.5q-42 0 -79 15t-65.5 47.5t-45 82.5t-16.5 120t16.5 120t44.5 82.5t65.5 47.5t79.5 15q57 0 102 -26t76 -87v102h56v-507h-52zM269 40q37 0 67.5 12t52 37.5t33 66t11.5 97.5
q0 115 -44 164.5t-120 49.5q-32 0 -60 -12.5t-48.5 -38.5t-32 -66.5t-11.5 -96.5t11.5 -96.5t32 -66.5t48.5 -38t60 -12z" />
    <glyph glyph-name="uniE005" unicode="&#xe005;" horiz-adv-x="548" 
d="M431 725q-5 -81 -49 -121t-107 -40q-64 0 -107.5 40t-49.5 121h51q5 -59 33.5 -84t72.5 -25q43 0 72 24.5t34 84.5h50zM442 0l-4 105q-31 -64 -77.5 -90.5t-100.5 -26.5q-42 0 -79 15t-65.5 47.5t-45 82.5t-16.5 120t16.5 120t44.5 82.5t65.5 47.5t79.5 15q57 0 102 -26
t76 -87v102h56v-507h-52zM269 40q37 0 67.5 12t52 37.5t33 66t11.5 97.5q0 115 -44 164.5t-120 49.5q-32 0 -60 -12.5t-48.5 -38.5t-32 -66.5t-11.5 -96.5t11.5 -96.5t32 -66.5t48.5 -38t60 -12z" />
    <glyph glyph-name="uniE006" unicode="&#xe006;" horiz-adv-x="548" 
d="M361 564l-87 109l-86 -109h-51l109 161h57l110 -161h-52zM442 0l-4 105q-31 -64 -77.5 -90.5t-100.5 -26.5q-42 0 -79 15t-65.5 47.5t-45 82.5t-16.5 120t16.5 120t44.5 82.5t65.5 47.5t79.5 15q57 0 102 -26t76 -87v102h56v-507h-52zM269 40q37 0 67.5 12t52 37.5t33 66
t11.5 97.5q0 115 -44 164.5t-120 49.5q-32 0 -60 -12.5t-48.5 -38.5t-32 -66.5t-11.5 -96.5t11.5 -96.5t32 -66.5t48.5 -38t60 -12z" />
    <glyph glyph-name="uniE007" unicode="&#xe007;" horiz-adv-x="299" 
d="M68 704l83 138h81l-114 -138h-50z" />
    <glyph glyph-name="uniE008" unicode="&#xe008;" horiz-adv-x="548" 
d="M331 598v93h72v-93h-72zM146 598v93h72v-93h-72zM442 0l-4 105q-31 -64 -77.5 -90.5t-100.5 -26.5q-42 0 -79 15t-65.5 47.5t-45 82.5t-16.5 120t16.5 120t44.5 82.5t65.5 47.5t79.5 15q57 0 102 -26t76 -87v102h56v-507h-52zM269 40q37 0 67.5 12t52 37.5t33 66
t11.5 97.5q0 115 -44 164.5t-120 49.5q-32 0 -60 -12.5t-48.5 -38.5t-32 -66.5t-11.5 -96.5t11.5 -96.5t32 -66.5t48.5 -38t60 -12z" />
    <glyph glyph-name="uniE009" unicode="&#xe009;" horiz-adv-x="895" 
d="M279 620v49h322v-49h-322zM824 133q-18 -69 -68.5 -107t-133.5 -38q-79 0 -132.5 35.5t-79.5 102.5q-26 -71 -78 -104.5t-118 -33.5q-26 0 -54.5 6.5t-52.5 22.5t-40 43t-16 69q0 47 17.5 76.5t46.5 47t67.5 24.5t80.5 9l124 5v64q0 25 -5.5 45.5t-19.5 35.5t-39 23.5
t-65 8.5q-21 0 -43.5 -4t-41 -14.5t-31.5 -29t-16 -47.5l-58 6q3 40 23 66.5t47.5 42.5t59.5 23t60 7q78 0 120.5 -26.5t56.5 -70.5q30 47 77 72t110 25q53 0 92 -17t65 -49t39 -77.5t13 -101.5l-2 -32h-377q2 -96 45 -148.5t124 -52.5q63 0 97.5 24t47.5 69h58zM387 248
l-126 -5q-31 -1 -58 -7t-47 -18.5t-31.5 -34t-11.5 -52.5t13 -49.5t31.5 -28t39 -12t36.5 -2.5q29 0 56.5 11t49.5 32.5t35 54t13 75.5v36zM767 289q-2 42 -10 75t-25 56t-44.5 35t-66.5 12q-77 0 -119 -46.5t-49 -131.5h314z" />
    <glyph glyph-name="uniE00A" unicode="&#xe00a;" horiz-adv-x="548" 
d="M274 564l-128 161h81l97 -161h-50zM442 0l-4 105q-31 -64 -77.5 -90.5t-100.5 -26.5q-42 0 -79 15t-65.5 47.5t-45 82.5t-16.5 120t16.5 120t44.5 82.5t65.5 47.5t79.5 15q57 0 102 -26t76 -87v102h56v-507h-52zM269 40q37 0 67.5 12t52 37.5t33 66t11.5 97.5
q0 115 -44 164.5t-120 49.5q-32 0 -60 -12.5t-48.5 -38.5t-32 -66.5t-11.5 -96.5t11.5 -96.5t32 -66.5t48.5 -38t60 -12z" />
    <glyph glyph-name="uniE00B" unicode="&#xe00b;" horiz-adv-x="548" 
d="M113 620v49h322v-49h-322zM442 0l-4 105q-31 -64 -77.5 -90.5t-100.5 -26.5q-42 0 -79 15t-65.5 47.5t-45 82.5t-16.5 120t16.5 120t44.5 82.5t65.5 47.5t79.5 15q57 0 102 -26t76 -87v102h56v-507h-52zM269 40q37 0 67.5 12t52 37.5t33 66t11.5 97.5q0 115 -44 164.5
t-120 49.5q-32 0 -60 -12.5t-48.5 -38.5t-32 -66.5t-11.5 -96.5t11.5 -96.5t32 -66.5t48.5 -38t60 -12z" />
    <glyph glyph-name="uniE00C" unicode="&#xe00c;" horiz-adv-x="548" 
d="M494 -199q-33 -14 -71 -14q-37 0 -64.5 19.5t-27.5 64.5q0 49 32 85t78 55l-3 94q-31 -64 -77.5 -90.5t-100.5 -26.5q-42 0 -79 15t-65.5 47.5t-45 82.5t-16.5 120t16.5 120t44.5 82.5t65.5 47.5t79.5 15q57 0 102 -26t76 -87v102h56v-513q-17 -4 -36.5 -13.5t-36 -24
t-27 -34.5t-10.5 -44q0 -29 18 -38t41 -9q26 0 51 11v-41zM269 40q37 0 67.5 12t52 37.5t33 66t11.5 97.5q0 115 -44 164.5t-120 49.5q-32 0 -60 -12.5t-48.5 -38.5t-32 -66.5t-11.5 -96.5t11.5 -96.5t32 -66.5t48.5 -38t60 -12z" />
    <glyph glyph-name="uniE00D" unicode="&#xe00d;" horiz-adv-x="781" 
d="M50 -9v678h681v-678h-681zM364 188l-2 22h4q7 -2 16 -3.5t17 -1.5q38 0 64.5 25t26.5 73q0 42 -19 69t-56 27q-17 0 -30 -7t-21 -24h-4l-5 29h-81v-253h90v44zM364 312q2 12 6.5 20t12.5 8q7 0 11.5 -11t4.5 -29q0 -49 -20 -49q-3 0 -6.5 2.5t-8.5 5.5v53zM268 402h60v61
h-217v-61h64v-182h93v182zM588 303h76v62h-76v37h82v61h-175v-243h93v83z" />
    <glyph glyph-name="uniE00E" unicode="&#xe00e;" horiz-adv-x="605" 
d="M525 415q-27 -26 -55.5 -34t-60.5 -8q-27 0 -56.5 8.5t-58 18.5t-54 18.5t-45.5 8.5q-29 0 -60 -9t-55 -39v61q24 26 53.5 34t62.5 8q28 0 57 -8.5t56.5 -19t53 -19t46.5 -8.5q30 0 60 9.5t56 39.5v-61zM525 223q-26 -26 -54.5 -34t-61.5 -8q-27 0 -56.5 8.5t-58 18.5
t-54 18.5t-45.5 8.5q-29 0 -59.5 -9t-55.5 -39v60q25 26 54.5 34t61.5 8q28 0 57 -8.5t56.5 -19t53 -19t46.5 -8.5q31 0 61 9.5t55 39.5v-60z" />
    <glyph glyph-name="uniE00F" unicode="&#xe00f;" horiz-adv-x="548" 
d="M336 662q0 27 -18 45t-44 18t-44 -18.5t-18 -44.5t18 -43t44 -17t44 17t18 43zM276 562q-21 0 -40 7.5t-33 21t-22 32t-8 39.5q0 22 8 40.5t22 32.5t33 22t40 8t39 -8t31.5 -22t21.5 -32.5t8 -40.5q0 -21 -8 -39.5t-21.5 -32t-31.5 -21t-39 -7.5zM442 0l-4 105
q-31 -64 -77.5 -90.5t-100.5 -26.5q-42 0 -79 15t-65.5 47.5t-45 82.5t-16.5 120t16.5 120t44.5 82.5t65.5 47.5t79.5 15q57 0 102 -26t76 -87v102h56v-507h-52zM269 40q37 0 67.5 12t52 37.5t33 66t11.5 97.5q0 115 -44 164.5t-120 49.5q-32 0 -60 -12.5t-48.5 -38.5
t-32 -66.5t-11.5 -96.5t11.5 -96.5t32 -66.5t48.5 -38t60 -12z" />
    <glyph glyph-name="uniE010" unicode="&#xe010;" horiz-adv-x="548" 
d="M442 0l-4 105q-31 -64 -77.5 -90.5t-100.5 -26.5q-42 0 -79 15t-65.5 47.5t-45 82.5t-16.5 120t16.5 120t44.5 82.5t65.5 47.5t79.5 15q57 0 102 -26t76 -87v102h56v-507h-52zM269 40q37 0 67.5 12t52 37.5t33 66t11.5 97.5q0 115 -44 164.5t-120 49.5q-32 0 -60 -12.5
t-48.5 -38.5t-32 -66.5t-11.5 -96.5t11.5 -96.5t32 -66.5t48.5 -38t60 -12zM306 760q30 -10 50 -36.5t20 -61.5q0 -21 -8 -39.5t-21.5 -32t-32 -21t-39.5 -7.5t-39.5 7.5t-32.5 21t-22 32t-8 39.5q0 37 22 64.5t55 35.5l74 122h79zM335 662q0 27 -17.5 45t-43.5 18
t-44 -18.5t-18 -44.5t18 -43t44 -17t43.5 17t17.5 43z" />
    <glyph glyph-name="uniE011" unicode="&#xe011;" horiz-adv-x="694" 
d="M68 354l39 40l212 -212v422h56v-419l211 210l41 -41l-280 -280z" />
    <glyph glyph-name="uniE012" unicode="&#xe012;" horiz-adv-x="531" 
d="M68 133v396h58v-297l297 297l40 -40l-298 -300h298v-56h-395z" />
    <glyph glyph-name="uniE013" unicode="&#xe013;" horiz-adv-x="531" 
d="M68 133v56h298l-298 300l40 40l297 -297v297h58v-396h-395z" />
    <glyph glyph-name="uniE014" unicode="&#xe014;" horiz-adv-x="666" 
d="M347 54l-279 279l279 280l41 -40l-210 -211h420v-57h-424l214 -211z" />
    <glyph glyph-name="uniE015" unicode="&#xe015;" horiz-adv-x="666" 
d="M319 54l-41 40l213 211h-423v57h419l-210 211l42 40l279 -280z" />
    <glyph glyph-name="uniE016" unicode="&#xe016;" horiz-adv-x="694" 
d="M586 284l-211 209v-419h-56v423l-212 -213l-39 40l279 280l280 -280z" />
    <glyph glyph-name="uniE017" unicode="&#xe017;" horiz-adv-x="531" 
d="M126 430v-297h-58v396h395v-56h-298l298 -299l-40 -41z" />
    <glyph glyph-name="uniE018" unicode="&#xe018;" horiz-adv-x="531" 
d="M405 133v297l-297 -297l-40 41l298 299h-298v56h395v-396h-58z" />
    <glyph glyph-name="uniE019" unicode="&#xe019;" horiz-adv-x="605" 
d="M525 318q-26 -26 -54.5 -34t-61.5 -8q-27 0 -56.5 8.5t-58 18.5t-54 18.5t-45.5 8.5q-29 0 -59.5 -9t-55.5 -39v61q25 26 54.5 34t61.5 8q28 0 57 -8.5t56.5 -19t53 -19t46.5 -8.5q31 0 61 9.5t55 39.5v-61z" />
    <glyph glyph-name="uniE01A" unicode="&#xe01a;" horiz-adv-x="900" 
d="M654 -30q-57 -30 -112 -40.5t-104 -10.5q-79 0 -148.5 26.5t-122 77.5t-83 126t-30.5 172q0 94 34 172t92.5 133t135.5 85.5t164 30.5q66 0 131 -20.5t117.5 -62.5t85 -106t32.5 -150q0 -45 -12.5 -95.5t-37 -93t-62 -70t-87.5 -27.5q-14 0 -30 3.5t-29.5 13.5t-22.5 27
t-8 44q-28 -56 -72.5 -83t-99.5 -27q-36 0 -66.5 15t-52 44t-31.5 73t-4 103q6 61 26.5 105.5t49 72.5t64 41.5t71.5 13.5q50 0 89 -27t59 -83l19 97h43l-45 -321q-3 -21 0 -34.5t10.5 -21t17.5 -10.5t22 -3q37 0 63.5 22t44 57t26 78t8.5 85q0 79 -28.5 135t-74.5 92
t-102.5 53t-113.5 17q-74 0 -142 -25.5t-120 -73.5t-83 -118.5t-31 -160.5q0 -88 27.5 -155t74 -112t107.5 -68t128 -23q57 0 110 10.5t112 44.5zM396 141q69 0 114 48.5t56 138.5q11 95 -22 143t-97 48q-29 0 -55.5 -10.5t-47.5 -33.5t-35.5 -59t-20.5 -87q-5 -48 1 -83.5
t20.5 -58.5t37 -34.5t49.5 -11.5z" />
    <glyph glyph-name="uniE01B" unicode="&#xe01b;" horiz-adv-x="548" 
d="M437 692q0 -16 -4 -32.5t-14 -30t-26 -22.5t-41 -9q-20 0 -41 7t-41 15.5t-38.5 15.5t-34.5 7q-20 0 -31 -8.5t-11 -36.5h-44q0 15 4 32t13.5 30.5t25.5 22.5t41 9q21 0 42 -7t41 -15.5t38.5 -15.5t33.5 -7q20 0 31.5 8.5t11.5 36.5h44zM442 0l-4 105
q-31 -64 -77.5 -90.5t-100.5 -26.5q-42 0 -79 15t-65.5 47.5t-45 82.5t-16.5 120t16.5 120t44.5 82.5t65.5 47.5t79.5 15q57 0 102 -26t76 -87v102h56v-507h-52zM269 40q37 0 67.5 12t52 37.5t33 66t11.5 97.5q0 115 -44 164.5t-120 49.5q-32 0 -60 -12.5t-48.5 -38.5
t-32 -66.5t-11.5 -96.5t11.5 -96.5t32 -66.5t48.5 -38t60 -12z" />
    <glyph glyph-name="uniE01C" unicode="&#xe01c;" horiz-adv-x="334" 
d="M263 -139l-253 942h61l253 -942h-61z" />
    <glyph glyph-name="uniE01D" unicode="&#xe01d;" horiz-adv-x="248" 
d="M95 -176v1014h59v-1014h-59z" />
    <glyph glyph-name="uniE01E" unicode="&#xe01e;" horiz-adv-x="369" 
d="M358 -141q-61 0 -106 8t-74.5 29.5t-44 59.5t-14.5 97v160q0 96 -79 96v44q79 0 79 95v161q0 59 14.5 96.5t44.5 59.5t75 30t106 8v-50q-48 0 -81.5 -7.5t-54.5 -25t-30 -45.5t-9 -69v-146q0 -49 -12 -83.5t-52 -42.5v-6q40 -8 52 -43t12 -85v-144q0 -41 9 -69t29.5 -45
t54 -24.5t81.5 -7.5v-51z" />
    <glyph glyph-name="uniE01F" unicode="&#xe01f;" horiz-adv-x="369" 
d="M11 -90q48 0 81.5 7.5t53.5 24.5t29 45t9 69v144q0 50 12.5 85t52.5 43v6q-40 8 -52.5 42.5t-12.5 83.5v146q0 41 -9 69t-29.5 45.5t-54 25t-81.5 7.5v50q61 0 106 -8t75 -30t44.5 -59.5t14.5 -96.5v-161q0 -95 79 -95v-44q-79 0 -79 -96v-160q0 -59 -14.5 -97t-44 -59.5
t-74.5 -29.5t-106 -8v51z" />
    <glyph glyph-name="uniE020" unicode="&#xe020;" horiz-adv-x="262" 
d="M45 -141v944h206v-50h-144v-841h145v-53h-207z" />
    <glyph glyph-name="uniE021" unicode="&#xe021;" horiz-adv-x="262" 
d="M10 -141v53h145v841h-144v50h206v-944h-207z" />
    <glyph glyph-name="uniE022" unicode="&#xe022;" horiz-adv-x="446" 
d="M379 842q-8 -69 -51 -103.5t-105 -34.5q-61 0 -104 34.5t-51 103.5h50q8 -47 35.5 -66.5t69.5 -19.5t70 19t35 67h51z" />
    <glyph glyph-name="uniE023" unicode="&#xe023;" horiz-adv-x="249" 
d="M95 415v423h59v-423h-59zM95 -176v423h59v-423h-59z" />
    <glyph glyph-name="uniE024" unicode="&#xe024;" horiz-adv-x="357" 
d="M293 330q0 -23 -9 -44t-24.5 -36.5t-36 -24.5t-44.5 -9q-23 0 -44 9t-36.5 24.5t-25 36.5t-9.5 44q0 24 9.5 44.5t25 36.5t36.5 25t44 9q24 0 44.5 -9t36 -25t24.5 -36.5t9 -44.5z" />
    <glyph glyph-name="uniE025" unicode="&#xe025;" horiz-adv-x="410" 
d="M176 704l-108 138h50l86 -89l88 89h51l-109 -138h-58z" />
    <glyph glyph-name="uniE026" unicode="&#xe026;" horiz-adv-x="654" 
d="M319 0v131q-100 8 -154.5 76.5t-54.5 186.5t56 187t153 77v129h48v-129q145 -11 176 -144l-59 -5q-13 49 -47 74.5t-93 25.5q-85 0 -127.5 -55.5t-42.5 -158.5q0 -102 42.5 -157.5t127.5 -55.5q60 0 94.5 25t47.5 74h58q-17 -68 -61 -106t-116 -44v-131h-48z" />
    <glyph glyph-name="uniE027" unicode="&#xe027;" horiz-adv-x="410" 
d="M292 704l-88 88l-86 -88h-50l108 138h58l109 -138h-51z" />
    <glyph glyph-name="uniE028" unicode="&#xe028;" horiz-adv-x="585" 
d="M458 124l-70 69q-20 -14 -44.5 -22t-50.5 -8q-27 0 -51.5 7.5t-44.5 21.5l-69 -69l-41 42l68 69q-14 20 -22 44.5t-8 51.5q0 26 8 51t22 45l-70 71l41 41l71 -71q20 14 44 22.5t51 8.5q26 0 51 -8.5t45 -23.5l70 71l42 -41l-71 -72q14 -20 22.5 -44t8.5 -50
q0 -27 -8.5 -51.5t-22.5 -44.5l71 -69zM405 329q0 23 -9 43.5t-24 35.5t-35.5 24t-43.5 9q-24 0 -44.5 -9t-36 -24t-24.5 -35.5t-9 -43.5t9 -43.5t24.5 -35.5t36 -24t43.5 -9q24 0 44.5 9t36 24t24 35.5t8.5 43.5z" />
    <glyph glyph-name="uniE029" unicode="&#xe029;" horiz-adv-x="392" 
d="M252 727v93h73v-93h-73zM68 727v93h72v-93h-72z" />
    <glyph glyph-name="uniE02A" unicode="&#xe02a;" horiz-adv-x="605" 
d="M80 302v57h445v-57h-445zM271 456v90h62v-90h-62zM271 115v89h62v-89h-62z" />
    <glyph glyph-name="uniE02B" unicode="&#xe02b;" horiz-adv-x="654" 
d="M311 -142v144q-28 1 -66 9t-73 29.5t-60.5 60.5t-28.5 102h64q2 -42 18 -70t41.5 -45t57.5 -24t66 -7q37 0 69.5 6.5t56.5 21.5t37.5 39.5t13.5 59.5q0 49 -29.5 75t-74.5 41t-96.5 26t-96.5 31t-74.5 54.5t-29.5 96.5q0 42 17.5 73.5t46.5 52.5t65.5 32.5t75.5 13.5v145
h52v-146q30 -2 64 -10.5t64 -29.5t51 -56t24 -89h-62q-3 43 -20 69.5t-42.5 41t-55 19t-56.5 4.5q-30 0 -59 -6.5t-51 -20.5t-35.5 -36t-13.5 -54q0 -48 29.5 -74t74 -41t96.5 -26.5t96.5 -31.5t74 -54.5t29.5 -96.5q0 -75 -53.5 -125t-154.5 -58v-146h-52z" />
    <glyph glyph-name="uniE02C" unicode="&#xe02c;" horiz-adv-x="213" 
d="M68 725v97h77v-97h-77z" />
    <glyph glyph-name="uniE02D" unicode="&#xe02d;" 
d="M373 351q30 -6 56.5 -20.5t46 -37t31 -53.5t11.5 -69t-16.5 -71.5t-46.5 -58t-73 -39t-97 -14.5t-97 14.5t-73 39t-46.5 58t-16.5 71.5t11.5 69t31 53.5t46 37t55.5 20.5q-65 14 -94.5 56.5t-29.5 96.5q0 36 15.5 67t43.5 54t67.5 36t86.5 13t86.5 -13t67.5 -36t43.5 -54
t15.5 -67q0 -54 -30 -96.5t-95 -56.5zM453 175q0 36 -12.5 63.5t-34.5 46.5t-53 28.5t-68 9.5q-75 0 -122 -38t-47 -110q0 -28 11.5 -52.5t33.5 -43t53.5 -29t70.5 -10.5t70.5 10.5t53 29t33 43t11.5 52.5zM436 502q0 53 -38.5 87t-112.5 34t-113 -34t-39 -87q0 -26 10 -49
t29.5 -40t48 -27t64.5 -10t64.5 10t47.5 27t29 40t10 49z" />
    <glyph glyph-name="uniE02E" unicode="&#xe02e;" horiz-adv-x="590" 
d="M383 351q30 -6 56 -20.5t46 -37t31.5 -53.5t11.5 -69t-16.5 -71.5t-47 -58t-73.5 -39t-97 -14.5q-53 0 -96 14.5t-73.5 39t-47 58t-16.5 71.5t11.5 69t31.5 53.5t46.5 37t55.5 20.5q-65 14 -95 56.5t-30 96.5q0 36 15.5 67t44 54t67.5 36t86 13q48 0 87 -13t67.5 -36
t44 -54t15.5 -67q0 -54 -30 -96.5t-95 -56.5zM463 175q0 72 -47 110t-122 38q-37 0 -68 -9.5t-53 -28.5t-34.5 -46.5t-12.5 -63.5q0 -28 11.5 -52.5t33.5 -43t53 -29t70 -10.5t70.5 10.5t53.5 29t33.5 43t11.5 52.5zM446 502q0 53 -39 87t-113 34q-73 0 -112 -34t-39 -87
q0 -26 10 -49t29.5 -40t47.5 -27t64 -10q37 0 65 10t47.5 27t29.5 40t10 49z" />
    <glyph glyph-name="uniE02F" unicode="&#xe02f;" horiz-adv-x="375" 
d="M239 114q38 -7 63.5 -33t25.5 -69q0 -45 -37.5 -75.5t-103.5 -30.5q-65 0 -102.5 30.5t-37.5 75.5q0 43 26 69t62 33q-41 8 -59 32.5t-18 54.5q0 42 35 70t94 28t94.5 -28t35.5 -70q0 -30 -18 -54.5t-60 -32.5zM277 13q0 41 -24 61t-66 20t-65.5 -20t-23.5 -61
q0 -31 23 -51.5t66 -20.5q44 0 67 20.5t23 51.5zM269 200q0 29 -20 47t-62 18q-41 0 -61 -18t-20 -47t20 -48t61 -19q42 0 62 19t20 48z" />
    <glyph glyph-name="uniE030" unicode="&#xe030;" horiz-adv-x="375" 
d="M239 634q38 -7 63.5 -33t25.5 -69q0 -45 -37.5 -75.5t-103.5 -30.5q-65 0 -102.5 30.5t-37.5 75.5q0 43 26 69t62 33q-41 8 -59 32.5t-18 54.5q0 42 35 70t94 28t94.5 -28t35.5 -70q0 -30 -18 -54.5t-60 -32.5zM277 533q0 41 -24 61t-66 20t-65.5 -20t-23.5 -61
q0 -31 23 -51.5t66 -20.5q44 0 67 20.5t23 51.5zM269 720q0 29 -20 47t-62 18q-41 0 -61 -18t-20 -47t20 -48t61 -19q42 0 62 19t20 48z" />
    <glyph glyph-name="uniE031" unicode="&#xe031;" horiz-adv-x="654" 
d="M415 351q30 -6 56 -20.5t46 -37t31.5 -53.5t11.5 -69t-16.5 -71.5t-46.5 -58t-73 -39t-97 -14.5t-97 14.5t-73 39t-46.5 58t-16.5 71.5t11.5 69t31 53.5t46 37t55.5 20.5q-65 14 -94.5 56.5t-29.5 96.5q0 36 15.5 67t43.5 54t67 36t87 13q47 0 86.5 -13t67.5 -36
t43.5 -54t15.5 -67q0 -54 -30 -96.5t-95 -56.5zM495 175q0 36 -12.5 63.5t-34.5 46.5t-53 28.5t-68 9.5q-75 0 -122 -38t-47 -110q0 -28 11.5 -52.5t33.5 -43t53.5 -29t70.5 -10.5t70.5 10.5t53 29t33 43t11.5 52.5zM478 502q0 53 -38.5 87t-112.5 34t-113 -34t-39 -87
q0 -26 10 -49t29.5 -40t48 -27t64.5 -10t64.5 10t47.5 27t29 40t10 49z" />
    <glyph glyph-name="uniE032" unicode="&#xe032;" horiz-adv-x="947" 
d="M90 306v49h767v-49h-767z" />
    <glyph glyph-name="uniE033" unicode="&#xe033;" horiz-adv-x="714" 
d="M90 306v49h534v-49h-534z" />
    <glyph glyph-name="uniE034" unicode="&#xe034;" horiz-adv-x="605" 
d="M80 401v54h445v-54h-445zM80 207v56h445v-56h-445z" />
    <glyph glyph-name="uniE035" unicode="&#xe035;" horiz-adv-x="245" 
d="M91 0v302l11 188h41l11 -188v-302h-63zM89 561v124h66v-124h-66z" />
    <glyph glyph-name="uniE036" unicode="&#xe036;" horiz-adv-x="542" 
d="M95 50q0 -42 13 -70.5t34.5 -45.5t50.5 -24t61 -7q83 0 128.5 43.5t45.5 122.5q0 75 -38.5 122t-116.5 47q-43 0 -80 -13t-80 -52l-51 3l28 350h358v-55h-307l-20 -235q42 32 82 42.5t78 10.5q51 0 90.5 -16.5t66.5 -46t40.5 -69.5t13.5 -88q0 -46 -16 -86t-46.5 -69.5
t-75 -46.5t-100.5 -17q-38 0 -77 9t-71 31.5t-52.5 61t-21.5 98.5h63z" />
    <glyph glyph-name="uniE037" unicode="&#xe037;" horiz-adv-x="590" 
d="M128 50q0 -42 13 -70.5t34.5 -45.5t50.5 -24t61 -7q83 0 128.5 43.5t45.5 122.5q0 75 -38.5 122t-116.5 47q-43 0 -80 -13t-79 -52l-52 3l28 350h357v-55h-306l-20 -235q42 32 82 42.5t78 10.5q51 0 90.5 -16.5t66.5 -46t40.5 -69.5t13.5 -88q0 -46 -16 -86t-46.5 -69.5
t-75 -46.5t-100.5 -17q-38 0 -77 9t-71 31.5t-52.5 61t-21.5 98.5h63z" />
    <glyph glyph-name="uniE038" unicode="&#xe038;" horiz-adv-x="387" 
d="M132 252l-10 -118q23 17 45.5 22t43.5 5q62 0 93.5 -35.5t31.5 -93.5q0 -26 -10 -49t-28.5 -40t-45 -27t-59.5 -10q-23 0 -47 5.5t-43.5 19t-32 36.5t-12.5 58h49q0 -45 25.5 -61.5t59.5 -16.5q47 0 70.5 22.5t23.5 62.5q0 42 -20.5 67.5t-62.5 25.5q-23 0 -44.5 -7.5
t-44.5 -30.5l-39 2l16 205h218v-42h-177z" />
    <glyph glyph-name="uniE039" unicode="&#xe039;" horiz-adv-x="387" 
d="M132 772l-10 -118q23 17 45.5 22t43.5 5q62 0 93.5 -35.5t31.5 -93.5q0 -26 -10 -49t-28.5 -40t-45 -27t-59.5 -10q-23 0 -47 5.5t-43.5 19t-32 36.5t-12.5 58h49q0 -45 25.5 -61.5t59.5 -16.5q47 0 70.5 22.5t23.5 62.5q0 42 -20.5 67.5t-62.5 25.5q-23 0 -44.5 -7.5
t-44.5 -30.5l-39 2l16 205h218v-42h-177z" />
    <glyph glyph-name="uniE03A" unicode="&#xe03a;" horiz-adv-x="654" 
d="M160 188q0 -42 13 -70.5t34.5 -45.5t50.5 -24t61 -7q83 0 128.5 43.5t45.5 122.5q0 75 -38.5 122t-116.5 47q-43 0 -80 -13t-79 -52l-52 3l28 350h358v-55h-307l-20 -235q42 32 82 42.5t78 10.5q51 0 90.5 -16.5t66.5 -46t40.5 -69.5t13.5 -88q0 -46 -16 -86t-46.5 -69.5
t-75 -46.5t-100.5 -17q-38 0 -77 9t-71 31.5t-52.5 61t-21.5 98.5h63z" />
    <glyph glyph-name="uniE03B" unicode="&#xe03b;" horiz-adv-x="654" 
d="M317 393h-115v46h123l31 163q10 53 41 85t94 32q16 0 38.5 -2t49.5 -7l-8 -42h-64q-19 0 -34.5 -2.5t-27 -11t-20 -23.5t-12.5 -39l-28 -153h149l-9 -46h-149l-87 -481q-11 -59 -40.5 -91.5t-92.5 -32.5q-14 0 -35 1.5t-45 6.5l9 44h53q19 0 34 3t26 12t19 25t13 43z" />
    <glyph glyph-name="uniE03C" unicode="&#xe03c;" 
d="M375 -138v157h-339v51l316 456h87v-454h106v-53h-106v-157h-64zM375 467l-277 -395h277v395z" />
    <glyph glyph-name="uniE03D" unicode="&#xe03d;" horiz-adv-x="590" 
d="M379 -138v157h-338v51l315 456h87v-454h106v-53h-106v-157h-64zM379 467l-277 -395h277v395z" />
    <glyph glyph-name="uniE03E" unicode="&#xe03e;" horiz-adv-x="354" 
d="M220 -88v84h-199v40l184 258h66v-258h62v-40h-62v-84h-51zM220 249l-152 -213h152v213z" />
    <glyph glyph-name="uniE03F" unicode="&#xe03f;" horiz-adv-x="354" 
d="M220 432v84h-199v40l184 258h66v-258h62v-40h-62v-84h-51zM220 769l-152 -213h152v213z" />
    <glyph glyph-name="uniE040" unicode="&#xe040;" horiz-adv-x="654" 
d="M412 0v155h-339v52l315 457h87v-455h107v-54h-107v-155h-63zM412 605l-278 -396h278v396z" />
    <glyph glyph-name="uniE041" unicode="&#xe041;" horiz-adv-x="299" 
d="M181 704l-113 138h80l84 -138h-51z" />
    <glyph glyph-name="uniE042" unicode="&#xe042;" horiz-adv-x="576" 
d="M80 64v61l352 205l-352 206v61l416 -239v-55z" />
    <glyph glyph-name="uniE043" unicode="&#xe043;" horiz-adv-x="576" 
d="M80 114v62l350 179l-350 178v62l416 -213v-55zM80 0v56h416v-56h-416z" />
    <glyph glyph-name="uniE044" unicode="&#xe044;" horiz-adv-x="582" 
d="M210 145l-161 184l162 188h66l-159 -188l158 -184h-66zM457 145l-161 184l162 188h66l-159 -188l158 -184h-66z" />
    <glyph glyph-name="uniE045" unicode="&#xe045;" horiz-adv-x="553" 
d="M277 145l159 184l-160 188h66l162 -188l-161 -184h-66zM59 145l158 184l-159 188h67l162 -188l-161 -184h-67z" />
    <glyph glyph-name="uniE046" unicode="&#xe046;" horiz-adv-x="336" 
d="M210 145l-161 184l162 188h66l-159 -188l158 -184h-66z" />
    <glyph glyph-name="uniE047" unicode="&#xe047;" horiz-adv-x="337" 
d="M60 145l158 184l-159 188h67l162 -188l-161 -184h-67z" />
    <glyph glyph-name="uniE048" unicode="&#xe048;" horiz-adv-x="450" 
d="M68 704l83 138h81l-114 -138h-50zM218 704l83 138h81l-114 -138h-50z" />
    <glyph glyph-name="uniE049" unicode="&#xe049;" horiz-adv-x="562" 
d="M90 306v49h382v-49h-382z" />
    <glyph glyph-name="uniE04A" unicode="&#xe04a;" horiz-adv-x="254" 
d="M96 0v507h62v-507h-62zM93 618v79h68v-79h-68z" />
    <glyph glyph-name="uniE04B" unicode="&#xe04b;" horiz-adv-x="810" 
d="M405 284q-31 -48 -77 -73t-88 -25q-25 0 -53 6.5t-52 23t-39.5 44.5t-15.5 72q0 42 15.5 70t39.5 44.5t52 23t53 6.5q42 0 88 -26t77 -71q31 45 77 71t89 26q25 0 53 -6.5t51.5 -23t39 -44.5t15.5 -70q0 -44 -15.5 -72t-39 -44.5t-51.5 -23t-53 -6.5q-43 0 -89 25t-77 73
zM431 332q17 -40 53.5 -69t84.5 -29q21 0 41 5t36 17t25.5 30.5t9.5 45.5t-10 45t-25.5 29t-35.5 16t-41 5q-48 0 -84.5 -28t-53.5 -67zM380 332q-17 39 -54 67t-84 28q-21 0 -41.5 -5t-36.5 -16t-25.5 -29t-9.5 -45t9.5 -45.5t25.5 -30.5t36.5 -17t41.5 -5q48 0 84.5 29
t53.5 69z" />
    <glyph glyph-name="uniE04C" unicode="&#xe04c;" horiz-adv-x="576" 
d="M80 303v55l416 239v-61l-353 -206l353 -205v-61z" />
    <glyph glyph-name="uniE04D" unicode="&#xe04d;" horiz-adv-x="576" 
d="M80 327v55l416 213v-62l-351 -178l351 -179v-62zM80 0v56h416v-56h-416z" />
    <glyph glyph-name="uniE04E" unicode="&#xe04e;" horiz-adv-x="605" 
d="M469 215v175h-389v56h445v-231h-56z" />
    <glyph glyph-name="uniE04F" unicode="&#xe04f;" horiz-adv-x="599" 
d="M270 0l-190 331l190 333h57l192 -333l-192 -331h-57zM459 331l-160 275l-159 -275l159 -273z" />
    <glyph glyph-name="uniE050" unicode="&#xe050;" horiz-adv-x="457" 
d="M68 749v49h321v-49h-321z" />
    <glyph glyph-name="uniE051" unicode="&#xe051;" horiz-adv-x="604" 
d="M80 304v53h444v-53h-444z" />
    <glyph glyph-name="uniE052" unicode="&#xe052;" horiz-adv-x="616" 
d="M497 104l-189 188l-189 -190l-39 39l190 189l-190 191l38 39l190 -192l190 190l38 -38l-190 -189l189 -189z" />
    <glyph glyph-name="uniE053" unicode="&#xe053;" horiz-adv-x="587" 
d="M137 2q0 -49 36.5 -73.5t97.5 -24.5q45 0 80.5 16.5t60 53t38 93.5t13.5 138q-33 -49 -84.5 -76t-116.5 -27q-50 0 -88 16.5t-64.5 46t-40 69t-13.5 86.5q0 45 16 85t46 69.5t72.5 46.5t94.5 17q60 0 105.5 -24t76 -66.5t45.5 -102t15 -129.5q0 -95 -19 -164
t-53.5 -113.5t-82 -66t-103.5 -21.5q-41 0 -76.5 10t-61.5 29t-41 47t-15 65h62zM462 266q0 41 -11 80.5t-32.5 70t-54.5 49t-77 18.5q-80 0 -123.5 -45.5t-43.5 -117.5q0 -37 9.5 -67.5t28 -53t46.5 -35t65 -12.5q53 0 101 23.5t92 89.5z" />
    <glyph glyph-name="uniE054" unicode="&#xe054;" horiz-adv-x="590" 
d="M140 2q0 -49 36.5 -73.5t97.5 -24.5q45 0 80.5 16.5t60.5 53t38 93.5t13 138q-33 -49 -84.5 -76t-116.5 -27q-50 0 -88 16.5t-64 46t-39.5 69t-13.5 86.5q0 45 16 85t46 69.5t72 46.5t94 17q61 0 106.5 -24t75.5 -66.5t45 -102t15 -129.5q0 -95 -19 -164t-53.5 -113.5
t-82 -66t-103.5 -21.5q-41 0 -76 10t-61 29t-41 47t-15 65h61zM466 266q0 41 -11 80.5t-33 70t-55 49t-77 18.5q-80 0 -123.5 -45.5t-43.5 -117.5q0 -37 9.5 -67.5t28 -53t46.5 -35t65 -12.5q53 0 101.5 23.5t92.5 89.5z" />
    <glyph glyph-name="uniE055" unicode="&#xe055;" horiz-adv-x="382" 
d="M115 -1q0 -27 18.5 -40t49.5 -13q51 0 78.5 36.5t28.5 121.5q-19 -29 -48 -44.5t-65 -15.5q-60 0 -91 36.5t-31 93.5q0 25 9.5 47.5t27.5 40t43.5 27.5t57.5 10q37 0 64.5 -13.5t45.5 -38.5t27 -59t9 -75q0 -108 -43.5 -157.5t-112.5 -49.5q-50 0 -83.5 23.5t-33.5 69.5
h49zM290 147q0 21 -6 41t-18 35.5t-30 25t-42 9.5q-43 0 -66 -23.5t-23 -60.5q0 -42 19 -67t60 -25q29 0 55.5 13.5t50.5 51.5z" />
    <glyph glyph-name="uniE056" unicode="&#xe056;" horiz-adv-x="382" 
d="M115 519q0 -27 18.5 -40t49.5 -13q51 0 78.5 36.5t28.5 121.5q-19 -29 -48 -44.5t-65 -15.5q-60 0 -91 36.5t-31 93.5q0 25 9.5 47.5t27.5 40t43.5 27.5t57.5 10q37 0 64.5 -13.5t45.5 -38.5t27 -59t9 -75q0 -108 -43.5 -157.5t-112.5 -49.5q-50 0 -83.5 23.5t-33.5 69.5
h49zM290 667q0 21 -6 41t-18 35.5t-30 25t-42 9.5q-43 0 -66 -23.5t-23 -60.5q0 -42 19 -67t60 -25q29 0 55.5 13.5t50.5 51.5z" />
    <glyph glyph-name="uniE057" unicode="&#xe057;" horiz-adv-x="654" 
d="M173 138q0 -49 36 -73.5t97 -24.5q45 0 81 16.5t60.5 53t38 93.5t13.5 138q-34 -48 -85.5 -75.5t-115.5 -27.5q-50 0 -88.5 17t-64.5 46t-39.5 69t-13.5 86q0 45 16 85t46 69.5t72.5 46.5t94.5 17q60 0 105.5 -24t76 -66.5t45.5 -102t15 -129.5q0 -95 -19 -163.5
t-53.5 -113t-82 -66t-104.5 -21.5q-41 0 -76 9.5t-61 28.5t-41 47t-15 65h62zM498 402q0 41 -11 80.5t-33 70t-55 49.5t-77 19q-80 0 -123 -46t-43 -118q0 -37 9 -67.5t27.5 -53t46.5 -35t65 -12.5q53 0 101.5 23.5t92.5 89.5z" />
    <glyph glyph-name="uniE058" unicode="&#xe058;" horiz-adv-x="606" 
d="M260 213l-124 -213h-54l124 213h-126v56h158l80 138h-238v53h269l118 204h53l-118 -204h124v-53h-155l-79 -138h234v-56h-266z" />
    <glyph glyph-name="uniE059" unicode="&#xe059;" horiz-adv-x="762" 
d="M434 0l24 204h-176l-25 -204h-51l25 204h-156v49h162l20 164h-144v49h151l25 198h51l-25 -198h177l25 198h51l-25 -198h144v-49h-150l-21 -164h133v-49h-139l-25 -204h-51zM485 417h-176l-21 -164h177z" />
    <glyph glyph-name="uniE05A" unicode="&#xe05a;" horiz-adv-x="1075" 
d="M716 200v37h302v-37h-302zM867 286q-34 0 -62 12t-47.5 33.5t-30.5 50.5t-11 62t11 62t30.5 50.5t47.5 34.5t62 13t62 -12.5t47.5 -34.5t30.5 -51t11 -62t-11 -61.5t-30.5 -50t-47.5 -34t-62 -12.5zM867 328q47 0 73 32.5t26 83.5t-26 84t-73 33t-73.5 -33t-26.5 -84
t27 -83.5t73 -32.5zM529 0l-375 569v-569h-64v664h75l380 -581v581h64v-664h-80z" />
    <glyph glyph-name="uniE05B" unicode="&#xe05b;" horiz-adv-x="502" 
d="M48 0v56h176v406l-176 -89v61l177 92h63v-470h175v-56h-415z" />
    <glyph glyph-name="uniE05C" unicode="&#xe05c;" horiz-adv-x="590" 
d="M87 0v56h176v406l-176 -89v61l177 92h63v-470h175v-56h-415z" />
    <glyph glyph-name="uniE05D" unicode="&#xe05d;" horiz-adv-x="331" 
d="M193 -88v334l-111 -52v47l111 53h51v-382h-51z" />
    <glyph glyph-name="uniE05E" unicode="&#xe05e;" horiz-adv-x="331" 
d="M193 432v334l-111 -52v47l111 53h51v-382h-51z" />
    <glyph glyph-name="uniE05F" unicode="&#xe05f;" horiz-adv-x="654" 
d="M383 0v599l-176 -89v62l177 92h63v-664h-64z" />
    <glyph glyph-name="uniE060" unicode="&#xe060;" horiz-adv-x="246" 
d="M180 -141q-66 99 -103 220.5t-37 250.5q0 133 38 253t107 220h51q-26 -43 -49.5 -95.5t-41 -112.5t-28 -127t-10.5 -138q0 -69 9.5 -135t26.5 -126.5t39.5 -113.5t48.5 -96h-51z" />
    <glyph glyph-name="uniE061" unicode="&#xe061;" horiz-adv-x="246" 
d="M15 -141q26 43 48.5 96t39.5 113.5t26.5 126.5t9.5 135q0 71 -10 138t-27.5 127t-41 112.5t-50.5 95.5h51q69 -100 107 -220t38 -253q0 -129 -37 -250.5t-103 -220.5h-51z" />
    <glyph glyph-name="uniE062" unicode="&#xe062;" horiz-adv-x="270" 
d="M62 257v147h145v-147h-145z" />
    <glyph glyph-name="uniE063" unicode="&#xe063;" horiz-adv-x="605" 
d="M330 303v-195h-56v195h-194v54h194v196h56v-196h195v-54h-195z" />
    <glyph glyph-name="uniE064" unicode="&#xe064;" horiz-adv-x="605" 
d="M274 111v198h-194v54h194v198h56v-198h195v-54h-195v-198h-56zM80 0v54h445v-54h-445z" />
    <glyph glyph-name="uniE065" unicode="&#xe065;" horiz-adv-x="460" 
d="M443 159q-3 -53 -26 -84.5t-54 -48.5t-64 -22.5t-56 -5.5q-39 0 -74 8.5t-62 28t-43 50t-16 75.5q0 42 15 71t37 51.5t48.5 42t48.5 43t37 53.5t15 73h57q0 -46 -14.5 -80t-36.5 -60t-48 -47.5t-48 -43t-36.5 -45.5t-14.5 -55q0 -32 11.5 -53t30 -34t43 -18.5t50.5 -5.5
q19 0 42.5 3t44.5 13.5t37 32t19 58.5h57zM244 561v124h66v-124h-66z" />
    <glyph glyph-name="uniE066" unicode="&#xe066;" horiz-adv-x="519" 
d="M68 137v388h383v-388h-383z" />
    <glyph glyph-name="uniE067" unicode="&#xe067;" horiz-adv-x="338" 
d="M230 740q0 26 -18 44.5t-44 18.5t-44 -18.5t-18 -44.5t18 -43.5t44 -17.5t44 17.5t18 43.5zM271 740q0 -21 -8 -39.5t-22 -32t-32 -21t-39 -7.5t-40 7.5t-32.5 21t-21.5 32t-8 39.5q0 43 29.5 72.5t72.5 29.5q21 0 39 -8t32 -21.5t22 -32.5t8 -40z" />
    <glyph glyph-name="uniE068" unicode="&#xe068;" horiz-adv-x="475" 
d="M86 -138q50 153 125 304t173 305h-382v55h452v-52q-100 -150 -175.5 -303.5t-124.5 -308.5h-68z" />
    <glyph glyph-name="uniE069" unicode="&#xe069;" horiz-adv-x="590" 
d="M152 -138q51 153 126 304t173 305h-382v55h452v-52q-100 -150 -175.5 -303.5t-124.5 -308.5h-69z" />
    <glyph glyph-name="uniE06A" unicode="&#xe06a;" horiz-adv-x="378" 
d="M95 -88q28 86 70.5 170t97.5 170h-210v42h267v-36q-56 -82 -100.5 -170t-72.5 -176h-52z" />
    <glyph glyph-name="uniE06B" unicode="&#xe06b;" horiz-adv-x="378" 
d="M95 432q28 86 70.5 170t97.5 170h-210v42h267v-36q-56 -82 -100.5 -170t-72.5 -176h-52z" />
    <glyph glyph-name="uniE06C" unicode="&#xe06c;" horiz-adv-x="654" 
d="M185 0q50 153 125 304t174 305h-383v55h452v-52q-100 -150 -175 -303.5t-125 -308.5h-68z" />
    <glyph glyph-name="uniE06D" unicode="&#xe06d;" horiz-adv-x="587" 
d="M449 525q0 48 -35.5 72.5t-94.5 24.5q-46 0 -82 -16.5t-61 -53t-38.5 -93.5t-13.5 -138q33 48 84.5 75.5t115.5 27.5q50 0 88.5 -17t65 -46.5t40 -69.5t13.5 -87q0 -45 -16 -84t-46 -68.5t-72.5 -46.5t-94.5 -17q-60 0 -105.5 23.5t-76 66.5t-45.5 102t-15 130
q0 95 19 164t53.5 113.5t82.5 65.5t105 21q40 0 74.5 -10t60 -28.5t40.5 -46.5t15 -64h-61zM124 259q0 -41 11 -80.5t33 -70t55 -49t78 -18.5q39 0 70 12t52.5 33.5t32.5 51.5t11 65q0 75 -37 122.5t-112 47.5q-26 0 -51.5 -5.5t-49.5 -18.5t-47.5 -35t-45.5 -55z" />
    <glyph glyph-name="uniE06E" unicode="&#xe06e;" horiz-adv-x="590" 
d="M449 525q0 48 -35.5 72.5t-94.5 24.5q-46 0 -82 -16.5t-61 -53t-38.5 -93.5t-14.5 -138q34 48 85 75.5t116 27.5q50 0 88.5 -17t64.5 -46.5t39.5 -69.5t13.5 -87q0 -45 -16 -84t-46 -68.5t-72 -46.5t-94 -17q-60 0 -105.5 23.5t-76 66.5t-45.5 102t-15 130q0 95 19 164
t53.5 113.5t82.5 65.5t105 21q40 0 74.5 -10t60 -28.5t40.5 -46.5t15 -64h-61zM124 259q0 -41 11 -80.5t33 -70t55 -49t77 -18.5q40 0 71 12t52 33.5t32 51.5t11 65q0 75 -36.5 122.5t-111.5 47.5q-53 0 -101.5 -23.5t-92.5 -90.5z" />
    <glyph glyph-name="uniE06F" unicode="&#xe06f;" horiz-adv-x="382" 
d="M266 209q0 25 -18.5 37.5t-48.5 12.5q-51 0 -78.5 -36.5t-28.5 -122.5q19 29 48 45t65 16q60 0 91 -36.5t31 -93.5q0 -25 -10 -47.5t-28 -40t-43.5 -27.5t-56.5 -10q-37 0 -64.5 13.5t-45.5 38t-27 58.5t-9 75q0 109 43.5 158.5t112.5 49.5q49 0 83 -22.5t34 -67.5h-50z
M92 57q0 -21 6 -41t18 -35t30 -24.5t42 -9.5q43 0 66 23.5t23 60.5q0 42 -19.5 67t-60.5 25q-28 0 -55 -14t-50 -52z" />
    <glyph glyph-name="uniE070" unicode="&#xe070;" horiz-adv-x="382" 
d="M266 729q0 25 -18.5 37.5t-48.5 12.5q-51 0 -78.5 -36.5t-28.5 -122.5q19 29 48 45t65 16q60 0 91 -36.5t31 -93.5q0 -25 -10 -47.5t-28 -40t-43.5 -27.5t-56.5 -10q-37 0 -64.5 13.5t-45.5 38t-27 58.5t-9 75q0 109 43.5 158.5t112.5 49.5q49 0 83 -22.5t34 -67.5h-50z
M92 577q0 -21 6 -41t18 -35t30 -24.5t42 -9.5q43 0 66 23.5t23 60.5q0 42 -19.5 67t-60.5 25q-28 0 -55 -14t-50 -52z" />
    <glyph glyph-name="uniE071" unicode="&#xe071;" horiz-adv-x="654" 
d="M481 525q0 48 -35.5 72.5t-94.5 24.5q-46 0 -82 -16.5t-61 -53t-38.5 -93.5t-13.5 -138q33 48 84.5 75.5t115.5 27.5q50 0 88.5 -17t65 -46.5t40 -69.5t13.5 -87q0 -45 -16.5 -84t-46.5 -68.5t-72 -46.5t-94 -17q-60 0 -105.5 23.5t-76 66.5t-45.5 102t-15 130
q0 95 19 164t53.5 113.5t82.5 65.5t105 21q40 0 74.5 -10t60 -28.5t40.5 -46.5t15 -64h-61zM156 259q0 -41 11 -80.5t33 -70t55 -49t78 -18.5q39 0 70 12t52.5 33.5t32.5 51.5t11 65q0 75 -37 122.5t-112 47.5q-26 0 -51.5 -5.5t-49.5 -18.5t-47.5 -35t-45.5 -55z" />
    <glyph glyph-name="uniE072" unicode="&#xe072;" horiz-adv-x="334" 
d="M10 -140l253 941h61l-253 -941h-61z" />
    <glyph glyph-name="uniE073" unicode="&#xe073;" horiz-adv-x="548" 
d="M273 221l-135 -100l51 160l-136 99h168l52 161l53 -161h169l-137 -99l52 -160z" />
    <glyph glyph-name="uniE074" unicode="&#xe074;" horiz-adv-x="654" 
d="M111 0v59q59 51 80 95t21 86q0 15 -2.5 30t-6.5 30h-92v49h77q-11 32 -19.5 65.5t-8.5 71.5q0 39 11 74.5t35.5 61.5t62.5 41.5t92 15.5q22 0 53 -5t59 -20.5t47.5 -45.5t19.5 -79h-59q0 28 -10.5 46.5t-27.5 29t-38.5 15t-44.5 4.5q-37 0 -62.5 -10t-41.5 -27.5t-23 -42
t-7 -53.5q0 -42 8 -76.5t19 -65.5h247v-49h-232q5 -16 7.5 -31t2.5 -30q0 -36 -20.5 -81.5t-77.5 -102.5h362v-55h-431z" />
    <glyph glyph-name="uniE075" unicode="&#xe075;" horiz-adv-x="546" 
d="M175 186v50h60q85 0 133.5 32t48.5 102q0 56 -39 85.5t-110 29.5q-28 0 -55.5 -5.5t-50 -21.5t-36.5 -45t-15 -75h-63q1 60 23.5 98.5t55.5 61t71 31.5t70 9q46 0 85 -11.5t67 -32.5t43.5 -51.5t15.5 -69.5q0 -65 -34 -104.5t-100 -52.5q30 -3 58 -15t49 -33t34 -52
t13 -71q0 -42 -16.5 -78t-46.5 -61.5t-72.5 -40t-94.5 -14.5q-39 0 -79 9t-73 32t-54 61.5t-22 98.5h63q0 -43 13.5 -71t36 -45t52 -24t63.5 -7q78 0 121.5 36t43.5 105q0 39 -14.5 66t-41 43.5t-63 23.5t-79.5 7h-61z" />
    <glyph glyph-name="uniE076" unicode="&#xe076;" horiz-adv-x="590" 
d="M199 186v50h61q85 0 133.5 32t48.5 102q0 56 -39 85.5t-110 29.5q-28 0 -55.5 -5.5t-50 -21.5t-36.5 -45t-15 -75h-63q1 60 23.5 98.5t55.5 61t71 31.5t70 9q46 0 85 -11.5t66.5 -32.5t43 -51.5t15.5 -69.5q0 -131 -134 -157q30 -3 58 -15t49.5 -33t34 -52t12.5 -71
q0 -42 -16 -78t-46 -61.5t-72.5 -40t-94.5 -14.5q-39 0 -79 9t-73 32t-54 61.5t-22 98.5h63q0 -43 13.5 -71t36 -45t52 -24t63.5 -7q78 0 121.5 36t43.5 105q0 39 -14.5 66t-41 43.5t-63 23.5t-79.5 7h-62z" />
    <glyph glyph-name="uniE077" unicode="&#xe077;" horiz-adv-x="401" 
d="M143 93v37h42q45 0 71.5 17t26.5 55q0 27 -21 42t-59 15q-15 0 -30 -3t-27 -11.5t-19.5 -24t-7.5 -40.5h-50q0 36 13.5 59t34 36.5t43.5 18.5t43 5q57 0 92.5 -25t35.5 -70q0 -75 -73 -90q34 -3 59.5 -27t25.5 -71q0 -48 -38 -79t-101 -31q-24 0 -48.5 5.5t-44.5 19
t-33 36.5t-13 58h50q0 -23 7 -38t19 -24t28.5 -12.5t34.5 -3.5q42 0 65.5 18t23.5 53q0 42 -30 58.5t-78 16.5h-42z" />
    <glyph glyph-name="uniE078" unicode="&#xe078;" horiz-adv-x="401" 
d="M143 613v37h42q45 0 71.5 17t26.5 55q0 27 -21 42t-59 15q-15 0 -30 -3t-27 -11.5t-19.5 -24t-7.5 -40.5h-50q0 36 13.5 59t34 36.5t43.5 18.5t43 5q57 0 92.5 -25t35.5 -70q0 -75 -73 -90q34 -3 59.5 -27t25.5 -71q0 -48 -38 -79t-101 -31q-24 0 -48.5 5.5t-44.5 19
t-33 36.5t-13 58h50q0 -23 7 -38t19 -24t28.5 -12.5t34.5 -3.5q42 0 65.5 18t23.5 53q0 42 -30 58.5t-78 16.5h-42z" />
    <glyph glyph-name="uniE079" unicode="&#xe079;" horiz-adv-x="654" 
d="M232 322v51h60q85 0 134 31.5t49 101.5q0 56 -39 85.5t-111 29.5q-28 0 -55.5 -5.5t-50 -21.5t-36.5 -44.5t-14 -74.5h-64q1 60 23.5 98.5t55.5 61t71 31t70 8.5q46 0 85 -11.5t67 -32.5t43.5 -51.5t15.5 -69.5q0 -64 -34 -104t-100 -53q30 -3 58 -15t49 -33t34 -51.5
t13 -70.5q0 -42 -16.5 -78t-46.5 -61.5t-72.5 -40t-94.5 -14.5q-39 0 -79 9t-73 31.5t-54 61t-22 98.5h64q0 -42 13 -70.5t35.5 -45t52 -23.5t63.5 -7q78 0 122 35.5t44 105.5q0 39 -15 65.5t-41 43t-63 23.5t-80 7h-61z" />
    <glyph glyph-name="uniE07A" unicode="&#xe07a;" horiz-adv-x="461" 
d="M394 821q0 -16 -4 -32.5t-14 -30t-26 -22.5t-41 -9q-21 0 -41.5 7t-40.5 15.5t-38.5 15.5t-34.5 7q-20 0 -31.5 -8.5t-11.5 -36.5h-43q0 15 4 32t13.5 30.5t25.5 22.5t41 9q21 0 41.5 -7t40.5 -15.5t38.5 -15.5t34.5 -7q20 0 31.5 8.5t11.5 36.5h44z" />
    <glyph glyph-name="uniE07B" unicode="&#xe07b;" horiz-adv-x="577" 
d="M46 0v47q83 40 152.5 73t120 66.5t79 71.5t28.5 89q0 60 -36 99t-118 39q-27 0 -55.5 -5.5t-51.5 -21.5t-38 -45t-16 -75h-63q1 60 23.5 99t56 61.5t72.5 31t72 8.5q54 0 94.5 -15t67 -41t40 -60.5t13.5 -74.5q0 -55 -27.5 -97t-72.5 -76.5t-101.5 -62.5t-113.5 -55h368
v-56h-494z" />
    <glyph glyph-name="uniE07C" unicode="&#xe07c;" horiz-adv-x="590" 
d="M48 0v47q83 40 152.5 73t120 66.5t79 71.5t28.5 89q0 60 -36 99t-118 39q-27 0 -55.5 -5.5t-51.5 -21.5t-38 -45t-15 -75h-64q1 60 23.5 99t56.5 61.5t72.5 31t71.5 8.5q54 0 94.5 -15t67 -41t40 -60.5t13.5 -74.5q0 -55 -27.5 -97t-72.5 -76.5t-101.5 -62.5t-113.5 -55
h368v-56h-494z" />
    <glyph glyph-name="uniE07D" unicode="&#xe07d;" horiz-adv-x="386" 
d="M66 -88v31q35 31 73.5 59t70 56t52 58t20.5 66q0 34 -18 55t-60 21q-15 0 -30.5 -3t-28 -11.5t-20.5 -23.5t-8 -40h-50q0 36 14 59t34.5 36.5t44.5 18.5t44 5q66 0 97.5 -33.5t31.5 -83.5q0 -36 -19 -68t-47 -60.5t-60 -53t-57 -45.5h187v-43h-271z" />
    <glyph glyph-name="uniE07E" unicode="&#xe07e;" horiz-adv-x="386" 
d="M66 432v31q35 31 73.5 59t70 56t52 58t20.5 66q0 34 -18 55t-60 21q-15 0 -30.5 -3t-28 -11.5t-20.5 -23.5t-8 -40h-50q0 36 14 59t34.5 36.5t44.5 18.5t44 5q66 0 97.5 -33.5t31.5 -83.5q0 -36 -19 -68t-47 -60.5t-60 -53t-57 -45.5h187v-43h-271z" />
    <glyph glyph-name="uniE07F" unicode="&#xe07f;" horiz-adv-x="654" 
d="M102 0v40q61 56 128 106.5t123 101.5t92.5 105.5t36.5 117.5q0 70 -36.5 110t-116.5 40q-28 0 -56 -5.5t-51.5 -22t-38 -47.5t-15.5 -81h-64q1 64 23.5 104.5t56.5 63.5t73 32t72 9q54 0 94 -15.5t67 -42.5t40 -64t13 -81q0 -45 -17 -85.5t-44.5 -78t-63 -71.5t-72.5 -65
t-73 -59.5t-64 -54.5h343v-57h-450z" />
    <glyph glyph-name="uniE080" unicode="&#xe080;" horiz-adv-x="654" 
d="M357 119v-119h-63v119h-200v46h200v108h-200v47h171l-218 344h71l210 -340l210 340h68l-220 -344h173v-47h-202v-108h202v-46h-202z" />
    <glyph glyph-name="uniE081" unicode="&#xe081;" horiz-adv-x="590" 
d="M295 -12q-56 0 -100.5 19.5t-76 55.5t-48 87t-16.5 113t16.5 112.5t48 86.5t76 56t100.5 20q55 0 100 -20t76.5 -56t48.5 -86.5t17 -112.5t-17 -113t-48.5 -87t-76.5 -55.5t-100 -19.5zM295 45q43 0 75.5 16t55 44.5t34 68.5t11.5 89t-11.5 89.5t-34 69t-55 44.5
t-75.5 16t-75.5 -16t-54.5 -44.5t-33.5 -69t-11.5 -89.5t11.5 -89t33.5 -68.5t54.5 -44.5t75.5 -16z" />
    <glyph glyph-name="uniE082" unicode="&#xe082;" horiz-adv-x="590" 
d="M257 226v75h75v-75h-75zM295 -12q-56 0 -100.5 19.5t-76 55.5t-48 87t-16.5 113t16.5 112.5t48 86.5t76 56t100.5 20q55 0 100 -20t76.5 -56t48.5 -86.5t17 -112.5t-17 -113t-48.5 -87t-76.5 -55.5t-100 -19.5zM295 45q43 0 75.5 16t55 44.5t34 68.5t11.5 89t-11.5 89.5
t-34 69t-55 44.5t-75.5 16t-75.5 -16t-54.5 -44.5t-33.5 -69t-11.5 -89.5t11.5 -89t33.5 -68.5t54.5 -44.5t75.5 -16z" />
    <glyph glyph-name="uniE083" unicode="&#xe083;" horiz-adv-x="590" 
d="M257 226v75h75v-75h-75zM295 -12q-56 0 -100.5 19.5t-76 55.5t-48 87t-16.5 113t16.5 112.5t48 86.5t76 56t100.5 20q55 0 100 -20t76.5 -56t48.5 -86.5t17 -112.5t-17 -113t-48.5 -87t-76.5 -55.5t-100 -19.5zM295 45q43 0 75.5 16t55 44.5t34 68.5t11.5 89t-11.5 89.5
t-34 69t-55 44.5t-75.5 16t-75.5 -16t-54.5 -44.5t-33.5 -69t-11.5 -89.5t11.5 -89t33.5 -68.5t54.5 -44.5t75.5 -16z" />
    <glyph glyph-name="uniE084" unicode="&#xe084;" horiz-adv-x="590" 
d="M295 -12q-56 0 -100.5 19.5t-76 55.5t-48 87t-16.5 113t16.5 112.5t48 86.5t76 56t100.5 20q55 0 100 -20t76.5 -56t48.5 -86.5t17 -112.5t-17 -113t-48.5 -87t-76.5 -55.5t-100 -19.5zM295 45q43 0 75.5 16t55 44.5t34 68.5t11.5 89t-11.5 89.5t-34 69t-55 44.5
t-75.5 16t-75.5 -16t-54.5 -44.5t-33.5 -69t-11.5 -89.5t11.5 -89t33.5 -68.5t54.5 -44.5t75.5 -16z" />
    <glyph glyph-name="uniE085" unicode="&#xe085;" horiz-adv-x="404" 
d="M202 -93q-74 0 -116.5 52t-42.5 144q0 93 42.5 145t116.5 52t116.5 -52t42.5 -145q0 -92 -42.5 -144t-116.5 -52zM202 -51q52 0 80 40t28 114q0 75 -28 115.5t-80 40.5q-53 0 -80.5 -40.5t-27.5 -115.5q0 -74 27.5 -114t80.5 -40z" />
    <glyph glyph-name="uniE086" unicode="&#xe086;" horiz-adv-x="654" 
d="M287 292v80h80v-80h-80zM328 -12q-62 0 -111 23.5t-84 68t-53.5 108t-18.5 143.5t18.5 143.5t53.5 108t84 68t111 23.5q61 0 110 -23.5t83.5 -68t53.5 -108t19 -143.5t-19 -143.5t-53.5 -108t-83.5 -68t-110 -23.5zM328 45q98 0 149 75t51 211t-51 211.5t-149 75.5
t-149 -75.5t-51 -211.5t51 -211t149 -75z" />
    <glyph glyph-name="uniE087" unicode="&#xe087;" horiz-adv-x="654" 
d="M287 292v80h80v-80h-80zM328 -12q-62 0 -111 23.5t-84 68t-53.5 108t-18.5 143.5t18.5 143.5t53.5 108t84 68t111 23.5q61 0 110 -23.5t83.5 -68t53.5 -108t19 -143.5t-19 -143.5t-53.5 -108t-83.5 -68t-110 -23.5zM328 45q98 0 149 75t51 211t-51 211.5t-149 75.5
t-149 -75.5t-51 -211.5t51 -211t149 -75z" />
    <glyph glyph-name="uniE088" unicode="&#xe088;" horiz-adv-x="404" 
d="M202 426q-74 0 -116.5 52t-42.5 144q0 93 42.5 145t116.5 52t116.5 -52t42.5 -145q0 -92 -42.5 -144t-116.5 -52zM202 468q52 0 80 40t28 114q0 75 -28 115.5t-80 40.5q-53 0 -80.5 -40.5t-27.5 -115.5q0 -74 27.5 -114t80.5 -40z" />
    <glyph glyph-name="uniE089" unicode="&#xe089;" horiz-adv-x="654" 
d="M328 -12q-62 0 -111 23.5t-84 68t-53.5 108t-18.5 143.5t18.5 143.5t53.5 108t84 68t111 23.5q61 0 110 -23.5t83.5 -68t53.5 -108t19 -143.5t-19 -143.5t-53.5 -108t-83.5 -68t-110 -23.5zM328 45q98 0 149 75t51 211t-51 211.5t-149 75.5t-149 -75.5t-51 -211.5
t51 -211t149 -75z" />
    </font>
</defs>
</svg>
